G04 #@! TF.FileFunction,Soldermask,Top*
%FSLAX46Y46*%
G04 Gerber Fmt 4.6, Leading zero omitted, Abs format (unit mm)*
G04 Created by KiCad (PCBNEW 4.0.7) date 11/16/17 22:13:53*
%MOMM*%
%LPD*%
G01*
G04 APERTURE LIST*
%ADD10C,0.100000*%
%ADD11C,0.300000*%
%ADD12C,0.150000*%
%ADD13R,0.640000X1.040000*%
%ADD14R,0.940000X0.890000*%
%ADD15R,0.890000X0.940000*%
%ADD16R,0.940000X0.940000*%
%ADD17R,1.040000X0.640000*%
%ADD18O,0.380000X0.840000*%
%ADD19O,0.840000X0.380000*%
%ADD20R,1.310000X1.310000*%
%ADD21C,1.840000*%
%ADD22O,1.840000X1.840000*%
%ADD23R,1.840000X1.840000*%
G04 APERTURE END LIST*
D10*
D11*
X90150000Y-132905500D02*
X87650000Y-132905500D01*
D12*
X90250000Y-131555500D02*
X90250000Y-134255500D01*
X87550000Y-131555500D02*
X90250000Y-131555500D01*
X87550000Y-134255500D02*
X87550000Y-131555500D01*
X90250000Y-134255500D02*
X87550000Y-134255500D01*
D11*
X88900000Y-134155500D02*
X88900000Y-131655500D01*
D13*
X91134500Y-138684000D03*
X92634500Y-138684000D03*
D14*
X91134500Y-137223500D03*
X92634500Y-137223500D03*
D15*
X92710000Y-134187500D03*
X92710000Y-135687500D03*
X94056200Y-131623500D03*
X94056200Y-130123500D03*
X92659200Y-131623500D03*
X92659200Y-130123500D03*
D14*
X87110000Y-128778000D03*
X85610000Y-128778000D03*
D15*
X83693000Y-131623500D03*
X83693000Y-130123500D03*
X85090000Y-131623500D03*
X85090000Y-130123500D03*
X85090000Y-134886000D03*
X85090000Y-136386000D03*
D13*
X92380500Y-123507500D03*
X90880500Y-123507500D03*
D16*
X90830500Y-122110500D03*
X92430500Y-122110500D03*
X85369500Y-122110500D03*
X86969500Y-122110500D03*
D13*
X86919500Y-123507500D03*
X85419500Y-123507500D03*
D17*
X88900000Y-123686000D03*
X88900000Y-122186000D03*
D15*
X90333914Y-120826300D03*
X90333914Y-119326300D03*
X88873414Y-120826300D03*
X88873414Y-119326300D03*
X87412914Y-120826300D03*
X87412914Y-119326300D03*
D18*
X90650000Y-135405500D03*
X90150000Y-135405500D03*
X89650000Y-135405500D03*
X89150000Y-135405500D03*
X88650000Y-135405500D03*
X88150000Y-135405500D03*
X87650000Y-135405500D03*
X87150000Y-135405500D03*
D19*
X86400000Y-134655500D03*
X86400000Y-134155500D03*
X86400000Y-133655500D03*
X86400000Y-133155500D03*
X86400000Y-132655500D03*
X86400000Y-132155500D03*
X86400000Y-131655500D03*
X86400000Y-131155500D03*
D18*
X87150000Y-130405500D03*
X87650000Y-130405500D03*
X88150000Y-130405500D03*
X88650000Y-130405500D03*
X89150000Y-130405500D03*
X89650000Y-130405500D03*
X90150000Y-130405500D03*
X90650000Y-130405500D03*
D19*
X91400000Y-131155500D03*
X91400000Y-131655500D03*
X91400000Y-132155500D03*
X91400000Y-132655500D03*
X91400000Y-133155500D03*
X91400000Y-133655500D03*
X91400000Y-134155500D03*
X91400000Y-134655500D03*
D20*
X89600000Y-133605500D03*
X88200000Y-132205500D03*
X88200000Y-133605500D03*
X89600000Y-132205500D03*
D21*
X96520000Y-119380000D03*
D22*
X96520000Y-121920000D03*
X96520000Y-124460000D03*
X96520000Y-127000000D03*
X96520000Y-129540000D03*
X96520000Y-132080000D03*
X96520000Y-134620000D03*
X96520000Y-137160000D03*
X96520000Y-139700000D03*
X96520000Y-142240000D03*
X96520000Y-144780000D03*
X96520000Y-147320000D03*
D21*
X83820000Y-147320000D03*
D22*
X86360000Y-147320000D03*
X88900000Y-147320000D03*
X91440000Y-147320000D03*
X93980000Y-147320000D03*
D23*
X81280000Y-119380000D03*
D22*
X81280000Y-121920000D03*
X81280000Y-124460000D03*
X81280000Y-127000000D03*
X81280000Y-129540000D03*
X81280000Y-132080000D03*
X81280000Y-134620000D03*
X81280000Y-137160000D03*
X81280000Y-139700000D03*
X81280000Y-142240000D03*
X81280000Y-144780000D03*
X81280000Y-147320000D03*
M02*
