G04 #@! TF.FileFunction,Legend,Bot*
%FSLAX46Y46*%
G04 Gerber Fmt 4.6, Leading zero omitted, Abs format (unit mm)*
G04 Created by KiCad (PCBNEW 4.0.7) date 11/16/17 22:13:53*
%MOMM*%
%LPD*%
G01*
G04 APERTURE LIST*
%ADD10C,0.100000*%
%ADD11C,0.200000*%
%ADD12C,0.250000*%
G04 APERTURE END LIST*
D10*
D11*
X95694500Y-146558000D02*
X94932500Y-145605500D01*
X82169000Y-146494500D02*
X82994500Y-145605500D01*
D12*
X88518310Y-145946762D02*
X88375453Y-145994381D01*
X88137357Y-145994381D01*
X88042119Y-145946762D01*
X87994500Y-145899143D01*
X87946881Y-145803905D01*
X87946881Y-145708667D01*
X87994500Y-145613429D01*
X88042119Y-145565810D01*
X88137357Y-145518190D01*
X88327834Y-145470571D01*
X88423072Y-145422952D01*
X88470691Y-145375333D01*
X88518310Y-145280095D01*
X88518310Y-145184857D01*
X88470691Y-145089619D01*
X88423072Y-145042000D01*
X88327834Y-144994381D01*
X88089738Y-144994381D01*
X87946881Y-145042000D01*
X86946881Y-145899143D02*
X86994500Y-145946762D01*
X87137357Y-145994381D01*
X87232595Y-145994381D01*
X87375453Y-145946762D01*
X87470691Y-145851524D01*
X87518310Y-145756286D01*
X87565929Y-145565810D01*
X87565929Y-145422952D01*
X87518310Y-145232476D01*
X87470691Y-145137238D01*
X87375453Y-145042000D01*
X87232595Y-144994381D01*
X87137357Y-144994381D01*
X86994500Y-145042000D01*
X86946881Y-145089619D01*
X86042119Y-145994381D02*
X86518310Y-145994381D01*
X86518310Y-144994381D01*
X84994500Y-144946762D02*
X85851643Y-146232476D01*
X84137357Y-145994381D02*
X84708786Y-145994381D01*
X84423072Y-145994381D02*
X84423072Y-144994381D01*
X84518310Y-145137238D01*
X84613548Y-145232476D01*
X84708786Y-145280095D01*
X83184976Y-145994381D02*
X83756405Y-145994381D01*
X83470691Y-145994381D02*
X83470691Y-144994381D01*
X83565929Y-145137238D01*
X83661167Y-145232476D01*
X83756405Y-145280095D01*
X88121429Y-144422762D02*
X87978572Y-144470381D01*
X87740476Y-144470381D01*
X87645238Y-144422762D01*
X87597619Y-144375143D01*
X87550000Y-144279905D01*
X87550000Y-144184667D01*
X87597619Y-144089429D01*
X87645238Y-144041810D01*
X87740476Y-143994190D01*
X87930953Y-143946571D01*
X88026191Y-143898952D01*
X88073810Y-143851333D01*
X88121429Y-143756095D01*
X88121429Y-143660857D01*
X88073810Y-143565619D01*
X88026191Y-143518000D01*
X87930953Y-143470381D01*
X87692857Y-143470381D01*
X87550000Y-143518000D01*
X87121429Y-144470381D02*
X87121429Y-143470381D01*
X86883334Y-143470381D01*
X86740476Y-143518000D01*
X86645238Y-143613238D01*
X86597619Y-143708476D01*
X86550000Y-143898952D01*
X86550000Y-144041810D01*
X86597619Y-144232286D01*
X86645238Y-144327524D01*
X86740476Y-144422762D01*
X86883334Y-144470381D01*
X87121429Y-144470381D01*
X86169048Y-144184667D02*
X85692857Y-144184667D01*
X86264286Y-144470381D02*
X85930953Y-143470381D01*
X85597619Y-144470381D01*
X84550000Y-143422762D02*
X85407143Y-144708476D01*
X83692857Y-144470381D02*
X84264286Y-144470381D01*
X83978572Y-144470381D02*
X83978572Y-143470381D01*
X84073810Y-143613238D01*
X84169048Y-143708476D01*
X84264286Y-143756095D01*
X83073810Y-143470381D02*
X82978571Y-143470381D01*
X82883333Y-143518000D01*
X82835714Y-143565619D01*
X82788095Y-143660857D01*
X82740476Y-143851333D01*
X82740476Y-144089429D01*
X82788095Y-144279905D01*
X82835714Y-144375143D01*
X82883333Y-144422762D01*
X82978571Y-144470381D01*
X83073810Y-144470381D01*
X83169048Y-144422762D01*
X83216667Y-144375143D01*
X83264286Y-144279905D01*
X83311905Y-144089429D01*
X83311905Y-143851333D01*
X83264286Y-143660857D01*
X83216667Y-143565619D01*
X83169048Y-143518000D01*
X83073810Y-143470381D01*
X88597619Y-141692381D02*
X88597619Y-142406667D01*
X88645239Y-142549524D01*
X88740477Y-142644762D01*
X88883334Y-142692381D01*
X88978572Y-142692381D01*
X88264286Y-141692381D02*
X87692857Y-141692381D01*
X87978572Y-142692381D02*
X87978572Y-141692381D01*
X86835714Y-141740000D02*
X86930952Y-141692381D01*
X87073809Y-141692381D01*
X87216667Y-141740000D01*
X87311905Y-141835238D01*
X87359524Y-141930476D01*
X87407143Y-142120952D01*
X87407143Y-142263810D01*
X87359524Y-142454286D01*
X87311905Y-142549524D01*
X87216667Y-142644762D01*
X87073809Y-142692381D01*
X86978571Y-142692381D01*
X86835714Y-142644762D01*
X86788095Y-142597143D01*
X86788095Y-142263810D01*
X86978571Y-142263810D01*
X86359524Y-142692381D02*
X86359524Y-141692381D01*
X85788095Y-142692381D01*
X85788095Y-141692381D01*
X84978571Y-142168571D02*
X84835714Y-142216190D01*
X84788095Y-142263810D01*
X84740476Y-142359048D01*
X84740476Y-142501905D01*
X84788095Y-142597143D01*
X84835714Y-142644762D01*
X84930952Y-142692381D01*
X85311905Y-142692381D01*
X85311905Y-141692381D01*
X84978571Y-141692381D01*
X84883333Y-141740000D01*
X84835714Y-141787619D01*
X84788095Y-141882857D01*
X84788095Y-141978095D01*
X84835714Y-142073333D01*
X84883333Y-142120952D01*
X84978571Y-142168571D01*
X85311905Y-142168571D01*
X83597619Y-141644762D02*
X84454762Y-142930476D01*
X83216667Y-142692381D02*
X83026191Y-142692381D01*
X82930952Y-142644762D01*
X82883333Y-142597143D01*
X82788095Y-142454286D01*
X82740476Y-142263810D01*
X82740476Y-141882857D01*
X82788095Y-141787619D01*
X82835714Y-141740000D01*
X82930952Y-141692381D01*
X83121429Y-141692381D01*
X83216667Y-141740000D01*
X83264286Y-141787619D01*
X83311905Y-141882857D01*
X83311905Y-142120952D01*
X83264286Y-142216190D01*
X83216667Y-142263810D01*
X83121429Y-142311429D01*
X82930952Y-142311429D01*
X82835714Y-142263810D01*
X82788095Y-142216190D01*
X82740476Y-142120952D01*
X88502381Y-140152381D02*
X88502381Y-139152381D01*
X88121428Y-139152381D01*
X88026190Y-139200000D01*
X87978571Y-139247619D01*
X87930952Y-139342857D01*
X87930952Y-139485714D01*
X87978571Y-139580952D01*
X88026190Y-139628571D01*
X88121428Y-139676190D01*
X88502381Y-139676190D01*
X86978571Y-139200000D02*
X87073809Y-139152381D01*
X87216666Y-139152381D01*
X87359524Y-139200000D01*
X87454762Y-139295238D01*
X87502381Y-139390476D01*
X87550000Y-139580952D01*
X87550000Y-139723810D01*
X87502381Y-139914286D01*
X87454762Y-140009524D01*
X87359524Y-140104762D01*
X87216666Y-140152381D01*
X87121428Y-140152381D01*
X86978571Y-140104762D01*
X86930952Y-140057143D01*
X86930952Y-139723810D01*
X87121428Y-139723810D01*
X86502381Y-140152381D02*
X86502381Y-139152381D01*
X86169047Y-139866667D01*
X85835714Y-139152381D01*
X85835714Y-140152381D01*
X85359524Y-140152381D02*
X85359524Y-139152381D01*
X84788095Y-140152381D01*
X84788095Y-139152381D01*
X83597619Y-139104762D02*
X84454762Y-140390476D01*
X83121429Y-139580952D02*
X83216667Y-139533333D01*
X83264286Y-139485714D01*
X83311905Y-139390476D01*
X83311905Y-139342857D01*
X83264286Y-139247619D01*
X83216667Y-139200000D01*
X83121429Y-139152381D01*
X82930952Y-139152381D01*
X82835714Y-139200000D01*
X82788095Y-139247619D01*
X82740476Y-139342857D01*
X82740476Y-139390476D01*
X82788095Y-139485714D01*
X82835714Y-139533333D01*
X82930952Y-139580952D01*
X83121429Y-139580952D01*
X83216667Y-139628571D01*
X83264286Y-139676190D01*
X83311905Y-139771429D01*
X83311905Y-139961905D01*
X83264286Y-140057143D01*
X83216667Y-140104762D01*
X83121429Y-140152381D01*
X82930952Y-140152381D01*
X82835714Y-140104762D01*
X82788095Y-140057143D01*
X82740476Y-139961905D01*
X82740476Y-139771429D01*
X82788095Y-139676190D01*
X82835714Y-139628571D01*
X82930952Y-139580952D01*
X88311905Y-137612381D02*
X88311905Y-136612381D01*
X88073810Y-136612381D01*
X87930952Y-136660000D01*
X87835714Y-136755238D01*
X87788095Y-136850476D01*
X87740476Y-137040952D01*
X87740476Y-137183810D01*
X87788095Y-137374286D01*
X87835714Y-137469524D01*
X87930952Y-137564762D01*
X88073810Y-137612381D01*
X88311905Y-137612381D01*
X87121429Y-136612381D02*
X86930952Y-136612381D01*
X86835714Y-136660000D01*
X86740476Y-136755238D01*
X86692857Y-136945714D01*
X86692857Y-137279048D01*
X86740476Y-137469524D01*
X86835714Y-137564762D01*
X86930952Y-137612381D01*
X87121429Y-137612381D01*
X87216667Y-137564762D01*
X87311905Y-137469524D01*
X87359524Y-137279048D01*
X87359524Y-136945714D01*
X87311905Y-136755238D01*
X87216667Y-136660000D01*
X87121429Y-136612381D01*
X86264286Y-137612381D02*
X86264286Y-136612381D01*
X85692857Y-137612381D01*
X85692857Y-136612381D01*
X85216667Y-137088571D02*
X84883333Y-137088571D01*
X84740476Y-137612381D02*
X85216667Y-137612381D01*
X85216667Y-136612381D01*
X84740476Y-136612381D01*
X83597619Y-136564762D02*
X84454762Y-137850476D01*
X83359524Y-136612381D02*
X82692857Y-136612381D01*
X83121429Y-137612381D01*
X82835714Y-134072381D02*
X83026191Y-134072381D01*
X83121429Y-134120000D01*
X83169048Y-134167619D01*
X83264286Y-134310476D01*
X83311905Y-134500952D01*
X83311905Y-134881905D01*
X83264286Y-134977143D01*
X83216667Y-135024762D01*
X83121429Y-135072381D01*
X82930952Y-135072381D01*
X82835714Y-135024762D01*
X82788095Y-134977143D01*
X82740476Y-134881905D01*
X82740476Y-134643810D01*
X82788095Y-134548571D01*
X82835714Y-134500952D01*
X82930952Y-134453333D01*
X83121429Y-134453333D01*
X83216667Y-134500952D01*
X83264286Y-134548571D01*
X83311905Y-134643810D01*
X82788095Y-131532381D02*
X83264286Y-131532381D01*
X83311905Y-132008571D01*
X83264286Y-131960952D01*
X83169048Y-131913333D01*
X82930952Y-131913333D01*
X82835714Y-131960952D01*
X82788095Y-132008571D01*
X82740476Y-132103810D01*
X82740476Y-132341905D01*
X82788095Y-132437143D01*
X82835714Y-132484762D01*
X82930952Y-132532381D01*
X83169048Y-132532381D01*
X83264286Y-132484762D01*
X83311905Y-132437143D01*
X87930952Y-129992381D02*
X87930952Y-128992381D01*
X87597618Y-129706667D01*
X87264285Y-128992381D01*
X87264285Y-129992381D01*
X86597619Y-128992381D02*
X86407142Y-128992381D01*
X86311904Y-129040000D01*
X86216666Y-129135238D01*
X86169047Y-129325714D01*
X86169047Y-129659048D01*
X86216666Y-129849524D01*
X86311904Y-129944762D01*
X86407142Y-129992381D01*
X86597619Y-129992381D01*
X86692857Y-129944762D01*
X86788095Y-129849524D01*
X86835714Y-129659048D01*
X86835714Y-129325714D01*
X86788095Y-129135238D01*
X86692857Y-129040000D01*
X86597619Y-128992381D01*
X85788095Y-129944762D02*
X85645238Y-129992381D01*
X85407142Y-129992381D01*
X85311904Y-129944762D01*
X85264285Y-129897143D01*
X85216666Y-129801905D01*
X85216666Y-129706667D01*
X85264285Y-129611429D01*
X85311904Y-129563810D01*
X85407142Y-129516190D01*
X85597619Y-129468571D01*
X85692857Y-129420952D01*
X85740476Y-129373333D01*
X85788095Y-129278095D01*
X85788095Y-129182857D01*
X85740476Y-129087619D01*
X85692857Y-129040000D01*
X85597619Y-128992381D01*
X85359523Y-128992381D01*
X85216666Y-129040000D01*
X84788095Y-129992381D02*
X84788095Y-128992381D01*
X83597619Y-128944762D02*
X84454762Y-130230476D01*
X82835714Y-129325714D02*
X82835714Y-129992381D01*
X83073810Y-128944762D02*
X83311905Y-129659048D01*
X82692857Y-129659048D01*
X86359524Y-127404762D02*
X86216667Y-127452381D01*
X85978571Y-127452381D01*
X85883333Y-127404762D01*
X85835714Y-127357143D01*
X85788095Y-127261905D01*
X85788095Y-127166667D01*
X85835714Y-127071429D01*
X85883333Y-127023810D01*
X85978571Y-126976190D01*
X86169048Y-126928571D01*
X86264286Y-126880952D01*
X86311905Y-126833333D01*
X86359524Y-126738095D01*
X86359524Y-126642857D01*
X86311905Y-126547619D01*
X86264286Y-126500000D01*
X86169048Y-126452381D01*
X85930952Y-126452381D01*
X85788095Y-126500000D01*
X85359524Y-127452381D02*
X85359524Y-126452381D01*
X84788095Y-127452381D01*
X84788095Y-126452381D01*
X83597619Y-126404762D02*
X84454762Y-127690476D01*
X83359524Y-126452381D02*
X82740476Y-126452381D01*
X83073810Y-126833333D01*
X82930952Y-126833333D01*
X82835714Y-126880952D01*
X82788095Y-126928571D01*
X82740476Y-127023810D01*
X82740476Y-127261905D01*
X82788095Y-127357143D01*
X82835714Y-127404762D01*
X82930952Y-127452381D01*
X83216667Y-127452381D01*
X83311905Y-127404762D01*
X83359524Y-127357143D01*
X83311905Y-124007619D02*
X83264286Y-123960000D01*
X83169048Y-123912381D01*
X82930952Y-123912381D01*
X82835714Y-123960000D01*
X82788095Y-124007619D01*
X82740476Y-124102857D01*
X82740476Y-124198095D01*
X82788095Y-124340952D01*
X83359524Y-124912381D01*
X82740476Y-124912381D01*
X82740476Y-122372381D02*
X83311905Y-122372381D01*
X83026191Y-122372381D02*
X83026191Y-121372381D01*
X83121429Y-121515238D01*
X83216667Y-121610476D01*
X83311905Y-121658095D01*
X84835714Y-118880000D02*
X84930952Y-118832381D01*
X85073809Y-118832381D01*
X85216667Y-118880000D01*
X85311905Y-118975238D01*
X85359524Y-119070476D01*
X85407143Y-119260952D01*
X85407143Y-119403810D01*
X85359524Y-119594286D01*
X85311905Y-119689524D01*
X85216667Y-119784762D01*
X85073809Y-119832381D01*
X84978571Y-119832381D01*
X84835714Y-119784762D01*
X84788095Y-119737143D01*
X84788095Y-119403810D01*
X84978571Y-119403810D01*
X84359524Y-119832381D02*
X84359524Y-118832381D01*
X83788095Y-119832381D01*
X83788095Y-118832381D01*
X83311905Y-119832381D02*
X83311905Y-118832381D01*
X83073810Y-118832381D01*
X82930952Y-118880000D01*
X82835714Y-118975238D01*
X82788095Y-119070476D01*
X82740476Y-119260952D01*
X82740476Y-119403810D01*
X82788095Y-119594286D01*
X82835714Y-119689524D01*
X82930952Y-119784762D01*
X83073810Y-119832381D01*
X83311905Y-119832381D01*
X94107095Y-145994381D02*
X94678524Y-145994381D01*
X94392810Y-145994381D02*
X94392810Y-144994381D01*
X94488048Y-145137238D01*
X94583286Y-145232476D01*
X94678524Y-145280095D01*
X93726143Y-145089619D02*
X93678524Y-145042000D01*
X93583286Y-144994381D01*
X93345190Y-144994381D01*
X93249952Y-145042000D01*
X93202333Y-145089619D01*
X93154714Y-145184857D01*
X93154714Y-145280095D01*
X93202333Y-145422952D01*
X93773762Y-145994381D01*
X93154714Y-145994381D01*
X92011857Y-144946762D02*
X92869000Y-146232476D01*
X91821381Y-144994381D02*
X91249952Y-144994381D01*
X91535667Y-145994381D02*
X91535667Y-144994381D01*
X90916619Y-145994381D02*
X90916619Y-144994381D01*
X90678524Y-144994381D01*
X90535666Y-145042000D01*
X90440428Y-145137238D01*
X90392809Y-145232476D01*
X90345190Y-145422952D01*
X90345190Y-145565810D01*
X90392809Y-145756286D01*
X90440428Y-145851524D01*
X90535666Y-145946762D01*
X90678524Y-145994381D01*
X90916619Y-145994381D01*
X89726143Y-144994381D02*
X89535666Y-144994381D01*
X89440428Y-145042000D01*
X89345190Y-145137238D01*
X89297571Y-145327714D01*
X89297571Y-145661048D01*
X89345190Y-145851524D01*
X89440428Y-145946762D01*
X89535666Y-145994381D01*
X89726143Y-145994381D01*
X89821381Y-145946762D01*
X89916619Y-145851524D01*
X89964238Y-145661048D01*
X89964238Y-145327714D01*
X89916619Y-145137238D01*
X89821381Y-145042000D01*
X89726143Y-144994381D01*
X94488095Y-144470381D02*
X95059524Y-144470381D01*
X94773810Y-144470381D02*
X94773810Y-143470381D01*
X94869048Y-143613238D01*
X94964286Y-143708476D01*
X95059524Y-143756095D01*
X94154762Y-143470381D02*
X93535714Y-143470381D01*
X93869048Y-143851333D01*
X93726190Y-143851333D01*
X93630952Y-143898952D01*
X93583333Y-143946571D01*
X93535714Y-144041810D01*
X93535714Y-144279905D01*
X93583333Y-144375143D01*
X93630952Y-144422762D01*
X93726190Y-144470381D01*
X94011905Y-144470381D01*
X94107143Y-144422762D01*
X94154762Y-144375143D01*
X92392857Y-143422762D02*
X93250000Y-144708476D01*
X92202381Y-143470381D02*
X91630952Y-143470381D01*
X91916667Y-144470381D02*
X91916667Y-143470381D01*
X91297619Y-144470381D02*
X91297619Y-143470381D01*
X91059524Y-143470381D01*
X90916666Y-143518000D01*
X90821428Y-143613238D01*
X90773809Y-143708476D01*
X90726190Y-143898952D01*
X90726190Y-144041810D01*
X90773809Y-144232286D01*
X90821428Y-144327524D01*
X90916666Y-144422762D01*
X91059524Y-144470381D01*
X91297619Y-144470381D01*
X90297619Y-144470381D02*
X90297619Y-143470381D01*
X94488095Y-142692381D02*
X95059524Y-142692381D01*
X94773810Y-142692381D02*
X94773810Y-141692381D01*
X94869048Y-141835238D01*
X94964286Y-141930476D01*
X95059524Y-141978095D01*
X93630952Y-142025714D02*
X93630952Y-142692381D01*
X93869048Y-141644762D02*
X94107143Y-142359048D01*
X93488095Y-142359048D01*
X92392857Y-141644762D02*
X93250000Y-142930476D01*
X92202381Y-141692381D02*
X91630952Y-141692381D01*
X91916667Y-142692381D02*
X91916667Y-141692381D01*
X90726190Y-142597143D02*
X90773809Y-142644762D01*
X90916666Y-142692381D01*
X91011904Y-142692381D01*
X91154762Y-142644762D01*
X91250000Y-142549524D01*
X91297619Y-142454286D01*
X91345238Y-142263810D01*
X91345238Y-142120952D01*
X91297619Y-141930476D01*
X91250000Y-141835238D01*
X91154762Y-141740000D01*
X91011904Y-141692381D01*
X90916666Y-141692381D01*
X90773809Y-141740000D01*
X90726190Y-141787619D01*
X90297619Y-142692381D02*
X90297619Y-141692381D01*
X89726190Y-142692381D02*
X90154762Y-142120952D01*
X89726190Y-141692381D02*
X90297619Y-142263810D01*
X94488095Y-140152381D02*
X95059524Y-140152381D01*
X94773810Y-140152381D02*
X94773810Y-139152381D01*
X94869048Y-139295238D01*
X94964286Y-139390476D01*
X95059524Y-139438095D01*
X93583333Y-139152381D02*
X94059524Y-139152381D01*
X94107143Y-139628571D01*
X94059524Y-139580952D01*
X93964286Y-139533333D01*
X93726190Y-139533333D01*
X93630952Y-139580952D01*
X93583333Y-139628571D01*
X93535714Y-139723810D01*
X93535714Y-139961905D01*
X93583333Y-140057143D01*
X93630952Y-140104762D01*
X93726190Y-140152381D01*
X93964286Y-140152381D01*
X94059524Y-140104762D01*
X94107143Y-140057143D01*
X92392857Y-139104762D02*
X93250000Y-140390476D01*
X92202381Y-139152381D02*
X91630952Y-139152381D01*
X91916667Y-140152381D02*
X91916667Y-139152381D01*
X91297619Y-140152381D02*
X91297619Y-139152381D01*
X90964285Y-139866667D01*
X90630952Y-139152381D01*
X90630952Y-140152381D01*
X90202381Y-140104762D02*
X90059524Y-140152381D01*
X89821428Y-140152381D01*
X89726190Y-140104762D01*
X89678571Y-140057143D01*
X89630952Y-139961905D01*
X89630952Y-139866667D01*
X89678571Y-139771429D01*
X89726190Y-139723810D01*
X89821428Y-139676190D01*
X90011905Y-139628571D01*
X90107143Y-139580952D01*
X90154762Y-139533333D01*
X90202381Y-139438095D01*
X90202381Y-139342857D01*
X90154762Y-139247619D01*
X90107143Y-139200000D01*
X90011905Y-139152381D01*
X89773809Y-139152381D01*
X89630952Y-139200000D01*
X94488095Y-137612381D02*
X95059524Y-137612381D01*
X94773810Y-137612381D02*
X94773810Y-136612381D01*
X94869048Y-136755238D01*
X94964286Y-136850476D01*
X95059524Y-136898095D01*
X93630952Y-136612381D02*
X93821429Y-136612381D01*
X93916667Y-136660000D01*
X93964286Y-136707619D01*
X94059524Y-136850476D01*
X94107143Y-137040952D01*
X94107143Y-137421905D01*
X94059524Y-137517143D01*
X94011905Y-137564762D01*
X93916667Y-137612381D01*
X93726190Y-137612381D01*
X93630952Y-137564762D01*
X93583333Y-137517143D01*
X93535714Y-137421905D01*
X93535714Y-137183810D01*
X93583333Y-137088571D01*
X93630952Y-137040952D01*
X93726190Y-136993333D01*
X93916667Y-136993333D01*
X94011905Y-137040952D01*
X94059524Y-137088571D01*
X94107143Y-137183810D01*
X94488095Y-135072381D02*
X95059524Y-135072381D01*
X94773810Y-135072381D02*
X94773810Y-134072381D01*
X94869048Y-134215238D01*
X94964286Y-134310476D01*
X95059524Y-134358095D01*
X94154762Y-134072381D02*
X93488095Y-134072381D01*
X93916667Y-135072381D01*
X94488095Y-132532381D02*
X95059524Y-132532381D01*
X94773810Y-132532381D02*
X94773810Y-131532381D01*
X94869048Y-131675238D01*
X94964286Y-131770476D01*
X95059524Y-131818095D01*
X93916667Y-131960952D02*
X94011905Y-131913333D01*
X94059524Y-131865714D01*
X94107143Y-131770476D01*
X94107143Y-131722857D01*
X94059524Y-131627619D01*
X94011905Y-131580000D01*
X93916667Y-131532381D01*
X93726190Y-131532381D01*
X93630952Y-131580000D01*
X93583333Y-131627619D01*
X93535714Y-131722857D01*
X93535714Y-131770476D01*
X93583333Y-131865714D01*
X93630952Y-131913333D01*
X93726190Y-131960952D01*
X93916667Y-131960952D01*
X94011905Y-132008571D01*
X94059524Y-132056190D01*
X94107143Y-132151429D01*
X94107143Y-132341905D01*
X94059524Y-132437143D01*
X94011905Y-132484762D01*
X93916667Y-132532381D01*
X93726190Y-132532381D01*
X93630952Y-132484762D01*
X93583333Y-132437143D01*
X93535714Y-132341905D01*
X93535714Y-132151429D01*
X93583333Y-132056190D01*
X93630952Y-132008571D01*
X93726190Y-131960952D01*
X92392857Y-131484762D02*
X93250000Y-132770476D01*
X91488095Y-132437143D02*
X91535714Y-132484762D01*
X91678571Y-132532381D01*
X91773809Y-132532381D01*
X91916667Y-132484762D01*
X92011905Y-132389524D01*
X92059524Y-132294286D01*
X92107143Y-132103810D01*
X92107143Y-131960952D01*
X92059524Y-131770476D01*
X92011905Y-131675238D01*
X91916667Y-131580000D01*
X91773809Y-131532381D01*
X91678571Y-131532381D01*
X91535714Y-131580000D01*
X91488095Y-131627619D01*
X91107143Y-132484762D02*
X90964286Y-132532381D01*
X90726190Y-132532381D01*
X90630952Y-132484762D01*
X90583333Y-132437143D01*
X90535714Y-132341905D01*
X90535714Y-132246667D01*
X90583333Y-132151429D01*
X90630952Y-132103810D01*
X90726190Y-132056190D01*
X90916667Y-132008571D01*
X91011905Y-131960952D01*
X91059524Y-131913333D01*
X91107143Y-131818095D01*
X91107143Y-131722857D01*
X91059524Y-131627619D01*
X91011905Y-131580000D01*
X90916667Y-131532381D01*
X90678571Y-131532381D01*
X90535714Y-131580000D01*
X94488095Y-129992381D02*
X95059524Y-129992381D01*
X94773810Y-129992381D02*
X94773810Y-128992381D01*
X94869048Y-129135238D01*
X94964286Y-129230476D01*
X95059524Y-129278095D01*
X94011905Y-129992381D02*
X93821429Y-129992381D01*
X93726190Y-129944762D01*
X93678571Y-129897143D01*
X93583333Y-129754286D01*
X93535714Y-129563810D01*
X93535714Y-129182857D01*
X93583333Y-129087619D01*
X93630952Y-129040000D01*
X93726190Y-128992381D01*
X93916667Y-128992381D01*
X94011905Y-129040000D01*
X94059524Y-129087619D01*
X94107143Y-129182857D01*
X94107143Y-129420952D01*
X94059524Y-129516190D01*
X94011905Y-129563810D01*
X93916667Y-129611429D01*
X93726190Y-129611429D01*
X93630952Y-129563810D01*
X93583333Y-129516190D01*
X93535714Y-129420952D01*
X92392857Y-128944762D02*
X93250000Y-130230476D01*
X92107143Y-129944762D02*
X91964286Y-129992381D01*
X91726190Y-129992381D01*
X91630952Y-129944762D01*
X91583333Y-129897143D01*
X91535714Y-129801905D01*
X91535714Y-129706667D01*
X91583333Y-129611429D01*
X91630952Y-129563810D01*
X91726190Y-129516190D01*
X91916667Y-129468571D01*
X92011905Y-129420952D01*
X92059524Y-129373333D01*
X92107143Y-129278095D01*
X92107143Y-129182857D01*
X92059524Y-129087619D01*
X92011905Y-129040000D01*
X91916667Y-128992381D01*
X91678571Y-128992381D01*
X91535714Y-129040000D01*
X90535714Y-129897143D02*
X90583333Y-129944762D01*
X90726190Y-129992381D01*
X90821428Y-129992381D01*
X90964286Y-129944762D01*
X91059524Y-129849524D01*
X91107143Y-129754286D01*
X91154762Y-129563810D01*
X91154762Y-129420952D01*
X91107143Y-129230476D01*
X91059524Y-129135238D01*
X90964286Y-129040000D01*
X90821428Y-128992381D01*
X90726190Y-128992381D01*
X90583333Y-129040000D01*
X90535714Y-129087619D01*
X89630952Y-129992381D02*
X90107143Y-129992381D01*
X90107143Y-128992381D01*
X89297619Y-129992381D02*
X89297619Y-128992381D01*
X88726190Y-129992381D02*
X89154762Y-129420952D01*
X88726190Y-128992381D02*
X89297619Y-129563810D01*
X95059524Y-126547619D02*
X95011905Y-126500000D01*
X94916667Y-126452381D01*
X94678571Y-126452381D01*
X94583333Y-126500000D01*
X94535714Y-126547619D01*
X94488095Y-126642857D01*
X94488095Y-126738095D01*
X94535714Y-126880952D01*
X95107143Y-127452381D01*
X94488095Y-127452381D01*
X93869048Y-126452381D02*
X93773809Y-126452381D01*
X93678571Y-126500000D01*
X93630952Y-126547619D01*
X93583333Y-126642857D01*
X93535714Y-126833333D01*
X93535714Y-127071429D01*
X93583333Y-127261905D01*
X93630952Y-127357143D01*
X93678571Y-127404762D01*
X93773809Y-127452381D01*
X93869048Y-127452381D01*
X93964286Y-127404762D01*
X94011905Y-127357143D01*
X94059524Y-127261905D01*
X94107143Y-127071429D01*
X94107143Y-126833333D01*
X94059524Y-126642857D01*
X94011905Y-126547619D01*
X93964286Y-126500000D01*
X93869048Y-126452381D01*
X92392857Y-126404762D02*
X93250000Y-127690476D01*
X92059524Y-127452381D02*
X92059524Y-126452381D01*
X91726190Y-127166667D01*
X91392857Y-126452381D01*
X91392857Y-127452381D01*
X90916667Y-127452381D02*
X90916667Y-126452381D01*
X90488096Y-127404762D02*
X90345239Y-127452381D01*
X90107143Y-127452381D01*
X90011905Y-127404762D01*
X89964286Y-127357143D01*
X89916667Y-127261905D01*
X89916667Y-127166667D01*
X89964286Y-127071429D01*
X90011905Y-127023810D01*
X90107143Y-126976190D01*
X90297620Y-126928571D01*
X90392858Y-126880952D01*
X90440477Y-126833333D01*
X90488096Y-126738095D01*
X90488096Y-126642857D01*
X90440477Y-126547619D01*
X90392858Y-126500000D01*
X90297620Y-126452381D01*
X90059524Y-126452381D01*
X89916667Y-126500000D01*
X89297620Y-126452381D02*
X89107143Y-126452381D01*
X89011905Y-126500000D01*
X88916667Y-126595238D01*
X88869048Y-126785714D01*
X88869048Y-127119048D01*
X88916667Y-127309524D01*
X89011905Y-127404762D01*
X89107143Y-127452381D01*
X89297620Y-127452381D01*
X89392858Y-127404762D01*
X89488096Y-127309524D01*
X89535715Y-127119048D01*
X89535715Y-126785714D01*
X89488096Y-126595238D01*
X89392858Y-126500000D01*
X89297620Y-126452381D01*
X95059524Y-124007619D02*
X95011905Y-123960000D01*
X94916667Y-123912381D01*
X94678571Y-123912381D01*
X94583333Y-123960000D01*
X94535714Y-124007619D01*
X94488095Y-124102857D01*
X94488095Y-124198095D01*
X94535714Y-124340952D01*
X95107143Y-124912381D01*
X94488095Y-124912381D01*
X93535714Y-124912381D02*
X94107143Y-124912381D01*
X93821429Y-124912381D02*
X93821429Y-123912381D01*
X93916667Y-124055238D01*
X94011905Y-124150476D01*
X94107143Y-124198095D01*
X95059524Y-121467619D02*
X95011905Y-121420000D01*
X94916667Y-121372381D01*
X94678571Y-121372381D01*
X94583333Y-121420000D01*
X94535714Y-121467619D01*
X94488095Y-121562857D01*
X94488095Y-121658095D01*
X94535714Y-121800952D01*
X95107143Y-122372381D01*
X94488095Y-122372381D01*
X94107143Y-121467619D02*
X94059524Y-121420000D01*
X93964286Y-121372381D01*
X93726190Y-121372381D01*
X93630952Y-121420000D01*
X93583333Y-121467619D01*
X93535714Y-121562857D01*
X93535714Y-121658095D01*
X93583333Y-121800952D01*
X94154762Y-122372381D01*
X93535714Y-122372381D01*
X95107143Y-118832381D02*
X94488095Y-118832381D01*
X94821429Y-119213333D01*
X94678571Y-119213333D01*
X94583333Y-119260952D01*
X94535714Y-119308571D01*
X94488095Y-119403810D01*
X94488095Y-119641905D01*
X94535714Y-119737143D01*
X94583333Y-119784762D01*
X94678571Y-119832381D01*
X94964286Y-119832381D01*
X95059524Y-119784762D01*
X95107143Y-119737143D01*
X94059524Y-119737143D02*
X94011905Y-119784762D01*
X94059524Y-119832381D01*
X94107143Y-119784762D01*
X94059524Y-119737143D01*
X94059524Y-119832381D01*
X93678572Y-118832381D02*
X93059524Y-118832381D01*
X93392858Y-119213333D01*
X93250000Y-119213333D01*
X93154762Y-119260952D01*
X93107143Y-119308571D01*
X93059524Y-119403810D01*
X93059524Y-119641905D01*
X93107143Y-119737143D01*
X93154762Y-119784762D01*
X93250000Y-119832381D01*
X93535715Y-119832381D01*
X93630953Y-119784762D01*
X93678572Y-119737143D01*
X92726191Y-119165714D02*
X92488096Y-119832381D01*
X92250000Y-119165714D01*
M02*
