G04 #@! TF.FileFunction,Copper,L1,Top,Signal*
%FSLAX46Y46*%
G04 Gerber Fmt 4.6, Leading zero omitted, Abs format (unit mm)*
G04 Created by KiCad (PCBNEW 4.0.7) date 11/16/17 22:13:52*
%MOMM*%
%LPD*%
G01*
G04 APERTURE LIST*
%ADD10C,0.100000*%
%ADD11R,0.500000X0.900000*%
%ADD12R,0.800000X0.750000*%
%ADD13R,0.750000X0.800000*%
%ADD14R,0.800000X0.800000*%
%ADD15R,0.900000X0.500000*%
%ADD16O,0.240000X0.700000*%
%ADD17O,0.700000X0.240000*%
%ADD18R,1.170000X1.170000*%
%ADD19C,1.700000*%
%ADD20O,1.700000X1.700000*%
%ADD21R,1.700000X1.700000*%
%ADD22C,0.609600*%
%ADD23C,0.508000*%
%ADD24C,0.254000*%
%ADD25C,0.500000*%
%ADD26C,0.025400*%
G04 APERTURE END LIST*
D10*
D11*
X91134500Y-138684000D03*
X92634500Y-138684000D03*
D12*
X91134500Y-137223500D03*
X92634500Y-137223500D03*
D13*
X92710000Y-134187500D03*
X92710000Y-135687500D03*
X94056200Y-131623500D03*
X94056200Y-130123500D03*
X92659200Y-131623500D03*
X92659200Y-130123500D03*
D12*
X87110000Y-128778000D03*
X85610000Y-128778000D03*
D13*
X83693000Y-131623500D03*
X83693000Y-130123500D03*
X85090000Y-131623500D03*
X85090000Y-130123500D03*
X85090000Y-134886000D03*
X85090000Y-136386000D03*
D11*
X92380500Y-123507500D03*
X90880500Y-123507500D03*
D14*
X90830500Y-122110500D03*
X92430500Y-122110500D03*
X85369500Y-122110500D03*
X86969500Y-122110500D03*
D11*
X86919500Y-123507500D03*
X85419500Y-123507500D03*
D15*
X88900000Y-123686000D03*
X88900000Y-122186000D03*
D13*
X90333914Y-120826300D03*
X90333914Y-119326300D03*
X88873414Y-120826300D03*
X88873414Y-119326300D03*
X87412914Y-120826300D03*
X87412914Y-119326300D03*
D16*
X90650000Y-135405500D03*
X90150000Y-135405500D03*
X89650000Y-135405500D03*
X89150000Y-135405500D03*
X88650000Y-135405500D03*
X88150000Y-135405500D03*
X87650000Y-135405500D03*
X87150000Y-135405500D03*
D17*
X86400000Y-134655500D03*
X86400000Y-134155500D03*
X86400000Y-133655500D03*
X86400000Y-133155500D03*
X86400000Y-132655500D03*
X86400000Y-132155500D03*
X86400000Y-131655500D03*
X86400000Y-131155500D03*
D16*
X87150000Y-130405500D03*
X87650000Y-130405500D03*
X88150000Y-130405500D03*
X88650000Y-130405500D03*
X89150000Y-130405500D03*
X89650000Y-130405500D03*
X90150000Y-130405500D03*
X90650000Y-130405500D03*
D17*
X91400000Y-131155500D03*
X91400000Y-131655500D03*
X91400000Y-132155500D03*
X91400000Y-132655500D03*
X91400000Y-133155500D03*
X91400000Y-133655500D03*
X91400000Y-134155500D03*
X91400000Y-134655500D03*
D18*
X89600000Y-133605500D03*
X88200000Y-132205500D03*
X88200000Y-133605500D03*
X89600000Y-132205500D03*
D19*
X96520000Y-119380000D03*
D20*
X96520000Y-121920000D03*
X96520000Y-124460000D03*
X96520000Y-127000000D03*
X96520000Y-129540000D03*
X96520000Y-132080000D03*
X96520000Y-134620000D03*
X96520000Y-137160000D03*
X96520000Y-139700000D03*
X96520000Y-142240000D03*
X96520000Y-144780000D03*
X96520000Y-147320000D03*
D19*
X83820000Y-147320000D03*
D20*
X86360000Y-147320000D03*
X88900000Y-147320000D03*
X91440000Y-147320000D03*
X93980000Y-147320000D03*
D21*
X81280000Y-119380000D03*
D20*
X81280000Y-121920000D03*
X81280000Y-124460000D03*
X81280000Y-127000000D03*
X81280000Y-129540000D03*
X81280000Y-132080000D03*
X81280000Y-134620000D03*
X81280000Y-137160000D03*
X81280000Y-139700000D03*
X81280000Y-142240000D03*
X81280000Y-144780000D03*
X81280000Y-147320000D03*
D22*
X85090000Y-135743202D03*
X91440000Y-123507500D03*
X85979000Y-123507500D03*
X88138000Y-119316500D03*
X89598500Y-119316500D03*
X91059000Y-119316500D03*
X93662500Y-137223500D03*
X92646500Y-139827000D03*
X91630500Y-130111500D03*
X83693000Y-129032000D03*
X86106000Y-130111500D03*
X91313000Y-135318500D03*
X88200000Y-132205500D03*
X89662000Y-132207000D03*
X88200000Y-133605500D03*
X89600000Y-133605500D03*
X82740500Y-131625000D03*
X84221320Y-125590300D03*
X83693000Y-127254000D03*
X92202000Y-125603000D03*
X90297000Y-136461500D03*
X84074000Y-134937500D03*
X94932500Y-131635500D03*
X93789500Y-134493000D03*
X91134500Y-142240000D03*
X89150000Y-141605000D03*
X91884500Y-143002000D03*
D23*
X85090000Y-136386000D02*
X85090000Y-135743202D01*
X90880500Y-123507500D02*
X91440000Y-123507500D01*
X85419500Y-123507500D02*
X85979000Y-123507500D01*
X87412914Y-119326300D02*
X88128200Y-119326300D01*
X88128200Y-119326300D02*
X88138000Y-119316500D01*
X88873414Y-119326300D02*
X89588700Y-119326300D01*
X89588700Y-119326300D02*
X89598500Y-119316500D01*
X90333914Y-119326300D02*
X91049200Y-119326300D01*
X91049200Y-119326300D02*
X91059000Y-119316500D01*
X85102000Y-130111500D02*
X85700000Y-130111500D01*
X85700000Y-130111500D02*
X86106000Y-130111500D01*
X85610000Y-130021500D02*
X85700000Y-130111500D01*
X85610000Y-128778000D02*
X85610000Y-130021500D01*
X92710000Y-135687500D02*
X91682000Y-135687500D01*
X91682000Y-135687500D02*
X91313000Y-135318500D01*
X92634500Y-137223500D02*
X93662500Y-137223500D01*
X92634500Y-138684000D02*
X92634500Y-139815000D01*
X92634500Y-139815000D02*
X92646500Y-139827000D01*
X92659200Y-130123500D02*
X91642500Y-130123500D01*
X91642500Y-130123500D02*
X91630500Y-130111500D01*
X83693000Y-130123500D02*
X83693000Y-129032000D01*
X83693000Y-130123500D02*
X85090000Y-130123500D01*
X92710000Y-135687500D02*
X92595000Y-135687500D01*
X92634500Y-135763000D02*
X92710000Y-135687500D01*
X91428000Y-147308000D02*
X91440000Y-147320000D01*
X94056200Y-130123500D02*
X92659200Y-130123500D01*
X86118000Y-130099500D02*
X86106000Y-130111500D01*
X92634500Y-137223500D02*
X92519500Y-137108500D01*
X85090000Y-130123500D02*
X85102000Y-130111500D01*
D24*
X92710000Y-135814500D02*
X92710000Y-135687500D01*
X91300000Y-133655500D02*
X89875000Y-133655500D01*
X87925000Y-133655500D02*
X88037500Y-133768000D01*
X89875000Y-133655500D02*
X89762500Y-133768000D01*
X86500000Y-133655500D02*
X87925000Y-133655500D01*
D25*
X83693000Y-131623500D02*
X82742000Y-131623500D01*
D24*
X82742000Y-131623500D02*
X82740500Y-131625000D01*
D23*
X83693000Y-131623500D02*
X83693000Y-131635500D01*
X87070500Y-125591000D02*
X84222020Y-125591000D01*
X84222020Y-125591000D02*
X84221320Y-125590300D01*
X86487000Y-127254000D02*
X83693000Y-127254000D01*
X88900000Y-125591000D02*
X87070500Y-125591000D01*
D24*
X89979500Y-123444000D02*
X89737500Y-123686000D01*
X89737500Y-123686000D02*
X88900000Y-123686000D01*
X89979500Y-122307500D02*
X89979500Y-123444000D01*
X90830500Y-122110500D02*
X90176500Y-122110500D01*
X90176500Y-122110500D02*
X89979500Y-122307500D01*
D23*
X92190000Y-125591000D02*
X88900000Y-125591000D01*
X88900000Y-125591000D02*
X88900000Y-123686000D01*
X92202000Y-125603000D02*
X92190000Y-125591000D01*
D24*
X91400000Y-132155500D02*
X92144500Y-132155500D01*
X92144500Y-132155500D02*
X92300000Y-132000000D01*
X92300000Y-132000000D02*
X92300000Y-131755500D01*
X92300000Y-131755500D02*
X92200000Y-131655500D01*
X92627200Y-131655500D02*
X92200000Y-131655500D01*
X92200000Y-131655500D02*
X91300000Y-131655500D01*
X86500000Y-131655500D02*
X85450000Y-131655500D01*
X85450000Y-131655500D02*
X85122000Y-131655500D01*
X85605500Y-132155500D02*
X85450000Y-132000000D01*
X85450000Y-132000000D02*
X85450000Y-131655500D01*
X86400000Y-132155500D02*
X85605500Y-132155500D01*
D23*
X87110000Y-128778000D02*
X87110000Y-127877000D01*
X87110000Y-127877000D02*
X86487000Y-127254000D01*
D24*
X87122000Y-129373500D02*
X87122000Y-128790000D01*
X87122000Y-128790000D02*
X87110000Y-128778000D01*
X87650000Y-130505500D02*
X87650000Y-129901500D01*
X87650000Y-129901500D02*
X87122000Y-129373500D01*
D23*
X91134500Y-137223500D02*
X91059000Y-137223500D01*
X91059000Y-137223500D02*
X90297000Y-136461500D01*
X84074000Y-134937500D02*
X85141500Y-134937500D01*
X85141500Y-134937500D02*
X85153500Y-134949500D01*
X94056200Y-131623500D02*
X94920500Y-131623500D01*
X94920500Y-131623500D02*
X94932500Y-131635500D01*
X92710000Y-134187500D02*
X93484000Y-134187500D01*
X93484000Y-134187500D02*
X93789500Y-134493000D01*
X91134500Y-137223500D02*
X91134500Y-137172000D01*
D24*
X90150000Y-135305500D02*
X90150000Y-136239000D01*
X90150000Y-136239000D02*
X91134500Y-137223500D01*
D23*
X91134500Y-137223500D02*
X91122500Y-137235500D01*
D24*
X86500000Y-134655500D02*
X85447500Y-134655500D01*
X85447500Y-134655500D02*
X85153500Y-134949500D01*
D23*
X84391500Y-131623500D02*
X83693000Y-131623500D01*
D24*
X92659200Y-131623500D02*
X92627200Y-131655500D01*
D23*
X94056200Y-131623500D02*
X92659200Y-131623500D01*
D24*
X92710000Y-134187500D02*
X92722000Y-134175500D01*
X91300000Y-134155500D02*
X92678000Y-134155500D01*
X92678000Y-134155500D02*
X92710000Y-134187500D01*
X92500200Y-131655500D02*
X92659200Y-131496500D01*
D23*
X85090000Y-131623500D02*
X84391500Y-131623500D01*
D24*
X85122000Y-131655500D02*
X85090000Y-131623500D01*
X89650000Y-135305500D02*
X89650000Y-137199500D01*
X91134500Y-141732000D02*
X91134500Y-142240000D01*
X91134500Y-142240000D02*
X91134500Y-142545500D01*
X91122500Y-141732000D02*
X91134500Y-141732000D01*
X91134500Y-138684000D02*
X91134500Y-141732000D01*
X91134500Y-142545500D02*
X86360000Y-147320000D01*
X89650000Y-137199500D02*
X91134500Y-138684000D01*
X86372000Y-147308000D02*
X86360000Y-147320000D01*
X89150000Y-141097000D02*
X89150000Y-141605000D01*
X89150000Y-141605000D02*
X89150000Y-141990000D01*
X89150000Y-141990000D02*
X83820000Y-147320000D01*
X89150000Y-138938000D02*
X89150000Y-141097000D01*
X89154000Y-138938000D02*
X89150000Y-138938000D01*
X89150000Y-138938000D02*
X89154000Y-138938000D01*
X89154000Y-138938000D02*
X89150000Y-138938000D01*
X89150000Y-135305500D02*
X89150000Y-138938000D01*
X90650000Y-135405500D02*
X90650000Y-135772521D01*
X91691474Y-136375229D02*
X91884500Y-136568255D01*
X90650000Y-135772521D02*
X91252708Y-136375229D01*
X91252708Y-136375229D02*
X91691474Y-136375229D01*
X91884500Y-136568255D02*
X91884500Y-142824200D01*
X91884500Y-142824200D02*
X91884500Y-143002000D01*
X91884500Y-143002000D02*
X91884500Y-143700500D01*
X91884500Y-144335500D02*
X88900000Y-147320000D01*
X91884500Y-143700500D02*
X91884500Y-144335500D01*
X91300000Y-134655500D02*
X91856500Y-134655500D01*
X92138500Y-134937500D02*
X93345000Y-134937500D01*
X91856500Y-134655500D02*
X92138500Y-134937500D01*
X93345000Y-134937500D02*
X94829999Y-136422499D01*
X94829999Y-136422499D02*
X94829999Y-146470001D01*
X94829999Y-146470001D02*
X93980000Y-147320000D01*
X93980000Y-147320000D02*
X96520000Y-147320000D01*
X95313500Y-130873500D02*
X96520000Y-132080000D01*
X91884500Y-130873500D02*
X95313500Y-130873500D01*
X91300000Y-131155500D02*
X91602500Y-131155500D01*
X91602500Y-131155500D02*
X91884500Y-130873500D01*
X94555500Y-132655500D02*
X96520000Y-134620000D01*
X91300000Y-132655500D02*
X94555500Y-132655500D01*
X91300000Y-133155500D02*
X93468000Y-133155500D01*
X93468000Y-133155500D02*
X94932500Y-134620000D01*
X94932500Y-134620000D02*
X94932500Y-135572500D01*
X94932500Y-135572500D02*
X96520000Y-137160000D01*
X89150000Y-129604260D02*
X96520000Y-122234260D01*
X96520000Y-122234260D02*
X96520000Y-121920000D01*
X89150000Y-130505500D02*
X89150000Y-129604260D01*
X89650000Y-130505500D02*
X89650000Y-129822709D01*
X89650000Y-129822709D02*
X95012709Y-124460000D01*
X95012709Y-124460000D02*
X96520000Y-124460000D01*
X93218000Y-127000000D02*
X96520000Y-127000000D01*
X90150000Y-130505500D02*
X90150000Y-130068000D01*
X90150000Y-130068000D02*
X93218000Y-127000000D01*
X90650000Y-130505500D02*
X90650000Y-130203000D01*
X90650000Y-130203000D02*
X91630500Y-129222500D01*
X91630500Y-129222500D02*
X96202500Y-129222500D01*
X96202500Y-129222500D02*
X96520000Y-129540000D01*
X88650000Y-130505500D02*
X88650000Y-127881389D01*
X86973917Y-126205306D02*
X83930205Y-126205306D01*
X88650000Y-127881389D02*
X86973917Y-126205306D01*
X83930205Y-126205306D02*
X82728001Y-125003102D01*
X82728001Y-125003102D02*
X82728001Y-123368001D01*
X82728001Y-123368001D02*
X81280000Y-121920000D01*
X85369500Y-122110500D02*
X81470500Y-122110500D01*
X81470500Y-122110500D02*
X81280000Y-121920000D01*
X88150000Y-130505500D02*
X88150000Y-128028000D01*
X88150000Y-128028000D02*
X86791154Y-126669154D01*
X86791154Y-126669154D02*
X83489154Y-126669154D01*
X82129999Y-125309999D02*
X81280000Y-124460000D01*
X83489154Y-126669154D02*
X82129999Y-125309999D01*
X87150000Y-130266500D02*
X87150000Y-130280500D01*
X87150000Y-130280500D02*
X86360000Y-129490500D01*
X86360000Y-128138007D02*
X86170453Y-127948460D01*
X86360000Y-129490500D02*
X86360000Y-128138007D01*
X86170453Y-127948460D02*
X82228460Y-127948460D01*
X82228460Y-127948460D02*
X81280000Y-127000000D01*
X86500000Y-131155500D02*
X86134000Y-131155500D01*
X86134000Y-131155500D02*
X85852000Y-130873500D01*
X85852000Y-130873500D02*
X82613500Y-130873500D01*
X82613500Y-130873500D02*
X81280000Y-129540000D01*
X86500000Y-132655500D02*
X82401646Y-132655500D01*
X82401646Y-132655500D02*
X81826146Y-132080000D01*
X81826146Y-132080000D02*
X81280000Y-132080000D01*
X86500000Y-133155500D02*
X82744500Y-133155500D01*
X82744500Y-133155500D02*
X81280000Y-134620000D01*
X86500000Y-134155500D02*
X83776500Y-134155500D01*
X83776500Y-134155500D02*
X81280000Y-136652000D01*
X81280000Y-136652000D02*
X81280000Y-137160000D01*
X87150000Y-135305500D02*
X87150000Y-135933823D01*
X87150000Y-135933823D02*
X83383823Y-139700000D01*
X83383823Y-139700000D02*
X81280000Y-139700000D01*
X87650000Y-135305500D02*
X87650000Y-136981187D01*
X87650000Y-136981187D02*
X82391187Y-142240000D01*
X82391187Y-142240000D02*
X81280000Y-142240000D01*
X81407000Y-142240000D02*
X81280000Y-142240000D01*
X88150000Y-135305500D02*
X88150000Y-137889303D01*
X88150000Y-137889303D02*
X81280000Y-144759303D01*
X81280000Y-144759303D02*
X81280000Y-144780000D01*
X88650000Y-135305500D02*
X88650000Y-139950000D01*
X88650000Y-139950000D02*
X84632749Y-143967251D01*
X84632749Y-143967251D02*
X81280000Y-147320000D01*
D23*
X88873414Y-120826300D02*
X88873414Y-122159414D01*
X88873414Y-122159414D02*
X88900000Y-122186000D01*
X88873414Y-120826300D02*
X87412914Y-120826300D01*
X90333914Y-120826300D02*
X88873414Y-120826300D01*
X94297500Y-119380000D02*
X92851200Y-120826300D01*
X92851200Y-120826300D02*
X90333914Y-120826300D01*
X96520000Y-119380000D02*
X94297500Y-119380000D01*
X87321914Y-120917300D02*
X87412914Y-120826300D01*
X87412914Y-120826300D02*
X87400914Y-120838300D01*
D24*
X92430500Y-122110500D02*
X92430500Y-123457500D01*
X92430500Y-123457500D02*
X92380500Y-123507500D01*
X86969500Y-122110500D02*
X86969500Y-123457500D01*
X86969500Y-123457500D02*
X86919500Y-123507500D01*
D26*
G36*
X90377300Y-134387300D02*
X87422700Y-134387300D01*
X87422700Y-131432700D01*
X90377300Y-131432700D01*
X90377300Y-134387300D01*
X90377300Y-134387300D01*
G37*
X90377300Y-134387300D02*
X87422700Y-134387300D01*
X87422700Y-131432700D01*
X90377300Y-131432700D01*
X90377300Y-134387300D01*
M02*
