M48
;DRILL file {KiCad 4.0.7} date 11/16/17 22:13:56
;FORMAT={-:-/ absolute / inch / decimal}
FMAT,2
INCH,TZ
T1C0.012
T2C0.039
%
G90
G05
M72
T1
X3.2575Y-5.1821
X3.295Y-5.01
X3.295Y-5.08
X3.31Y-5.3125
X3.3158Y-4.9445
X3.35Y-5.3442
X3.385Y-4.8625
X3.39Y-5.1225
X3.47Y-4.6975
X3.4724Y-5.2049
X3.4724Y-5.2601
X3.5098Y-5.575
X3.5275Y-4.6975
X3.5276Y-5.2601
X3.53Y-5.205
X3.555Y-5.3725
X3.585Y-4.6975
X3.588Y-5.6
X3.595Y-5.3275
X3.6Y-4.8625
X3.6075Y-5.1225
X3.6175Y-5.63
X3.63Y-4.945
X3.6475Y-5.505
X3.6875Y-5.4025
X3.6925Y-5.295
X3.7375Y-5.1825
T2
X3.2Y-4.7
X3.2Y-4.8
X3.2Y-4.9
X3.2Y-5.
X3.2Y-5.1
X3.2Y-5.2
X3.2Y-5.3
X3.2Y-5.4
X3.2Y-5.5
X3.2Y-5.6
X3.2Y-5.7
X3.2Y-5.8
X3.3Y-5.8
X3.4Y-5.8
X3.5Y-5.8
X3.6Y-5.8
X3.7Y-5.8
X3.8Y-4.7
X3.8Y-4.8
X3.8Y-4.9
X3.8Y-5.
X3.8Y-5.1
X3.8Y-5.2
X3.8Y-5.3
X3.8Y-5.4
X3.8Y-5.5
X3.8Y-5.6
X3.8Y-5.7
X3.8Y-5.8
T0
M30
