M48
METRIC,TZ
T1C0.305
T2C1.000
%
G90
G05
T1
X83693Y-129032
X84074Y-134938
X84392Y-132588
X86043Y-136398
X86106Y-130112
X86487Y-127254
X87122Y-119824
X87122Y-121285
X87122Y-122746
X87249Y-125603
X88200Y-132206
X88200Y-133606
X89150Y-141605
X89600Y-133606
X89662Y-132207
X90297Y-136462
X91135Y-142240
X91313Y-135319
X91631Y-130112
X91885Y-143002
X92202Y-125603
X92647Y-139827
X93663Y-137224
X93789Y-134493
X94933Y-131636
T2
X81280Y-119380
X81280Y-121920
X81280Y-124460
X81280Y-127000
X81280Y-129540
X81280Y-132080
X81280Y-134620
X81280Y-137160
X81280Y-139700
X81280Y-142240
X81280Y-144780
X81280Y-147320
X83820Y-147320
X86360Y-147320
X88900Y-147320
X91440Y-147320
X93980Y-147320
X96520Y-119380
X96520Y-121920
X96520Y-124460
X96520Y-127000
X96520Y-129540
X96520Y-132080
X96520Y-134620
X96520Y-137160
X96520Y-139700
X96520Y-142240
X96520Y-144780
X96520Y-147320
T0
M30
