%TF.GenerationSoftware,KiCad,Pcbnew,(5.1.9)-1*%
%TF.CreationDate,2021-07-11T13:39:41+02:00*%
%TF.ProjectId,TinyFPGA-A,54696e79-4650-4474-912d-412e6b696361,rev?*%
%TF.SameCoordinates,Original*%
%TF.FileFunction,Legend,Bot*%
%TF.FilePolarity,Positive*%
%FSLAX46Y46*%
G04 Gerber Fmt 4.6, Leading zero omitted, Abs format (unit mm)*
G04 Created by KiCad (PCBNEW (5.1.9)-1) date 2021-07-11 13:39:41*
%MOMM*%
%LPD*%
G01*
G04 APERTURE LIST*
%ADD10C,0.200000*%
%ADD11C,0.250000*%
G04 APERTURE END LIST*
D10*
X95694500Y-146558000D02*
X94932500Y-145605500D01*
X82169000Y-146494500D02*
X82994500Y-145605500D01*
D11*
X88680809Y-145946761D02*
X88537952Y-145994380D01*
X88299857Y-145994380D01*
X88204619Y-145946761D01*
X88157000Y-145899142D01*
X88109380Y-145803904D01*
X88109380Y-145708666D01*
X88157000Y-145613428D01*
X88204619Y-145565809D01*
X88299857Y-145518190D01*
X88490333Y-145470571D01*
X88585571Y-145422952D01*
X88633190Y-145375333D01*
X88680809Y-145280095D01*
X88680809Y-145184857D01*
X88633190Y-145089619D01*
X88585571Y-145042000D01*
X88490333Y-144994380D01*
X88252238Y-144994380D01*
X88109380Y-145042000D01*
X87109380Y-145899142D02*
X87157000Y-145946761D01*
X87299857Y-145994380D01*
X87395095Y-145994380D01*
X87537952Y-145946761D01*
X87633190Y-145851523D01*
X87680809Y-145756285D01*
X87728428Y-145565809D01*
X87728428Y-145422952D01*
X87680809Y-145232476D01*
X87633190Y-145137238D01*
X87537952Y-145042000D01*
X87395095Y-144994380D01*
X87299857Y-144994380D01*
X87157000Y-145042000D01*
X87109380Y-145089619D01*
X86204619Y-145994380D02*
X86680809Y-145994380D01*
X86680809Y-144994380D01*
X85157000Y-144946761D02*
X86014142Y-146232476D01*
X84299857Y-145994380D02*
X84871285Y-145994380D01*
X84585571Y-145994380D02*
X84585571Y-144994380D01*
X84680809Y-145137238D01*
X84776047Y-145232476D01*
X84871285Y-145280095D01*
X83347476Y-145994380D02*
X83918904Y-145994380D01*
X83633190Y-145994380D02*
X83633190Y-144994380D01*
X83728428Y-145137238D01*
X83823666Y-145232476D01*
X83918904Y-145280095D01*
X88283928Y-144422761D02*
X88141071Y-144470380D01*
X87902976Y-144470380D01*
X87807738Y-144422761D01*
X87760119Y-144375142D01*
X87712500Y-144279904D01*
X87712500Y-144184666D01*
X87760119Y-144089428D01*
X87807738Y-144041809D01*
X87902976Y-143994190D01*
X88093452Y-143946571D01*
X88188690Y-143898952D01*
X88236309Y-143851333D01*
X88283928Y-143756095D01*
X88283928Y-143660857D01*
X88236309Y-143565619D01*
X88188690Y-143518000D01*
X88093452Y-143470380D01*
X87855357Y-143470380D01*
X87712500Y-143518000D01*
X87283928Y-144470380D02*
X87283928Y-143470380D01*
X87045833Y-143470380D01*
X86902976Y-143518000D01*
X86807738Y-143613238D01*
X86760119Y-143708476D01*
X86712500Y-143898952D01*
X86712500Y-144041809D01*
X86760119Y-144232285D01*
X86807738Y-144327523D01*
X86902976Y-144422761D01*
X87045833Y-144470380D01*
X87283928Y-144470380D01*
X86331547Y-144184666D02*
X85855357Y-144184666D01*
X86426785Y-144470380D02*
X86093452Y-143470380D01*
X85760119Y-144470380D01*
X84712500Y-143422761D02*
X85569642Y-144708476D01*
X83855357Y-144470380D02*
X84426785Y-144470380D01*
X84141071Y-144470380D02*
X84141071Y-143470380D01*
X84236309Y-143613238D01*
X84331547Y-143708476D01*
X84426785Y-143756095D01*
X83236309Y-143470380D02*
X83141071Y-143470380D01*
X83045833Y-143518000D01*
X82998214Y-143565619D01*
X82950595Y-143660857D01*
X82902976Y-143851333D01*
X82902976Y-144089428D01*
X82950595Y-144279904D01*
X82998214Y-144375142D01*
X83045833Y-144422761D01*
X83141071Y-144470380D01*
X83236309Y-144470380D01*
X83331547Y-144422761D01*
X83379166Y-144375142D01*
X83426785Y-144279904D01*
X83474404Y-144089428D01*
X83474404Y-143851333D01*
X83426785Y-143660857D01*
X83379166Y-143565619D01*
X83331547Y-143518000D01*
X83236309Y-143470380D01*
X88760119Y-141692380D02*
X88760119Y-142406666D01*
X88807738Y-142549523D01*
X88902976Y-142644761D01*
X89045833Y-142692380D01*
X89141071Y-142692380D01*
X88426785Y-141692380D02*
X87855357Y-141692380D01*
X88141071Y-142692380D02*
X88141071Y-141692380D01*
X86998214Y-141740000D02*
X87093452Y-141692380D01*
X87236309Y-141692380D01*
X87379166Y-141740000D01*
X87474404Y-141835238D01*
X87522023Y-141930476D01*
X87569642Y-142120952D01*
X87569642Y-142263809D01*
X87522023Y-142454285D01*
X87474404Y-142549523D01*
X87379166Y-142644761D01*
X87236309Y-142692380D01*
X87141071Y-142692380D01*
X86998214Y-142644761D01*
X86950595Y-142597142D01*
X86950595Y-142263809D01*
X87141071Y-142263809D01*
X86522023Y-142692380D02*
X86522023Y-141692380D01*
X85950595Y-142692380D01*
X85950595Y-141692380D01*
X85141071Y-142168571D02*
X84998214Y-142216190D01*
X84950595Y-142263809D01*
X84902976Y-142359047D01*
X84902976Y-142501904D01*
X84950595Y-142597142D01*
X84998214Y-142644761D01*
X85093452Y-142692380D01*
X85474404Y-142692380D01*
X85474404Y-141692380D01*
X85141071Y-141692380D01*
X85045833Y-141740000D01*
X84998214Y-141787619D01*
X84950595Y-141882857D01*
X84950595Y-141978095D01*
X84998214Y-142073333D01*
X85045833Y-142120952D01*
X85141071Y-142168571D01*
X85474404Y-142168571D01*
X83760119Y-141644761D02*
X84617261Y-142930476D01*
X83379166Y-142692380D02*
X83188690Y-142692380D01*
X83093452Y-142644761D01*
X83045833Y-142597142D01*
X82950595Y-142454285D01*
X82902976Y-142263809D01*
X82902976Y-141882857D01*
X82950595Y-141787619D01*
X82998214Y-141740000D01*
X83093452Y-141692380D01*
X83283928Y-141692380D01*
X83379166Y-141740000D01*
X83426785Y-141787619D01*
X83474404Y-141882857D01*
X83474404Y-142120952D01*
X83426785Y-142216190D01*
X83379166Y-142263809D01*
X83283928Y-142311428D01*
X83093452Y-142311428D01*
X82998214Y-142263809D01*
X82950595Y-142216190D01*
X82902976Y-142120952D01*
X88664880Y-140152380D02*
X88664880Y-139152380D01*
X88283928Y-139152380D01*
X88188690Y-139200000D01*
X88141071Y-139247619D01*
X88093452Y-139342857D01*
X88093452Y-139485714D01*
X88141071Y-139580952D01*
X88188690Y-139628571D01*
X88283928Y-139676190D01*
X88664880Y-139676190D01*
X87141071Y-139200000D02*
X87236309Y-139152380D01*
X87379166Y-139152380D01*
X87522023Y-139200000D01*
X87617261Y-139295238D01*
X87664880Y-139390476D01*
X87712500Y-139580952D01*
X87712500Y-139723809D01*
X87664880Y-139914285D01*
X87617261Y-140009523D01*
X87522023Y-140104761D01*
X87379166Y-140152380D01*
X87283928Y-140152380D01*
X87141071Y-140104761D01*
X87093452Y-140057142D01*
X87093452Y-139723809D01*
X87283928Y-139723809D01*
X86664880Y-140152380D02*
X86664880Y-139152380D01*
X86331547Y-139866666D01*
X85998214Y-139152380D01*
X85998214Y-140152380D01*
X85522023Y-140152380D02*
X85522023Y-139152380D01*
X84950595Y-140152380D01*
X84950595Y-139152380D01*
X83760119Y-139104761D02*
X84617261Y-140390476D01*
X83283928Y-139580952D02*
X83379166Y-139533333D01*
X83426785Y-139485714D01*
X83474404Y-139390476D01*
X83474404Y-139342857D01*
X83426785Y-139247619D01*
X83379166Y-139200000D01*
X83283928Y-139152380D01*
X83093452Y-139152380D01*
X82998214Y-139200000D01*
X82950595Y-139247619D01*
X82902976Y-139342857D01*
X82902976Y-139390476D01*
X82950595Y-139485714D01*
X82998214Y-139533333D01*
X83093452Y-139580952D01*
X83283928Y-139580952D01*
X83379166Y-139628571D01*
X83426785Y-139676190D01*
X83474404Y-139771428D01*
X83474404Y-139961904D01*
X83426785Y-140057142D01*
X83379166Y-140104761D01*
X83283928Y-140152380D01*
X83093452Y-140152380D01*
X82998214Y-140104761D01*
X82950595Y-140057142D01*
X82902976Y-139961904D01*
X82902976Y-139771428D01*
X82950595Y-139676190D01*
X82998214Y-139628571D01*
X83093452Y-139580952D01*
X88474404Y-137612380D02*
X88474404Y-136612380D01*
X88236309Y-136612380D01*
X88093452Y-136660000D01*
X87998214Y-136755238D01*
X87950595Y-136850476D01*
X87902976Y-137040952D01*
X87902976Y-137183809D01*
X87950595Y-137374285D01*
X87998214Y-137469523D01*
X88093452Y-137564761D01*
X88236309Y-137612380D01*
X88474404Y-137612380D01*
X87283928Y-136612380D02*
X87093452Y-136612380D01*
X86998214Y-136660000D01*
X86902976Y-136755238D01*
X86855357Y-136945714D01*
X86855357Y-137279047D01*
X86902976Y-137469523D01*
X86998214Y-137564761D01*
X87093452Y-137612380D01*
X87283928Y-137612380D01*
X87379166Y-137564761D01*
X87474404Y-137469523D01*
X87522023Y-137279047D01*
X87522023Y-136945714D01*
X87474404Y-136755238D01*
X87379166Y-136660000D01*
X87283928Y-136612380D01*
X86426785Y-137612380D02*
X86426785Y-136612380D01*
X85855357Y-137612380D01*
X85855357Y-136612380D01*
X85379166Y-137088571D02*
X85045833Y-137088571D01*
X84902976Y-137612380D02*
X85379166Y-137612380D01*
X85379166Y-136612380D01*
X84902976Y-136612380D01*
X83760119Y-136564761D02*
X84617261Y-137850476D01*
X83522023Y-136612380D02*
X82855357Y-136612380D01*
X83283928Y-137612380D01*
X82998214Y-134072380D02*
X83188690Y-134072380D01*
X83283928Y-134120000D01*
X83331547Y-134167619D01*
X83426785Y-134310476D01*
X83474404Y-134500952D01*
X83474404Y-134881904D01*
X83426785Y-134977142D01*
X83379166Y-135024761D01*
X83283928Y-135072380D01*
X83093452Y-135072380D01*
X82998214Y-135024761D01*
X82950595Y-134977142D01*
X82902976Y-134881904D01*
X82902976Y-134643809D01*
X82950595Y-134548571D01*
X82998214Y-134500952D01*
X83093452Y-134453333D01*
X83283928Y-134453333D01*
X83379166Y-134500952D01*
X83426785Y-134548571D01*
X83474404Y-134643809D01*
X82950595Y-131532380D02*
X83426785Y-131532380D01*
X83474404Y-132008571D01*
X83426785Y-131960952D01*
X83331547Y-131913333D01*
X83093452Y-131913333D01*
X82998214Y-131960952D01*
X82950595Y-132008571D01*
X82902976Y-132103809D01*
X82902976Y-132341904D01*
X82950595Y-132437142D01*
X82998214Y-132484761D01*
X83093452Y-132532380D01*
X83331547Y-132532380D01*
X83426785Y-132484761D01*
X83474404Y-132437142D01*
X88093452Y-129992380D02*
X88093452Y-128992380D01*
X87760119Y-129706666D01*
X87426785Y-128992380D01*
X87426785Y-129992380D01*
X86760119Y-128992380D02*
X86569642Y-128992380D01*
X86474404Y-129040000D01*
X86379166Y-129135238D01*
X86331547Y-129325714D01*
X86331547Y-129659047D01*
X86379166Y-129849523D01*
X86474404Y-129944761D01*
X86569642Y-129992380D01*
X86760119Y-129992380D01*
X86855357Y-129944761D01*
X86950595Y-129849523D01*
X86998214Y-129659047D01*
X86998214Y-129325714D01*
X86950595Y-129135238D01*
X86855357Y-129040000D01*
X86760119Y-128992380D01*
X85950595Y-129944761D02*
X85807738Y-129992380D01*
X85569642Y-129992380D01*
X85474404Y-129944761D01*
X85426785Y-129897142D01*
X85379166Y-129801904D01*
X85379166Y-129706666D01*
X85426785Y-129611428D01*
X85474404Y-129563809D01*
X85569642Y-129516190D01*
X85760119Y-129468571D01*
X85855357Y-129420952D01*
X85902976Y-129373333D01*
X85950595Y-129278095D01*
X85950595Y-129182857D01*
X85902976Y-129087619D01*
X85855357Y-129040000D01*
X85760119Y-128992380D01*
X85522023Y-128992380D01*
X85379166Y-129040000D01*
X84950595Y-129992380D02*
X84950595Y-128992380D01*
X83760119Y-128944761D02*
X84617261Y-130230476D01*
X82998214Y-129325714D02*
X82998214Y-129992380D01*
X83236309Y-128944761D02*
X83474404Y-129659047D01*
X82855357Y-129659047D01*
X86522023Y-127404761D02*
X86379166Y-127452380D01*
X86141071Y-127452380D01*
X86045833Y-127404761D01*
X85998214Y-127357142D01*
X85950595Y-127261904D01*
X85950595Y-127166666D01*
X85998214Y-127071428D01*
X86045833Y-127023809D01*
X86141071Y-126976190D01*
X86331547Y-126928571D01*
X86426785Y-126880952D01*
X86474404Y-126833333D01*
X86522023Y-126738095D01*
X86522023Y-126642857D01*
X86474404Y-126547619D01*
X86426785Y-126500000D01*
X86331547Y-126452380D01*
X86093452Y-126452380D01*
X85950595Y-126500000D01*
X85522023Y-127452380D02*
X85522023Y-126452380D01*
X84950595Y-127452380D01*
X84950595Y-126452380D01*
X83760119Y-126404761D02*
X84617261Y-127690476D01*
X83522023Y-126452380D02*
X82902976Y-126452380D01*
X83236309Y-126833333D01*
X83093452Y-126833333D01*
X82998214Y-126880952D01*
X82950595Y-126928571D01*
X82902976Y-127023809D01*
X82902976Y-127261904D01*
X82950595Y-127357142D01*
X82998214Y-127404761D01*
X83093452Y-127452380D01*
X83379166Y-127452380D01*
X83474404Y-127404761D01*
X83522023Y-127357142D01*
X83474404Y-124007619D02*
X83426785Y-123960000D01*
X83331547Y-123912380D01*
X83093452Y-123912380D01*
X82998214Y-123960000D01*
X82950595Y-124007619D01*
X82902976Y-124102857D01*
X82902976Y-124198095D01*
X82950595Y-124340952D01*
X83522023Y-124912380D01*
X82902976Y-124912380D01*
X82902976Y-122372380D02*
X83474404Y-122372380D01*
X83188690Y-122372380D02*
X83188690Y-121372380D01*
X83283928Y-121515238D01*
X83379166Y-121610476D01*
X83474404Y-121658095D01*
X84998214Y-118880000D02*
X85093452Y-118832380D01*
X85236309Y-118832380D01*
X85379166Y-118880000D01*
X85474404Y-118975238D01*
X85522023Y-119070476D01*
X85569642Y-119260952D01*
X85569642Y-119403809D01*
X85522023Y-119594285D01*
X85474404Y-119689523D01*
X85379166Y-119784761D01*
X85236309Y-119832380D01*
X85141071Y-119832380D01*
X84998214Y-119784761D01*
X84950595Y-119737142D01*
X84950595Y-119403809D01*
X85141071Y-119403809D01*
X84522023Y-119832380D02*
X84522023Y-118832380D01*
X83950595Y-119832380D01*
X83950595Y-118832380D01*
X83474404Y-119832380D02*
X83474404Y-118832380D01*
X83236309Y-118832380D01*
X83093452Y-118880000D01*
X82998214Y-118975238D01*
X82950595Y-119070476D01*
X82902976Y-119260952D01*
X82902976Y-119403809D01*
X82950595Y-119594285D01*
X82998214Y-119689523D01*
X83093452Y-119784761D01*
X83236309Y-119832380D01*
X83474404Y-119832380D01*
X93944595Y-145994380D02*
X94516023Y-145994380D01*
X94230309Y-145994380D02*
X94230309Y-144994380D01*
X94325547Y-145137238D01*
X94420785Y-145232476D01*
X94516023Y-145280095D01*
X93563642Y-145089619D02*
X93516023Y-145042000D01*
X93420785Y-144994380D01*
X93182690Y-144994380D01*
X93087452Y-145042000D01*
X93039833Y-145089619D01*
X92992214Y-145184857D01*
X92992214Y-145280095D01*
X93039833Y-145422952D01*
X93611261Y-145994380D01*
X92992214Y-145994380D01*
X91849357Y-144946761D02*
X92706500Y-146232476D01*
X91658880Y-144994380D02*
X91087452Y-144994380D01*
X91373166Y-145994380D02*
X91373166Y-144994380D01*
X90754119Y-145994380D02*
X90754119Y-144994380D01*
X90516023Y-144994380D01*
X90373166Y-145042000D01*
X90277928Y-145137238D01*
X90230309Y-145232476D01*
X90182690Y-145422952D01*
X90182690Y-145565809D01*
X90230309Y-145756285D01*
X90277928Y-145851523D01*
X90373166Y-145946761D01*
X90516023Y-145994380D01*
X90754119Y-145994380D01*
X89563642Y-144994380D02*
X89373166Y-144994380D01*
X89277928Y-145042000D01*
X89182690Y-145137238D01*
X89135071Y-145327714D01*
X89135071Y-145661047D01*
X89182690Y-145851523D01*
X89277928Y-145946761D01*
X89373166Y-145994380D01*
X89563642Y-145994380D01*
X89658880Y-145946761D01*
X89754119Y-145851523D01*
X89801738Y-145661047D01*
X89801738Y-145327714D01*
X89754119Y-145137238D01*
X89658880Y-145042000D01*
X89563642Y-144994380D01*
X94325595Y-144470380D02*
X94897023Y-144470380D01*
X94611309Y-144470380D02*
X94611309Y-143470380D01*
X94706547Y-143613238D01*
X94801785Y-143708476D01*
X94897023Y-143756095D01*
X93992261Y-143470380D02*
X93373214Y-143470380D01*
X93706547Y-143851333D01*
X93563690Y-143851333D01*
X93468452Y-143898952D01*
X93420833Y-143946571D01*
X93373214Y-144041809D01*
X93373214Y-144279904D01*
X93420833Y-144375142D01*
X93468452Y-144422761D01*
X93563690Y-144470380D01*
X93849404Y-144470380D01*
X93944642Y-144422761D01*
X93992261Y-144375142D01*
X92230357Y-143422761D02*
X93087500Y-144708476D01*
X92039880Y-143470380D02*
X91468452Y-143470380D01*
X91754166Y-144470380D02*
X91754166Y-143470380D01*
X91135119Y-144470380D02*
X91135119Y-143470380D01*
X90897023Y-143470380D01*
X90754166Y-143518000D01*
X90658928Y-143613238D01*
X90611309Y-143708476D01*
X90563690Y-143898952D01*
X90563690Y-144041809D01*
X90611309Y-144232285D01*
X90658928Y-144327523D01*
X90754166Y-144422761D01*
X90897023Y-144470380D01*
X91135119Y-144470380D01*
X90135119Y-144470380D02*
X90135119Y-143470380D01*
X94325595Y-142692380D02*
X94897023Y-142692380D01*
X94611309Y-142692380D02*
X94611309Y-141692380D01*
X94706547Y-141835238D01*
X94801785Y-141930476D01*
X94897023Y-141978095D01*
X93468452Y-142025714D02*
X93468452Y-142692380D01*
X93706547Y-141644761D02*
X93944642Y-142359047D01*
X93325595Y-142359047D01*
X92230357Y-141644761D02*
X93087500Y-142930476D01*
X92039880Y-141692380D02*
X91468452Y-141692380D01*
X91754166Y-142692380D02*
X91754166Y-141692380D01*
X90563690Y-142597142D02*
X90611309Y-142644761D01*
X90754166Y-142692380D01*
X90849404Y-142692380D01*
X90992261Y-142644761D01*
X91087500Y-142549523D01*
X91135119Y-142454285D01*
X91182738Y-142263809D01*
X91182738Y-142120952D01*
X91135119Y-141930476D01*
X91087500Y-141835238D01*
X90992261Y-141740000D01*
X90849404Y-141692380D01*
X90754166Y-141692380D01*
X90611309Y-141740000D01*
X90563690Y-141787619D01*
X90135119Y-142692380D02*
X90135119Y-141692380D01*
X89563690Y-142692380D02*
X89992261Y-142120952D01*
X89563690Y-141692380D02*
X90135119Y-142263809D01*
X94325595Y-140152380D02*
X94897023Y-140152380D01*
X94611309Y-140152380D02*
X94611309Y-139152380D01*
X94706547Y-139295238D01*
X94801785Y-139390476D01*
X94897023Y-139438095D01*
X93420833Y-139152380D02*
X93897023Y-139152380D01*
X93944642Y-139628571D01*
X93897023Y-139580952D01*
X93801785Y-139533333D01*
X93563690Y-139533333D01*
X93468452Y-139580952D01*
X93420833Y-139628571D01*
X93373214Y-139723809D01*
X93373214Y-139961904D01*
X93420833Y-140057142D01*
X93468452Y-140104761D01*
X93563690Y-140152380D01*
X93801785Y-140152380D01*
X93897023Y-140104761D01*
X93944642Y-140057142D01*
X92230357Y-139104761D02*
X93087500Y-140390476D01*
X92039880Y-139152380D02*
X91468452Y-139152380D01*
X91754166Y-140152380D02*
X91754166Y-139152380D01*
X91135119Y-140152380D02*
X91135119Y-139152380D01*
X90801785Y-139866666D01*
X90468452Y-139152380D01*
X90468452Y-140152380D01*
X90039880Y-140104761D02*
X89897023Y-140152380D01*
X89658928Y-140152380D01*
X89563690Y-140104761D01*
X89516071Y-140057142D01*
X89468452Y-139961904D01*
X89468452Y-139866666D01*
X89516071Y-139771428D01*
X89563690Y-139723809D01*
X89658928Y-139676190D01*
X89849404Y-139628571D01*
X89944642Y-139580952D01*
X89992261Y-139533333D01*
X90039880Y-139438095D01*
X90039880Y-139342857D01*
X89992261Y-139247619D01*
X89944642Y-139200000D01*
X89849404Y-139152380D01*
X89611309Y-139152380D01*
X89468452Y-139200000D01*
X94325595Y-137612380D02*
X94897023Y-137612380D01*
X94611309Y-137612380D02*
X94611309Y-136612380D01*
X94706547Y-136755238D01*
X94801785Y-136850476D01*
X94897023Y-136898095D01*
X93468452Y-136612380D02*
X93658928Y-136612380D01*
X93754166Y-136660000D01*
X93801785Y-136707619D01*
X93897023Y-136850476D01*
X93944642Y-137040952D01*
X93944642Y-137421904D01*
X93897023Y-137517142D01*
X93849404Y-137564761D01*
X93754166Y-137612380D01*
X93563690Y-137612380D01*
X93468452Y-137564761D01*
X93420833Y-137517142D01*
X93373214Y-137421904D01*
X93373214Y-137183809D01*
X93420833Y-137088571D01*
X93468452Y-137040952D01*
X93563690Y-136993333D01*
X93754166Y-136993333D01*
X93849404Y-137040952D01*
X93897023Y-137088571D01*
X93944642Y-137183809D01*
X94325595Y-135072380D02*
X94897023Y-135072380D01*
X94611309Y-135072380D02*
X94611309Y-134072380D01*
X94706547Y-134215238D01*
X94801785Y-134310476D01*
X94897023Y-134358095D01*
X93992261Y-134072380D02*
X93325595Y-134072380D01*
X93754166Y-135072380D01*
X94325595Y-132532380D02*
X94897023Y-132532380D01*
X94611309Y-132532380D02*
X94611309Y-131532380D01*
X94706547Y-131675238D01*
X94801785Y-131770476D01*
X94897023Y-131818095D01*
X93754166Y-131960952D02*
X93849404Y-131913333D01*
X93897023Y-131865714D01*
X93944642Y-131770476D01*
X93944642Y-131722857D01*
X93897023Y-131627619D01*
X93849404Y-131580000D01*
X93754166Y-131532380D01*
X93563690Y-131532380D01*
X93468452Y-131580000D01*
X93420833Y-131627619D01*
X93373214Y-131722857D01*
X93373214Y-131770476D01*
X93420833Y-131865714D01*
X93468452Y-131913333D01*
X93563690Y-131960952D01*
X93754166Y-131960952D01*
X93849404Y-132008571D01*
X93897023Y-132056190D01*
X93944642Y-132151428D01*
X93944642Y-132341904D01*
X93897023Y-132437142D01*
X93849404Y-132484761D01*
X93754166Y-132532380D01*
X93563690Y-132532380D01*
X93468452Y-132484761D01*
X93420833Y-132437142D01*
X93373214Y-132341904D01*
X93373214Y-132151428D01*
X93420833Y-132056190D01*
X93468452Y-132008571D01*
X93563690Y-131960952D01*
X92230357Y-131484761D02*
X93087500Y-132770476D01*
X91325595Y-132437142D02*
X91373214Y-132484761D01*
X91516071Y-132532380D01*
X91611309Y-132532380D01*
X91754166Y-132484761D01*
X91849404Y-132389523D01*
X91897023Y-132294285D01*
X91944642Y-132103809D01*
X91944642Y-131960952D01*
X91897023Y-131770476D01*
X91849404Y-131675238D01*
X91754166Y-131580000D01*
X91611309Y-131532380D01*
X91516071Y-131532380D01*
X91373214Y-131580000D01*
X91325595Y-131627619D01*
X90944642Y-132484761D02*
X90801785Y-132532380D01*
X90563690Y-132532380D01*
X90468452Y-132484761D01*
X90420833Y-132437142D01*
X90373214Y-132341904D01*
X90373214Y-132246666D01*
X90420833Y-132151428D01*
X90468452Y-132103809D01*
X90563690Y-132056190D01*
X90754166Y-132008571D01*
X90849404Y-131960952D01*
X90897023Y-131913333D01*
X90944642Y-131818095D01*
X90944642Y-131722857D01*
X90897023Y-131627619D01*
X90849404Y-131580000D01*
X90754166Y-131532380D01*
X90516071Y-131532380D01*
X90373214Y-131580000D01*
X94325595Y-129992380D02*
X94897023Y-129992380D01*
X94611309Y-129992380D02*
X94611309Y-128992380D01*
X94706547Y-129135238D01*
X94801785Y-129230476D01*
X94897023Y-129278095D01*
X93849404Y-129992380D02*
X93658928Y-129992380D01*
X93563690Y-129944761D01*
X93516071Y-129897142D01*
X93420833Y-129754285D01*
X93373214Y-129563809D01*
X93373214Y-129182857D01*
X93420833Y-129087619D01*
X93468452Y-129040000D01*
X93563690Y-128992380D01*
X93754166Y-128992380D01*
X93849404Y-129040000D01*
X93897023Y-129087619D01*
X93944642Y-129182857D01*
X93944642Y-129420952D01*
X93897023Y-129516190D01*
X93849404Y-129563809D01*
X93754166Y-129611428D01*
X93563690Y-129611428D01*
X93468452Y-129563809D01*
X93420833Y-129516190D01*
X93373214Y-129420952D01*
X92230357Y-128944761D02*
X93087500Y-130230476D01*
X91944642Y-129944761D02*
X91801785Y-129992380D01*
X91563690Y-129992380D01*
X91468452Y-129944761D01*
X91420833Y-129897142D01*
X91373214Y-129801904D01*
X91373214Y-129706666D01*
X91420833Y-129611428D01*
X91468452Y-129563809D01*
X91563690Y-129516190D01*
X91754166Y-129468571D01*
X91849404Y-129420952D01*
X91897023Y-129373333D01*
X91944642Y-129278095D01*
X91944642Y-129182857D01*
X91897023Y-129087619D01*
X91849404Y-129040000D01*
X91754166Y-128992380D01*
X91516071Y-128992380D01*
X91373214Y-129040000D01*
X90373214Y-129897142D02*
X90420833Y-129944761D01*
X90563690Y-129992380D01*
X90658928Y-129992380D01*
X90801785Y-129944761D01*
X90897023Y-129849523D01*
X90944642Y-129754285D01*
X90992261Y-129563809D01*
X90992261Y-129420952D01*
X90944642Y-129230476D01*
X90897023Y-129135238D01*
X90801785Y-129040000D01*
X90658928Y-128992380D01*
X90563690Y-128992380D01*
X90420833Y-129040000D01*
X90373214Y-129087619D01*
X89468452Y-129992380D02*
X89944642Y-129992380D01*
X89944642Y-128992380D01*
X89135119Y-129992380D02*
X89135119Y-128992380D01*
X88563690Y-129992380D02*
X88992261Y-129420952D01*
X88563690Y-128992380D02*
X89135119Y-129563809D01*
X94897023Y-126547619D02*
X94849404Y-126500000D01*
X94754166Y-126452380D01*
X94516071Y-126452380D01*
X94420833Y-126500000D01*
X94373214Y-126547619D01*
X94325595Y-126642857D01*
X94325595Y-126738095D01*
X94373214Y-126880952D01*
X94944642Y-127452380D01*
X94325595Y-127452380D01*
X93706547Y-126452380D02*
X93611309Y-126452380D01*
X93516071Y-126500000D01*
X93468452Y-126547619D01*
X93420833Y-126642857D01*
X93373214Y-126833333D01*
X93373214Y-127071428D01*
X93420833Y-127261904D01*
X93468452Y-127357142D01*
X93516071Y-127404761D01*
X93611309Y-127452380D01*
X93706547Y-127452380D01*
X93801785Y-127404761D01*
X93849404Y-127357142D01*
X93897023Y-127261904D01*
X93944642Y-127071428D01*
X93944642Y-126833333D01*
X93897023Y-126642857D01*
X93849404Y-126547619D01*
X93801785Y-126500000D01*
X93706547Y-126452380D01*
X92230357Y-126404761D02*
X93087500Y-127690476D01*
X91897023Y-127452380D02*
X91897023Y-126452380D01*
X91563690Y-127166666D01*
X91230357Y-126452380D01*
X91230357Y-127452380D01*
X90754166Y-127452380D02*
X90754166Y-126452380D01*
X90325595Y-127404761D02*
X90182738Y-127452380D01*
X89944642Y-127452380D01*
X89849404Y-127404761D01*
X89801785Y-127357142D01*
X89754166Y-127261904D01*
X89754166Y-127166666D01*
X89801785Y-127071428D01*
X89849404Y-127023809D01*
X89944642Y-126976190D01*
X90135119Y-126928571D01*
X90230357Y-126880952D01*
X90277976Y-126833333D01*
X90325595Y-126738095D01*
X90325595Y-126642857D01*
X90277976Y-126547619D01*
X90230357Y-126500000D01*
X90135119Y-126452380D01*
X89897023Y-126452380D01*
X89754166Y-126500000D01*
X89135119Y-126452380D02*
X88944642Y-126452380D01*
X88849404Y-126500000D01*
X88754166Y-126595238D01*
X88706547Y-126785714D01*
X88706547Y-127119047D01*
X88754166Y-127309523D01*
X88849404Y-127404761D01*
X88944642Y-127452380D01*
X89135119Y-127452380D01*
X89230357Y-127404761D01*
X89325595Y-127309523D01*
X89373214Y-127119047D01*
X89373214Y-126785714D01*
X89325595Y-126595238D01*
X89230357Y-126500000D01*
X89135119Y-126452380D01*
X94897023Y-124007619D02*
X94849404Y-123960000D01*
X94754166Y-123912380D01*
X94516071Y-123912380D01*
X94420833Y-123960000D01*
X94373214Y-124007619D01*
X94325595Y-124102857D01*
X94325595Y-124198095D01*
X94373214Y-124340952D01*
X94944642Y-124912380D01*
X94325595Y-124912380D01*
X93373214Y-124912380D02*
X93944642Y-124912380D01*
X93658928Y-124912380D02*
X93658928Y-123912380D01*
X93754166Y-124055238D01*
X93849404Y-124150476D01*
X93944642Y-124198095D01*
X94897023Y-121467619D02*
X94849404Y-121420000D01*
X94754166Y-121372380D01*
X94516071Y-121372380D01*
X94420833Y-121420000D01*
X94373214Y-121467619D01*
X94325595Y-121562857D01*
X94325595Y-121658095D01*
X94373214Y-121800952D01*
X94944642Y-122372380D01*
X94325595Y-122372380D01*
X93944642Y-121467619D02*
X93897023Y-121420000D01*
X93801785Y-121372380D01*
X93563690Y-121372380D01*
X93468452Y-121420000D01*
X93420833Y-121467619D01*
X93373214Y-121562857D01*
X93373214Y-121658095D01*
X93420833Y-121800952D01*
X93992261Y-122372380D01*
X93373214Y-122372380D01*
X94944642Y-118832380D02*
X94325595Y-118832380D01*
X94658928Y-119213333D01*
X94516071Y-119213333D01*
X94420833Y-119260952D01*
X94373214Y-119308571D01*
X94325595Y-119403809D01*
X94325595Y-119641904D01*
X94373214Y-119737142D01*
X94420833Y-119784761D01*
X94516071Y-119832380D01*
X94801785Y-119832380D01*
X94897023Y-119784761D01*
X94944642Y-119737142D01*
X93897023Y-119737142D02*
X93849404Y-119784761D01*
X93897023Y-119832380D01*
X93944642Y-119784761D01*
X93897023Y-119737142D01*
X93897023Y-119832380D01*
X93516071Y-118832380D02*
X92897023Y-118832380D01*
X93230357Y-119213333D01*
X93087500Y-119213333D01*
X92992261Y-119260952D01*
X92944642Y-119308571D01*
X92897023Y-119403809D01*
X92897023Y-119641904D01*
X92944642Y-119737142D01*
X92992261Y-119784761D01*
X93087500Y-119832380D01*
X93373214Y-119832380D01*
X93468452Y-119784761D01*
X93516071Y-119737142D01*
X92563690Y-119165714D02*
X92325595Y-119832380D01*
X92087500Y-119165714D01*
M02*
