  0
SECTION
  2
HEADER
  9
$ANGBASE
  50
0.0
  9
$ANGDIR
  70
1
  9
$MEASUREMENT
  70
1
  0
ENDSEC
  0
SECTION
  2
TABLES
  0
TABLE
  2
LTYPE
  70
4
  0
LTYPE
  5
40F
  2
CONTINUOUS
  70
0
  3
Solid line
  72
65
  73
0
  40
0.0
  0
LTYPE
  5
410
  2
DASHDOT
 70
0
  3
Dash Dot ____ _ ____ _
 72
65
 73
4
 40
2.0
 49
1.25
 49
-0.25
 49
0.25
 49
-0.25
  0
LTYPE
  5
411
  2
DASHED
 70
0
  3
Dashed __ __ __ __ __
 72
65
 73
2
 40
0.75
 49
0.5
 49
-0.25
  0
LTYPE
  5
43B
  2
DOTTED
 70
0
  3
Dotted .  .  .  .
 72
65
 73
2
 40
0.2
 49
0.0
 49
-0.2
  0
ENDTAB
  0
TABLE
  2
STYLE
  70
4
  0
STYLE
  2
KICAD
  70
0
  40
0
  41
1
  42
1
  50
0
  71
0
  3
isocp.shx
  0
STYLE
  2
KICADB
  70
0
  40
0
  41
1
  42
1
  50
0
  71
0
  3
isocp.shx
  0
STYLE
  2
KICADI
  70
0
  40
0
  41
1
  42
1
  50
15
  71
0
  3
isocp.shx
  0
STYLE
  2
KICADBI
  70
0
  40
0
  41
1
  42
1
  50
15
  71
0
  3
isocp.shx
  0
ENDTAB
  0
TABLE
  2
LAYER
  70
1
  0
LAYER
  2
BLACK
  70
0
  62
7
  6
CONTINUOUS
  0
ENDTAB
  0
ENDSEC
  0
SECTION
  2
ENTITIES
0
LINE
8
BLACK
6
CONTINUOUS
10
80.01
20
-148.59
11
80.01
21
-118.11
0
LINE
8
BLACK
6
CONTINUOUS
10
97.79
20
-148.59
11
80.01
21
-148.59
0
LINE
8
BLACK
6
CONTINUOUS
10
97.79
20
-118.11
11
97.79
21
-148.59
0
LINE
8
BLACK
6
CONTINUOUS
10
80.01
20
-118.11
11
97.79
21
-118.11
0
LINE
8
BLACK
6
CONTINUOUS
10
83.5406
20
-128.88
11
83.8454
21
-129.184
0
LINE
8
BLACK
6
CONTINUOUS
10
83.8454
20
-128.88
11
83.5406
21
-129.184
0
LINE
8
BLACK
6
CONTINUOUS
10
83.9216
20
-134.785
11
84.2264
21
-135.09
0
LINE
8
BLACK
6
CONTINUOUS
10
84.2264
20
-134.785
11
83.9216
21
-135.09
0
LINE
8
BLACK
6
CONTINUOUS
10
84.2391
20
-132.436
11
84.5439
21
-132.74
0
LINE
8
BLACK
6
CONTINUOUS
10
84.5439
20
-132.436
11
84.2391
21
-132.74
0
LINE
8
BLACK
6
CONTINUOUS
10
85.8901
20
-136.246
11
86.1949
21
-136.55
0
LINE
8
BLACK
6
CONTINUOUS
10
86.1949
20
-136.246
11
85.8901
21
-136.55
0
LINE
8
BLACK
6
CONTINUOUS
10
85.9536
20
-129.959
11
86.2584
21
-130.264
0
LINE
8
BLACK
6
CONTINUOUS
10
86.2584
20
-129.959
11
85.9536
21
-130.264
0
LINE
8
BLACK
6
CONTINUOUS
10
86.3346
20
-127.102
11
86.6394
21
-127.406
0
LINE
8
BLACK
6
CONTINUOUS
10
86.6394
20
-127.102
11
86.3346
21
-127.406
0
LINE
8
BLACK
6
CONTINUOUS
10
86.9696
20
-119.672
11
87.2744
21
-119.977
0
LINE
8
BLACK
6
CONTINUOUS
10
87.2744
20
-119.672
11
86.9696
21
-119.977
0
LINE
8
BLACK
6
CONTINUOUS
10
86.9696
20
-121.133
11
87.2744
21
-121.437
0
LINE
8
BLACK
6
CONTINUOUS
10
87.2744
20
-121.133
11
86.9696
21
-121.437
0
LINE
8
BLACK
6
CONTINUOUS
10
86.9696
20
-122.593
11
87.2744
21
-122.898
0
LINE
8
BLACK
6
CONTINUOUS
10
87.2744
20
-122.593
11
86.9696
21
-122.898
0
LINE
8
BLACK
6
CONTINUOUS
10
87.0966
20
-125.451
11
87.4014
21
-125.755
0
LINE
8
BLACK
6
CONTINUOUS
10
87.4014
20
-125.451
11
87.0966
21
-125.755
0
LINE
8
BLACK
6
CONTINUOUS
10
88.0476
20
-132.053
11
88.3524
21
-132.358
0
LINE
8
BLACK
6
CONTINUOUS
10
88.3524
20
-132.053
11
88.0476
21
-132.358
0
LINE
8
BLACK
6
CONTINUOUS
10
88.0476
20
-133.453
11
88.3524
21
-133.758
0
LINE
8
BLACK
6
CONTINUOUS
10
88.3524
20
-133.453
11
88.0476
21
-133.758
0
LINE
8
BLACK
6
CONTINUOUS
10
88.9976
20
-141.453
11
89.3024
21
-141.757
0
LINE
8
BLACK
6
CONTINUOUS
10
89.3024
20
-141.453
11
88.9976
21
-141.757
0
LINE
8
BLACK
6
CONTINUOUS
10
89.4476
20
-133.453
11
89.7524
21
-133.758
0
LINE
8
BLACK
6
CONTINUOUS
10
89.7524
20
-133.453
11
89.4476
21
-133.758
0
LINE
8
BLACK
6
CONTINUOUS
10
89.5096
20
-132.055
11
89.8144
21
-132.359
0
LINE
8
BLACK
6
CONTINUOUS
10
89.8144
20
-132.055
11
89.5096
21
-132.359
0
LINE
8
BLACK
6
CONTINUOUS
10
90.1446
20
-136.309
11
90.4494
21
-136.614
0
LINE
8
BLACK
6
CONTINUOUS
10
90.4494
20
-136.309
11
90.1446
21
-136.614
0
LINE
8
BLACK
6
CONTINUOUS
10
90.9821
20
-142.088
11
91.2869
21
-142.392
0
LINE
8
BLACK
6
CONTINUOUS
10
91.2869
20
-142.088
11
90.9821
21
-142.392
0
LINE
8
BLACK
6
CONTINUOUS
10
91.1606
20
-135.166
11
91.4654
21
-135.471
0
LINE
8
BLACK
6
CONTINUOUS
10
91.4654
20
-135.166
11
91.1606
21
-135.471
0
LINE
8
BLACK
6
CONTINUOUS
10
91.4781
20
-129.959
11
91.7829
21
-130.264
0
LINE
8
BLACK
6
CONTINUOUS
10
91.7829
20
-129.959
11
91.4781
21
-130.264
0
LINE
8
BLACK
6
CONTINUOUS
10
91.7321
20
-142.85
11
92.0369
21
-143.154
0
LINE
8
BLACK
6
CONTINUOUS
10
92.0369
20
-142.85
11
91.7321
21
-143.154
0
LINE
8
BLACK
6
CONTINUOUS
10
92.0496
20
-125.451
11
92.3544
21
-125.755
0
LINE
8
BLACK
6
CONTINUOUS
10
92.3544
20
-125.451
11
92.0496
21
-125.755
0
LINE
8
BLACK
6
CONTINUOUS
10
92.4941
20
-139.675
11
92.7989
21
-139.979
0
LINE
8
BLACK
6
CONTINUOUS
10
92.7989
20
-139.675
11
92.4941
21
-139.979
0
LINE
8
BLACK
6
CONTINUOUS
10
93.5101
20
-137.071
11
93.8149
21
-137.376
0
LINE
8
BLACK
6
CONTINUOUS
10
93.8149
20
-137.071
11
93.5101
21
-137.376
0
LINE
8
BLACK
6
CONTINUOUS
10
93.6371
20
-134.341
11
93.9419
21
-134.645
0
LINE
8
BLACK
6
CONTINUOUS
10
93.9419
20
-134.341
11
93.6371
21
-134.645
0
LINE
8
BLACK
6
CONTINUOUS
10
94.7801
20
-131.483
11
95.0849
21
-131.788
0
LINE
8
BLACK
6
CONTINUOUS
10
95.0849
20
-131.483
11
94.7801
21
-131.788
0
CIRCLE
8
BLACK
10
81.28
20
-119.38
40
0.5
0
CIRCLE
8
BLACK
10
81.28
20
-121.92
40
0.5
0
CIRCLE
8
BLACK
10
81.28
20
-124.46
40
0.5
0
CIRCLE
8
BLACK
10
81.28
20
-127
40
0.5
0
CIRCLE
8
BLACK
10
81.28
20
-129.54
40
0.5
0
CIRCLE
8
BLACK
10
81.28
20
-132.08
40
0.5
0
CIRCLE
8
BLACK
10
81.28
20
-134.62
40
0.5
0
CIRCLE
8
BLACK
10
81.28
20
-137.16
40
0.5
0
CIRCLE
8
BLACK
10
81.28
20
-139.7
40
0.5
0
CIRCLE
8
BLACK
10
81.28
20
-142.24
40
0.5
0
CIRCLE
8
BLACK
10
81.28
20
-144.78
40
0.5
0
CIRCLE
8
BLACK
10
81.28
20
-147.32
40
0.5
0
CIRCLE
8
BLACK
10
83.82
20
-147.32
40
0.5
0
CIRCLE
8
BLACK
10
86.36
20
-147.32
40
0.5
0
CIRCLE
8
BLACK
10
88.9
20
-147.32
40
0.5
0
CIRCLE
8
BLACK
10
91.44
20
-147.32
40
0.5
0
CIRCLE
8
BLACK
10
93.98
20
-147.32
40
0.5
0
CIRCLE
8
BLACK
10
96.52
20
-119.38
40
0.5
0
CIRCLE
8
BLACK
10
96.52
20
-121.92
40
0.5
0
CIRCLE
8
BLACK
10
96.52
20
-124.46
40
0.5
0
CIRCLE
8
BLACK
10
96.52
20
-127
40
0.5
0
CIRCLE
8
BLACK
10
96.52
20
-129.54
40
0.5
0
CIRCLE
8
BLACK
10
96.52
20
-132.08
40
0.5
0
CIRCLE
8
BLACK
10
96.52
20
-134.62
40
0.5
0
CIRCLE
8
BLACK
10
96.52
20
-137.16
40
0.5
0
CIRCLE
8
BLACK
10
96.52
20
-139.7
40
0.5
0
CIRCLE
8
BLACK
10
96.52
20
-142.24
40
0.5
0
CIRCLE
8
BLACK
10
96.52
20
-144.78
40
0.5
0
CIRCLE
8
BLACK
10
96.52
20
-147.32
40
0.5
0
LINE
8
BLACK
6
CONTINUOUS
10
82.7993
20
-153.322
11
82.7993
21
-150.322
0
LINE
8
BLACK
6
CONTINUOUS
10
82.7993
20
-150.322
11
83.5136
21
-150.322
0
LINE
8
BLACK
6
CONTINUOUS
10
83.5136
20
-150.322
11
83.9421
21
-150.465
0
LINE
8
BLACK
6
CONTINUOUS
10
83.9421
20
-150.465
11
84.2279
21
-150.751
0
LINE
8
BLACK
6
CONTINUOUS
10
84.2279
20
-150.751
11
84.3707
21
-151.036
0
LINE
8
BLACK
6
CONTINUOUS
10
84.3707
20
-151.036
11
84.5136
21
-151.608
0
LINE
8
BLACK
6
CONTINUOUS
10
84.5136
20
-151.608
11
84.5136
21
-152.036
0
LINE
8
BLACK
6
CONTINUOUS
10
84.5136
20
-152.036
11
84.3707
21
-152.608
0
LINE
8
BLACK
6
CONTINUOUS
10
84.3707
20
-152.608
11
84.2279
21
-152.894
0
LINE
8
BLACK
6
CONTINUOUS
10
84.2279
20
-152.894
11
83.9421
21
-153.179
0
LINE
8
BLACK
6
CONTINUOUS
10
83.9421
20
-153.179
11
83.5136
21
-153.322
0
LINE
8
BLACK
6
CONTINUOUS
10
83.5136
20
-153.322
11
82.7993
21
-153.322
0
LINE
8
BLACK
6
CONTINUOUS
10
85.7993
20
-153.322
11
85.7993
21
-151.322
0
LINE
8
BLACK
6
CONTINUOUS
10
85.7993
20
-151.894
11
85.9421
21
-151.608
0
LINE
8
BLACK
6
CONTINUOUS
10
85.9421
20
-151.608
11
86.085
21
-151.465
0
LINE
8
BLACK
6
CONTINUOUS
10
86.085
20
-151.465
11
86.3707
21
-151.322
0
LINE
8
BLACK
6
CONTINUOUS
10
86.3707
20
-151.322
11
86.6564
21
-151.322
0
LINE
8
BLACK
6
CONTINUOUS
10
87.6564
20
-153.322
11
87.6564
21
-151.322
0
LINE
8
BLACK
6
CONTINUOUS
10
87.6564
20
-150.322
11
87.5136
21
-150.465
0
LINE
8
BLACK
6
CONTINUOUS
10
87.5136
20
-150.465
11
87.6564
21
-150.608
0
LINE
8
BLACK
6
CONTINUOUS
10
87.6564
20
-150.608
11
87.7993
21
-150.465
0
LINE
8
BLACK
6
CONTINUOUS
10
87.7993
20
-150.465
11
87.6564
21
-150.322
0
LINE
8
BLACK
6
CONTINUOUS
10
87.6564
20
-150.322
11
87.6564
21
-150.608
0
LINE
8
BLACK
6
CONTINUOUS
10
89.5136
20
-153.322
11
89.2279
21
-153.179
0
LINE
8
BLACK
6
CONTINUOUS
10
89.2279
20
-153.179
11
89.085
21
-152.894
0
LINE
8
BLACK
6
CONTINUOUS
10
89.085
20
-152.894
11
89.085
21
-150.322
0
LINE
8
BLACK
6
CONTINUOUS
10
91.085
20
-153.322
11
90.7993
21
-153.179
0
LINE
8
BLACK
6
CONTINUOUS
10
90.7993
20
-153.179
11
90.6564
21
-152.894
0
LINE
8
BLACK
6
CONTINUOUS
10
90.6564
20
-152.894
11
90.6564
21
-150.322
0
LINE
8
BLACK
6
CONTINUOUS
10
94.5136
20
-153.322
11
94.5136
21
-150.322
0
LINE
8
BLACK
6
CONTINUOUS
10
94.5136
20
-150.322
11
95.5136
21
-152.465
0
LINE
8
BLACK
6
CONTINUOUS
10
95.5136
20
-152.465
11
96.5136
21
-150.322
0
LINE
8
BLACK
6
CONTINUOUS
10
96.5136
20
-150.322
11
96.5136
21
-153.322
0
LINE
8
BLACK
6
CONTINUOUS
10
99.2279
20
-153.322
11
99.2279
21
-151.751
0
LINE
8
BLACK
6
CONTINUOUS
10
99.2279
20
-151.751
11
99.085
21
-151.465
0
LINE
8
BLACK
6
CONTINUOUS
10
99.085
20
-151.465
11
98.7993
21
-151.322
0
LINE
8
BLACK
6
CONTINUOUS
10
98.7993
20
-151.322
11
98.2279
21
-151.322
0
LINE
8
BLACK
6
CONTINUOUS
10
98.2279
20
-151.322
11
97.9421
21
-151.465
0
LINE
8
BLACK
6
CONTINUOUS
10
99.2279
20
-153.179
11
98.9421
21
-153.322
0
LINE
8
BLACK
6
CONTINUOUS
10
98.9421
20
-153.322
11
98.2279
21
-153.322
0
LINE
8
BLACK
6
CONTINUOUS
10
98.2279
20
-153.322
11
97.9421
21
-153.179
0
LINE
8
BLACK
6
CONTINUOUS
10
97.9421
20
-153.179
11
97.7993
21
-152.894
0
LINE
8
BLACK
6
CONTINUOUS
10
97.7993
20
-152.894
11
97.7993
21
-152.608
0
LINE
8
BLACK
6
CONTINUOUS
10
97.7993
20
-152.608
11
97.9421
21
-152.322
0
LINE
8
BLACK
6
CONTINUOUS
10
97.9421
20
-152.322
11
98.2279
21
-152.179
0
LINE
8
BLACK
6
CONTINUOUS
10
98.2279
20
-152.179
11
98.9421
21
-152.179
0
LINE
8
BLACK
6
CONTINUOUS
10
98.9421
20
-152.179
11
99.2279
21
-152.036
0
LINE
8
BLACK
6
CONTINUOUS
10
100.656
20
-151.322
11
100.656
21
-154.322
0
LINE
8
BLACK
6
CONTINUOUS
10
100.656
20
-151.465
11
100.942
21
-151.322
0
LINE
8
BLACK
6
CONTINUOUS
10
100.942
20
-151.322
11
101.514
21
-151.322
0
LINE
8
BLACK
6
CONTINUOUS
10
101.514
20
-151.322
11
101.799
21
-151.465
0
LINE
8
BLACK
6
CONTINUOUS
10
101.799
20
-151.465
11
101.942
21
-151.608
0
LINE
8
BLACK
6
CONTINUOUS
10
101.942
20
-151.608
11
102.085
21
-151.894
0
LINE
8
BLACK
6
CONTINUOUS
10
102.085
20
-151.894
11
102.085
21
-152.751
0
LINE
8
BLACK
6
CONTINUOUS
10
102.085
20
-152.751
11
101.942
21
-153.036
0
LINE
8
BLACK
6
CONTINUOUS
10
101.942
20
-153.036
11
101.799
21
-153.179
0
LINE
8
BLACK
6
CONTINUOUS
10
101.799
20
-153.179
11
101.514
21
-153.322
0
LINE
8
BLACK
6
CONTINUOUS
10
101.514
20
-153.322
11
100.942
21
-153.322
0
LINE
8
BLACK
6
CONTINUOUS
10
100.942
20
-153.322
11
100.656
21
-153.179
0
LINE
8
BLACK
6
CONTINUOUS
10
103.371
20
-153.036
11
103.514
21
-153.179
0
LINE
8
BLACK
6
CONTINUOUS
10
103.514
20
-153.179
11
103.371
21
-153.322
0
LINE
8
BLACK
6
CONTINUOUS
10
103.371
20
-153.322
11
103.228
21
-153.179
0
LINE
8
BLACK
6
CONTINUOUS
10
103.228
20
-153.179
11
103.371
21
-153.036
0
LINE
8
BLACK
6
CONTINUOUS
10
103.371
20
-153.036
11
103.371
21
-153.322
0
LINE
8
BLACK
6
CONTINUOUS
10
103.371
20
-151.465
11
103.514
21
-151.608
0
LINE
8
BLACK
6
CONTINUOUS
10
103.514
20
-151.608
11
103.371
21
-151.751
0
LINE
8
BLACK
6
CONTINUOUS
10
103.371
20
-151.751
11
103.228
21
-151.608
0
LINE
8
BLACK
6
CONTINUOUS
10
103.228
20
-151.608
11
103.371
21
-151.465
0
LINE
8
BLACK
6
CONTINUOUS
10
103.371
20
-151.465
11
103.371
21
-151.751
0
LINE
8
BLACK
6
CONTINUOUS
10
79.6302
20
-158.113
11
79.935
21
-158.417
0
LINE
8
BLACK
6
CONTINUOUS
10
79.935
20
-158.113
11
79.6302
21
-158.417
0
LINE
8
BLACK
6
CONTINUOUS
10
83.3707
20
-156.622
11
83.6564
21
-156.622
0
LINE
8
BLACK
6
CONTINUOUS
10
83.6564
20
-156.622
11
83.9421
21
-156.765
0
LINE
8
BLACK
6
CONTINUOUS
10
83.9421
20
-156.765
11
84.085
21
-156.908
0
LINE
8
BLACK
6
CONTINUOUS
10
84.085
20
-156.908
11
84.2279
21
-157.194
0
LINE
8
BLACK
6
CONTINUOUS
10
84.2279
20
-157.194
11
84.3707
21
-157.765
0
LINE
8
BLACK
6
CONTINUOUS
10
84.3707
20
-157.765
11
84.3707
21
-158.479
0
LINE
8
BLACK
6
CONTINUOUS
10
84.3707
20
-158.479
11
84.2279
21
-159.051
0
LINE
8
BLACK
6
CONTINUOUS
10
84.2279
20
-159.051
11
84.085
21
-159.336
0
LINE
8
BLACK
6
CONTINUOUS
10
84.085
20
-159.336
11
83.9421
21
-159.479
0
LINE
8
BLACK
6
CONTINUOUS
10
83.9421
20
-159.479
11
83.6564
21
-159.622
0
LINE
8
BLACK
6
CONTINUOUS
10
83.6564
20
-159.622
11
83.3707
21
-159.622
0
LINE
8
BLACK
6
CONTINUOUS
10
83.3707
20
-159.622
11
83.085
21
-159.479
0
LINE
8
BLACK
6
CONTINUOUS
10
83.085
20
-159.479
11
82.9421
21
-159.336
0
LINE
8
BLACK
6
CONTINUOUS
10
82.9421
20
-159.336
11
82.7993
21
-159.051
0
LINE
8
BLACK
6
CONTINUOUS
10
82.7993
20
-159.051
11
82.6564
21
-158.479
0
LINE
8
BLACK
6
CONTINUOUS
10
82.6564
20
-158.479
11
82.6564
21
-157.765
0
LINE
8
BLACK
6
CONTINUOUS
10
82.6564
20
-157.765
11
82.7993
21
-157.194
0
LINE
8
BLACK
6
CONTINUOUS
10
82.7993
20
-157.194
11
82.9421
21
-156.908
0
LINE
8
BLACK
6
CONTINUOUS
10
82.9421
20
-156.908
11
83.085
21
-156.765
0
LINE
8
BLACK
6
CONTINUOUS
10
83.085
20
-156.765
11
83.3707
21
-156.622
0
LINE
8
BLACK
6
CONTINUOUS
10
85.6564
20
-159.336
11
85.7993
21
-159.479
0
LINE
8
BLACK
6
CONTINUOUS
10
85.7993
20
-159.479
11
85.6564
21
-159.622
0
LINE
8
BLACK
6
CONTINUOUS
10
85.6564
20
-159.622
11
85.5136
21
-159.479
0
LINE
8
BLACK
6
CONTINUOUS
10
85.5136
20
-159.479
11
85.6564
21
-159.336
0
LINE
8
BLACK
6
CONTINUOUS
10
85.6564
20
-159.336
11
85.6564
21
-159.622
0
LINE
8
BLACK
6
CONTINUOUS
10
86.7993
20
-156.622
11
88.6564
21
-156.622
0
LINE
8
BLACK
6
CONTINUOUS
10
88.6564
20
-156.622
11
87.6564
21
-157.765
0
LINE
8
BLACK
6
CONTINUOUS
10
87.6564
20
-157.765
11
88.085
21
-157.765
0
LINE
8
BLACK
6
CONTINUOUS
10
88.085
20
-157.765
11
88.3707
21
-157.908
0
LINE
8
BLACK
6
CONTINUOUS
10
88.3707
20
-157.908
11
88.5136
21
-158.051
0
LINE
8
BLACK
6
CONTINUOUS
10
88.5136
20
-158.051
11
88.6564
21
-158.336
0
LINE
8
BLACK
6
CONTINUOUS
10
88.6564
20
-158.336
11
88.6564
21
-159.051
0
LINE
8
BLACK
6
CONTINUOUS
10
88.6564
20
-159.051
11
88.5136
21
-159.336
0
LINE
8
BLACK
6
CONTINUOUS
10
88.5136
20
-159.336
11
88.3707
21
-159.479
0
LINE
8
BLACK
6
CONTINUOUS
10
88.3707
20
-159.479
11
88.085
21
-159.622
0
LINE
8
BLACK
6
CONTINUOUS
10
88.085
20
-159.622
11
87.2279
21
-159.622
0
LINE
8
BLACK
6
CONTINUOUS
10
87.2279
20
-159.622
11
86.9421
21
-159.479
0
LINE
8
BLACK
6
CONTINUOUS
10
86.9421
20
-159.479
11
86.7993
21
-159.336
0
LINE
8
BLACK
6
CONTINUOUS
10
90.5136
20
-156.622
11
90.7993
21
-156.622
0
LINE
8
BLACK
6
CONTINUOUS
10
90.7993
20
-156.622
11
91.085
21
-156.765
0
LINE
8
BLACK
6
CONTINUOUS
10
91.085
20
-156.765
11
91.2279
21
-156.908
0
LINE
8
BLACK
6
CONTINUOUS
10
91.2279
20
-156.908
11
91.3707
21
-157.194
0
LINE
8
BLACK
6
CONTINUOUS
10
91.3707
20
-157.194
11
91.5136
21
-157.765
0
LINE
8
BLACK
6
CONTINUOUS
10
91.5136
20
-157.765
11
91.5136
21
-158.479
0
LINE
8
BLACK
6
CONTINUOUS
10
91.5136
20
-158.479
11
91.3707
21
-159.051
0
LINE
8
BLACK
6
CONTINUOUS
10
91.3707
20
-159.051
11
91.2279
21
-159.336
0
LINE
8
BLACK
6
CONTINUOUS
10
91.2279
20
-159.336
11
91.085
21
-159.479
0
LINE
8
BLACK
6
CONTINUOUS
10
91.085
20
-159.479
11
90.7993
21
-159.622
0
LINE
8
BLACK
6
CONTINUOUS
10
90.7993
20
-159.622
11
90.5136
21
-159.622
0
LINE
8
BLACK
6
CONTINUOUS
10
90.5136
20
-159.622
11
90.2279
21
-159.479
0
LINE
8
BLACK
6
CONTINUOUS
10
90.2279
20
-159.479
11
90.085
21
-159.336
0
LINE
8
BLACK
6
CONTINUOUS
10
90.085
20
-159.336
11
89.9421
21
-159.051
0
LINE
8
BLACK
6
CONTINUOUS
10
89.9421
20
-159.051
11
89.7993
21
-158.479
0
LINE
8
BLACK
6
CONTINUOUS
10
89.7993
20
-158.479
11
89.7993
21
-157.765
0
LINE
8
BLACK
6
CONTINUOUS
10
89.7993
20
-157.765
11
89.9421
21
-157.194
0
LINE
8
BLACK
6
CONTINUOUS
10
89.9421
20
-157.194
11
90.085
21
-156.908
0
LINE
8
BLACK
6
CONTINUOUS
10
90.085
20
-156.908
11
90.2279
21
-156.765
0
LINE
8
BLACK
6
CONTINUOUS
10
90.2279
20
-156.765
11
90.5136
21
-156.622
0
LINE
8
BLACK
6
CONTINUOUS
10
92.7993
20
-159.622
11
92.7993
21
-157.622
0
LINE
8
BLACK
6
CONTINUOUS
10
92.7993
20
-157.908
11
92.9421
21
-157.765
0
LINE
8
BLACK
6
CONTINUOUS
10
92.9421
20
-157.765
11
93.2279
21
-157.622
0
LINE
8
BLACK
6
CONTINUOUS
10
93.2279
20
-157.622
11
93.6564
21
-157.622
0
LINE
8
BLACK
6
CONTINUOUS
10
93.6564
20
-157.622
11
93.9421
21
-157.765
0
LINE
8
BLACK
6
CONTINUOUS
10
93.9421
20
-157.765
11
94.085
21
-158.051
0
LINE
8
BLACK
6
CONTINUOUS
10
94.085
20
-158.051
11
94.085
21
-159.622
0
LINE
8
BLACK
6
CONTINUOUS
10
94.085
20
-158.051
11
94.2279
21
-157.765
0
LINE
8
BLACK
6
CONTINUOUS
10
94.2279
20
-157.765
11
94.5136
21
-157.622
0
LINE
8
BLACK
6
CONTINUOUS
10
94.5136
20
-157.622
11
94.9421
21
-157.622
0
LINE
8
BLACK
6
CONTINUOUS
10
94.9421
20
-157.622
11
95.2279
21
-157.765
0
LINE
8
BLACK
6
CONTINUOUS
10
95.2279
20
-157.765
11
95.3707
21
-158.051
0
LINE
8
BLACK
6
CONTINUOUS
10
95.3707
20
-158.051
11
95.3707
21
-159.622
0
LINE
8
BLACK
6
CONTINUOUS
10
96.7993
20
-159.622
11
96.7993
21
-157.622
0
LINE
8
BLACK
6
CONTINUOUS
10
96.7993
20
-157.908
11
96.9421
21
-157.765
0
LINE
8
BLACK
6
CONTINUOUS
10
96.9421
20
-157.765
11
97.2279
21
-157.622
0
LINE
8
BLACK
6
CONTINUOUS
10
97.2279
20
-157.622
11
97.6564
21
-157.622
0
LINE
8
BLACK
6
CONTINUOUS
10
97.6564
20
-157.622
11
97.9421
21
-157.765
0
LINE
8
BLACK
6
CONTINUOUS
10
97.9421
20
-157.765
11
98.085
21
-158.051
0
LINE
8
BLACK
6
CONTINUOUS
10
98.085
20
-158.051
11
98.085
21
-159.622
0
LINE
8
BLACK
6
CONTINUOUS
10
98.085
20
-158.051
11
98.2279
21
-157.765
0
LINE
8
BLACK
6
CONTINUOUS
10
98.2279
20
-157.765
11
98.5136
21
-157.622
0
LINE
8
BLACK
6
CONTINUOUS
10
98.5136
20
-157.622
11
98.9421
21
-157.622
0
LINE
8
BLACK
6
CONTINUOUS
10
98.9421
20
-157.622
11
99.2279
21
-157.765
0
LINE
8
BLACK
6
CONTINUOUS
10
99.2279
20
-157.765
11
99.3707
21
-158.051
0
LINE
8
BLACK
6
CONTINUOUS
10
99.3707
20
-158.051
11
99.3707
21
-159.622
0
LINE
8
BLACK
6
CONTINUOUS
10
105.228
20
-156.479
11
102.656
21
-160.336
0
LINE
8
BLACK
6
CONTINUOUS
10
109.085
20
-156.622
11
109.371
21
-156.622
0
LINE
8
BLACK
6
CONTINUOUS
10
109.371
20
-156.622
11
109.656
21
-156.765
0
LINE
8
BLACK
6
CONTINUOUS
10
109.656
20
-156.765
11
109.799
21
-156.908
0
LINE
8
BLACK
6
CONTINUOUS
10
109.799
20
-156.908
11
109.942
21
-157.194
0
LINE
8
BLACK
6
CONTINUOUS
10
109.942
20
-157.194
11
110.085
21
-157.765
0
LINE
8
BLACK
6
CONTINUOUS
10
110.085
20
-157.765
11
110.085
21
-158.479
0
LINE
8
BLACK
6
CONTINUOUS
10
110.085
20
-158.479
11
109.942
21
-159.051
0
LINE
8
BLACK
6
CONTINUOUS
10
109.942
20
-159.051
11
109.799
21
-159.336
0
LINE
8
BLACK
6
CONTINUOUS
10
109.799
20
-159.336
11
109.656
21
-159.479
0
LINE
8
BLACK
6
CONTINUOUS
10
109.656
20
-159.479
11
109.371
21
-159.622
0
LINE
8
BLACK
6
CONTINUOUS
10
109.371
20
-159.622
11
109.085
21
-159.622
0
LINE
8
BLACK
6
CONTINUOUS
10
109.085
20
-159.622
11
108.799
21
-159.479
0
LINE
8
BLACK
6
CONTINUOUS
10
108.799
20
-159.479
11
108.656
21
-159.336
0
LINE
8
BLACK
6
CONTINUOUS
10
108.656
20
-159.336
11
108.514
21
-159.051
0
LINE
8
BLACK
6
CONTINUOUS
10
108.514
20
-159.051
11
108.371
21
-158.479
0
LINE
8
BLACK
6
CONTINUOUS
10
108.371
20
-158.479
11
108.371
21
-157.765
0
LINE
8
BLACK
6
CONTINUOUS
10
108.371
20
-157.765
11
108.514
21
-157.194
0
LINE
8
BLACK
6
CONTINUOUS
10
108.514
20
-157.194
11
108.656
21
-156.908
0
LINE
8
BLACK
6
CONTINUOUS
10
108.656
20
-156.908
11
108.799
21
-156.765
0
LINE
8
BLACK
6
CONTINUOUS
10
108.799
20
-156.765
11
109.085
21
-156.622
0
LINE
8
BLACK
6
CONTINUOUS
10
111.371
20
-159.336
11
111.514
21
-159.479
0
LINE
8
BLACK
6
CONTINUOUS
10
111.514
20
-159.479
11
111.371
21
-159.622
0
LINE
8
BLACK
6
CONTINUOUS
10
111.371
20
-159.622
11
111.228
21
-159.479
0
LINE
8
BLACK
6
CONTINUOUS
10
111.228
20
-159.479
11
111.371
21
-159.336
0
LINE
8
BLACK
6
CONTINUOUS
10
111.371
20
-159.336
11
111.371
21
-159.622
0
LINE
8
BLACK
6
CONTINUOUS
10
113.371
20
-156.622
11
113.656
21
-156.622
0
LINE
8
BLACK
6
CONTINUOUS
10
113.656
20
-156.622
11
113.942
21
-156.765
0
LINE
8
BLACK
6
CONTINUOUS
10
113.942
20
-156.765
11
114.085
21
-156.908
0
LINE
8
BLACK
6
CONTINUOUS
10
114.085
20
-156.908
11
114.228
21
-157.194
0
LINE
8
BLACK
6
CONTINUOUS
10
114.228
20
-157.194
11
114.371
21
-157.765
0
LINE
8
BLACK
6
CONTINUOUS
10
114.371
20
-157.765
11
114.371
21
-158.479
0
LINE
8
BLACK
6
CONTINUOUS
10
114.371
20
-158.479
11
114.228
21
-159.051
0
LINE
8
BLACK
6
CONTINUOUS
10
114.228
20
-159.051
11
114.085
21
-159.336
0
LINE
8
BLACK
6
CONTINUOUS
10
114.085
20
-159.336
11
113.942
21
-159.479
0
LINE
8
BLACK
6
CONTINUOUS
10
113.942
20
-159.479
11
113.656
21
-159.622
0
LINE
8
BLACK
6
CONTINUOUS
10
113.656
20
-159.622
11
113.371
21
-159.622
0
LINE
8
BLACK
6
CONTINUOUS
10
113.371
20
-159.622
11
113.085
21
-159.479
0
LINE
8
BLACK
6
CONTINUOUS
10
113.085
20
-159.479
11
112.942
21
-159.336
0
LINE
8
BLACK
6
CONTINUOUS
10
112.942
20
-159.336
11
112.799
21
-159.051
0
LINE
8
BLACK
6
CONTINUOUS
10
112.799
20
-159.051
11
112.656
21
-158.479
0
LINE
8
BLACK
6
CONTINUOUS
10
112.656
20
-158.479
11
112.656
21
-157.765
0
LINE
8
BLACK
6
CONTINUOUS
10
112.656
20
-157.765
11
112.799
21
-157.194
0
LINE
8
BLACK
6
CONTINUOUS
10
112.799
20
-157.194
11
112.942
21
-156.908
0
LINE
8
BLACK
6
CONTINUOUS
10
112.942
20
-156.908
11
113.085
21
-156.765
0
LINE
8
BLACK
6
CONTINUOUS
10
113.085
20
-156.765
11
113.371
21
-156.622
0
LINE
8
BLACK
6
CONTINUOUS
10
117.228
20
-159.622
11
115.514
21
-159.622
0
LINE
8
BLACK
6
CONTINUOUS
10
116.371
20
-159.622
11
116.371
21
-156.622
0
LINE
8
BLACK
6
CONTINUOUS
10
116.371
20
-156.622
11
116.085
21
-157.051
0
LINE
8
BLACK
6
CONTINUOUS
10
116.085
20
-157.051
11
115.799
21
-157.336
0
LINE
8
BLACK
6
CONTINUOUS
10
115.799
20
-157.336
11
115.514
21
-157.479
0
LINE
8
BLACK
6
CONTINUOUS
10
118.371
20
-156.908
11
118.514
21
-156.765
0
LINE
8
BLACK
6
CONTINUOUS
10
118.514
20
-156.765
11
118.799
21
-156.622
0
LINE
8
BLACK
6
CONTINUOUS
10
118.799
20
-156.622
11
119.514
21
-156.622
0
LINE
8
BLACK
6
CONTINUOUS
10
119.514
20
-156.622
11
119.799
21
-156.765
0
LINE
8
BLACK
6
CONTINUOUS
10
119.799
20
-156.765
11
119.942
21
-156.908
0
LINE
8
BLACK
6
CONTINUOUS
10
119.942
20
-156.908
11
120.085
21
-157.194
0
LINE
8
BLACK
6
CONTINUOUS
10
120.085
20
-157.194
11
120.085
21
-157.479
0
LINE
8
BLACK
6
CONTINUOUS
10
120.085
20
-157.479
11
119.942
21
-157.908
0
LINE
8
BLACK
6
CONTINUOUS
10
119.942
20
-157.908
11
118.228
21
-159.622
0
LINE
8
BLACK
6
CONTINUOUS
10
118.228
20
-159.622
11
120.085
21
-159.622
0
LINE
8
BLACK
6
CONTINUOUS
10
121.228
20
-156.622
11
121.228
21
-157.194
0
LINE
8
BLACK
6
CONTINUOUS
10
122.371
20
-156.622
11
122.371
21
-157.194
0
LINE
8
BLACK
6
CONTINUOUS
10
126.799
20
-160.765
11
126.656
21
-160.622
0
LINE
8
BLACK
6
CONTINUOUS
10
126.656
20
-160.622
11
126.371
21
-160.194
0
LINE
8
BLACK
6
CONTINUOUS
10
126.371
20
-160.194
11
126.228
21
-159.908
0
LINE
8
BLACK
6
CONTINUOUS
10
126.228
20
-159.908
11
126.085
21
-159.479
0
LINE
8
BLACK
6
CONTINUOUS
10
126.085
20
-159.479
11
125.942
21
-158.765
0
LINE
8
BLACK
6
CONTINUOUS
10
125.942
20
-158.765
11
125.942
21
-158.194
0
LINE
8
BLACK
6
CONTINUOUS
10
125.942
20
-158.194
11
126.085
21
-157.479
0
LINE
8
BLACK
6
CONTINUOUS
10
126.085
20
-157.479
11
126.228
21
-157.051
0
LINE
8
BLACK
6
CONTINUOUS
10
126.228
20
-157.051
11
126.371
21
-156.765
0
LINE
8
BLACK
6
CONTINUOUS
10
126.371
20
-156.765
11
126.656
21
-156.336
0
LINE
8
BLACK
6
CONTINUOUS
10
126.656
20
-156.336
11
126.799
21
-156.194
0
LINE
8
BLACK
6
CONTINUOUS
10
127.799
20
-156.908
11
127.942
21
-156.765
0
LINE
8
BLACK
6
CONTINUOUS
10
127.942
20
-156.765
11
128.228
21
-156.622
0
LINE
8
BLACK
6
CONTINUOUS
10
128.228
20
-156.622
11
128.942
21
-156.622
0
LINE
8
BLACK
6
CONTINUOUS
10
128.942
20
-156.622
11
129.228
21
-156.765
0
LINE
8
BLACK
6
CONTINUOUS
10
129.228
20
-156.765
11
129.371
21
-156.908
0
LINE
8
BLACK
6
CONTINUOUS
10
129.371
20
-156.908
11
129.514
21
-157.194
0
LINE
8
BLACK
6
CONTINUOUS
10
129.514
20
-157.194
11
129.514
21
-157.479
0
LINE
8
BLACK
6
CONTINUOUS
10
129.514
20
-157.479
11
129.371
21
-157.908
0
LINE
8
BLACK
6
CONTINUOUS
10
129.371
20
-157.908
11
127.656
21
-159.622
0
LINE
8
BLACK
6
CONTINUOUS
10
127.656
20
-159.622
11
129.514
21
-159.622
0
LINE
8
BLACK
6
CONTINUOUS
10
132.228
20
-156.622
11
130.799
21
-156.622
0
LINE
8
BLACK
6
CONTINUOUS
10
130.799
20
-156.622
11
130.656
21
-158.051
0
LINE
8
BLACK
6
CONTINUOUS
10
130.656
20
-158.051
11
130.799
21
-157.908
0
LINE
8
BLACK
6
CONTINUOUS
10
130.799
20
-157.908
11
131.085
21
-157.765
0
LINE
8
BLACK
6
CONTINUOUS
10
131.085
20
-157.765
11
131.799
21
-157.765
0
LINE
8
BLACK
6
CONTINUOUS
10
131.799
20
-157.765
11
132.085
21
-157.908
0
LINE
8
BLACK
6
CONTINUOUS
10
132.085
20
-157.908
11
132.228
21
-158.051
0
LINE
8
BLACK
6
CONTINUOUS
10
132.228
20
-158.051
11
132.371
21
-158.336
0
LINE
8
BLACK
6
CONTINUOUS
10
132.371
20
-158.336
11
132.371
21
-159.051
0
LINE
8
BLACK
6
CONTINUOUS
10
132.371
20
-159.051
11
132.228
21
-159.336
0
LINE
8
BLACK
6
CONTINUOUS
10
132.228
20
-159.336
11
132.085
21
-159.479
0
LINE
8
BLACK
6
CONTINUOUS
10
132.085
20
-159.479
11
131.799
21
-159.622
0
LINE
8
BLACK
6
CONTINUOUS
10
131.799
20
-159.622
11
131.085
21
-159.622
0
LINE
8
BLACK
6
CONTINUOUS
10
131.085
20
-159.622
11
130.799
21
-159.479
0
LINE
8
BLACK
6
CONTINUOUS
10
130.799
20
-159.479
11
130.656
21
-159.336
0
LINE
8
BLACK
6
CONTINUOUS
10
135.942
20
-159.622
11
135.942
21
-156.622
0
LINE
8
BLACK
6
CONTINUOUS
10
137.228
20
-159.622
11
137.228
21
-158.051
0
LINE
8
BLACK
6
CONTINUOUS
10
137.228
20
-158.051
11
137.085
21
-157.765
0
LINE
8
BLACK
6
CONTINUOUS
10
137.085
20
-157.765
11
136.799
21
-157.622
0
LINE
8
BLACK
6
CONTINUOUS
10
136.799
20
-157.622
11
136.371
21
-157.622
0
LINE
8
BLACK
6
CONTINUOUS
10
136.371
20
-157.622
11
136.085
21
-157.765
0
LINE
8
BLACK
6
CONTINUOUS
10
136.085
20
-157.765
11
135.942
21
-157.908
0
LINE
8
BLACK
6
CONTINUOUS
10
139.085
20
-159.622
11
138.799
21
-159.479
0
LINE
8
BLACK
6
CONTINUOUS
10
138.799
20
-159.479
11
138.656
21
-159.336
0
LINE
8
BLACK
6
CONTINUOUS
10
138.656
20
-159.336
11
138.514
21
-159.051
0
LINE
8
BLACK
6
CONTINUOUS
10
138.514
20
-159.051
11
138.514
21
-158.194
0
LINE
8
BLACK
6
CONTINUOUS
10
138.514
20
-158.194
11
138.656
21
-157.908
0
LINE
8
BLACK
6
CONTINUOUS
10
138.656
20
-157.908
11
138.799
21
-157.765
0
LINE
8
BLACK
6
CONTINUOUS
10
138.799
20
-157.765
11
139.085
21
-157.622
0
LINE
8
BLACK
6
CONTINUOUS
10
139.085
20
-157.622
11
139.514
21
-157.622
0
LINE
8
BLACK
6
CONTINUOUS
10
139.514
20
-157.622
11
139.799
21
-157.765
0
LINE
8
BLACK
6
CONTINUOUS
10
139.799
20
-157.765
11
139.942
21
-157.908
0
LINE
8
BLACK
6
CONTINUOUS
10
139.942
20
-157.908
11
140.085
21
-158.194
0
LINE
8
BLACK
6
CONTINUOUS
10
140.085
20
-158.194
11
140.085
21
-159.051
0
LINE
8
BLACK
6
CONTINUOUS
10
140.085
20
-159.051
11
139.942
21
-159.336
0
LINE
8
BLACK
6
CONTINUOUS
10
139.942
20
-159.336
11
139.799
21
-159.479
0
LINE
8
BLACK
6
CONTINUOUS
10
139.799
20
-159.479
11
139.514
21
-159.622
0
LINE
8
BLACK
6
CONTINUOUS
10
139.514
20
-159.622
11
139.085
21
-159.622
0
LINE
8
BLACK
6
CONTINUOUS
10
141.799
20
-159.622
11
141.514
21
-159.479
0
LINE
8
BLACK
6
CONTINUOUS
10
141.514
20
-159.479
11
141.371
21
-159.194
0
LINE
8
BLACK
6
CONTINUOUS
10
141.371
20
-159.194
11
141.371
21
-156.622
0
LINE
8
BLACK
6
CONTINUOUS
10
144.085
20
-159.479
11
143.799
21
-159.622
0
LINE
8
BLACK
6
CONTINUOUS
10
143.799
20
-159.622
11
143.228
21
-159.622
0
LINE
8
BLACK
6
CONTINUOUS
10
143.228
20
-159.622
11
142.942
21
-159.479
0
LINE
8
BLACK
6
CONTINUOUS
10
142.942
20
-159.479
11
142.799
21
-159.194
0
LINE
8
BLACK
6
CONTINUOUS
10
142.799
20
-159.194
11
142.799
21
-158.051
0
LINE
8
BLACK
6
CONTINUOUS
10
142.799
20
-158.051
11
142.942
21
-157.765
0
LINE
8
BLACK
6
CONTINUOUS
10
142.942
20
-157.765
11
143.228
21
-157.622
0
LINE
8
BLACK
6
CONTINUOUS
10
143.228
20
-157.622
11
143.799
21
-157.622
0
LINE
8
BLACK
6
CONTINUOUS
10
143.799
20
-157.622
11
144.085
21
-157.765
0
LINE
8
BLACK
6
CONTINUOUS
10
144.085
20
-157.765
11
144.228
21
-158.051
0
LINE
8
BLACK
6
CONTINUOUS
10
144.228
20
-158.051
11
144.228
21
-158.336
0
LINE
8
BLACK
6
CONTINUOUS
10
144.228
20
-158.336
11
142.799
21
-158.622
0
LINE
8
BLACK
6
CONTINUOUS
10
145.371
20
-159.479
11
145.656
21
-159.622
0
LINE
8
BLACK
6
CONTINUOUS
10
145.656
20
-159.622
11
146.228
21
-159.622
0
LINE
8
BLACK
6
CONTINUOUS
10
146.228
20
-159.622
11
146.514
21
-159.479
0
LINE
8
BLACK
6
CONTINUOUS
10
146.514
20
-159.479
11
146.656
21
-159.194
0
LINE
8
BLACK
6
CONTINUOUS
10
146.656
20
-159.194
11
146.656
21
-159.051
0
LINE
8
BLACK
6
CONTINUOUS
10
146.656
20
-159.051
11
146.514
21
-158.765
0
LINE
8
BLACK
6
CONTINUOUS
10
146.514
20
-158.765
11
146.228
21
-158.622
0
LINE
8
BLACK
6
CONTINUOUS
10
146.228
20
-158.622
11
145.799
21
-158.622
0
LINE
8
BLACK
6
CONTINUOUS
10
145.799
20
-158.622
11
145.514
21
-158.479
0
LINE
8
BLACK
6
CONTINUOUS
10
145.514
20
-158.479
11
145.371
21
-158.194
0
LINE
8
BLACK
6
CONTINUOUS
10
145.371
20
-158.194
11
145.371
21
-158.051
0
LINE
8
BLACK
6
CONTINUOUS
10
145.371
20
-158.051
11
145.514
21
-157.765
0
LINE
8
BLACK
6
CONTINUOUS
10
145.514
20
-157.765
11
145.799
21
-157.622
0
LINE
8
BLACK
6
CONTINUOUS
10
145.799
20
-157.622
11
146.228
21
-157.622
0
LINE
8
BLACK
6
CONTINUOUS
10
146.228
20
-157.622
11
146.514
21
-157.765
0
LINE
8
BLACK
6
CONTINUOUS
10
147.656
20
-160.765
11
147.799
21
-160.622
0
LINE
8
BLACK
6
CONTINUOUS
10
147.799
20
-160.622
11
148.085
21
-160.194
0
LINE
8
BLACK
6
CONTINUOUS
10
148.085
20
-160.194
11
148.228
21
-159.908
0
LINE
8
BLACK
6
CONTINUOUS
10
148.228
20
-159.908
11
148.371
21
-159.479
0
LINE
8
BLACK
6
CONTINUOUS
10
148.371
20
-159.479
11
148.514
21
-158.765
0
LINE
8
BLACK
6
CONTINUOUS
10
148.514
20
-158.765
11
148.514
21
-158.194
0
LINE
8
BLACK
6
CONTINUOUS
10
148.514
20
-158.194
11
148.371
21
-157.479
0
LINE
8
BLACK
6
CONTINUOUS
10
148.371
20
-157.479
11
148.228
21
-157.051
0
LINE
8
BLACK
6
CONTINUOUS
10
148.228
20
-157.051
11
148.085
21
-156.765
0
LINE
8
BLACK
6
CONTINUOUS
10
148.085
20
-156.765
11
147.799
21
-156.336
0
LINE
8
BLACK
6
CONTINUOUS
10
147.799
20
-156.336
11
147.656
21
-156.194
0
CIRCLE
8
BLACK
10
79.435
20
-162.225
40
0.5
0
LINE
8
BLACK
6
CONTINUOUS
10
84.3707
20
-163.582
11
82.6564
21
-163.582
0
LINE
8
BLACK
6
CONTINUOUS
10
83.5136
20
-163.582
11
83.5136
21
-160.582
0
LINE
8
BLACK
6
CONTINUOUS
10
83.5136
20
-160.582
11
83.2279
21
-161.011
0
LINE
8
BLACK
6
CONTINUOUS
10
83.2279
20
-161.011
11
82.9421
21
-161.296
0
LINE
8
BLACK
6
CONTINUOUS
10
82.9421
20
-161.296
11
82.6564
21
-161.439
0
LINE
8
BLACK
6
CONTINUOUS
10
85.6564
20
-163.296
11
85.7993
21
-163.439
0
LINE
8
BLACK
6
CONTINUOUS
10
85.7993
20
-163.439
11
85.6564
21
-163.582
0
LINE
8
BLACK
6
CONTINUOUS
10
85.6564
20
-163.582
11
85.5136
21
-163.439
0
LINE
8
BLACK
6
CONTINUOUS
10
85.5136
20
-163.439
11
85.6564
21
-163.296
0
LINE
8
BLACK
6
CONTINUOUS
10
85.6564
20
-163.296
11
85.6564
21
-163.582
0
LINE
8
BLACK
6
CONTINUOUS
10
87.6564
20
-160.582
11
87.9421
21
-160.582
0
LINE
8
BLACK
6
CONTINUOUS
10
87.9421
20
-160.582
11
88.2279
21
-160.725
0
LINE
8
BLACK
6
CONTINUOUS
10
88.2279
20
-160.725
11
88.3707
21
-160.868
0
LINE
8
BLACK
6
CONTINUOUS
10
88.3707
20
-160.868
11
88.5136
21
-161.154
0
LINE
8
BLACK
6
CONTINUOUS
10
88.5136
20
-161.154
11
88.6564
21
-161.725
0
LINE
8
BLACK
6
CONTINUOUS
10
88.6564
20
-161.725
11
88.6564
21
-162.439
0
LINE
8
BLACK
6
CONTINUOUS
10
88.6564
20
-162.439
11
88.5136
21
-163.011
0
LINE
8
BLACK
6
CONTINUOUS
10
88.5136
20
-163.011
11
88.3707
21
-163.296
0
LINE
8
BLACK
6
CONTINUOUS
10
88.3707
20
-163.296
11
88.2279
21
-163.439
0
LINE
8
BLACK
6
CONTINUOUS
10
88.2279
20
-163.439
11
87.9421
21
-163.582
0
LINE
8
BLACK
6
CONTINUOUS
10
87.9421
20
-163.582
11
87.6564
21
-163.582
0
LINE
8
BLACK
6
CONTINUOUS
10
87.6564
20
-163.582
11
87.3707
21
-163.439
0
LINE
8
BLACK
6
CONTINUOUS
10
87.3707
20
-163.439
11
87.2279
21
-163.296
0
LINE
8
BLACK
6
CONTINUOUS
10
87.2279
20
-163.296
11
87.085
21
-163.011
0
LINE
8
BLACK
6
CONTINUOUS
10
87.085
20
-163.011
11
86.9421
21
-162.439
0
LINE
8
BLACK
6
CONTINUOUS
10
86.9421
20
-162.439
11
86.9421
21
-161.725
0
LINE
8
BLACK
6
CONTINUOUS
10
86.9421
20
-161.725
11
87.085
21
-161.154
0
LINE
8
BLACK
6
CONTINUOUS
10
87.085
20
-161.154
11
87.2279
21
-160.868
0
LINE
8
BLACK
6
CONTINUOUS
10
87.2279
20
-160.868
11
87.3707
21
-160.725
0
LINE
8
BLACK
6
CONTINUOUS
10
87.3707
20
-160.725
11
87.6564
21
-160.582
0
LINE
8
BLACK
6
CONTINUOUS
10
90.5136
20
-160.582
11
90.7993
21
-160.582
0
LINE
8
BLACK
6
CONTINUOUS
10
90.7993
20
-160.582
11
91.085
21
-160.725
0
LINE
8
BLACK
6
CONTINUOUS
10
91.085
20
-160.725
11
91.2279
21
-160.868
0
LINE
8
BLACK
6
CONTINUOUS
10
91.2279
20
-160.868
11
91.3707
21
-161.154
0
LINE
8
BLACK
6
CONTINUOUS
10
91.3707
20
-161.154
11
91.5136
21
-161.725
0
LINE
8
BLACK
6
CONTINUOUS
10
91.5136
20
-161.725
11
91.5136
21
-162.439
0
LINE
8
BLACK
6
CONTINUOUS
10
91.5136
20
-162.439
11
91.3707
21
-163.011
0
LINE
8
BLACK
6
CONTINUOUS
10
91.3707
20
-163.011
11
91.2279
21
-163.296
0
LINE
8
BLACK
6
CONTINUOUS
10
91.2279
20
-163.296
11
91.085
21
-163.439
0
LINE
8
BLACK
6
CONTINUOUS
10
91.085
20
-163.439
11
90.7993
21
-163.582
0
LINE
8
BLACK
6
CONTINUOUS
10
90.7993
20
-163.582
11
90.5136
21
-163.582
0
LINE
8
BLACK
6
CONTINUOUS
10
90.5136
20
-163.582
11
90.2279
21
-163.439
0
LINE
8
BLACK
6
CONTINUOUS
10
90.2279
20
-163.439
11
90.085
21
-163.296
0
LINE
8
BLACK
6
CONTINUOUS
10
90.085
20
-163.296
11
89.9421
21
-163.011
0
LINE
8
BLACK
6
CONTINUOUS
10
89.9421
20
-163.011
11
89.7993
21
-162.439
0
LINE
8
BLACK
6
CONTINUOUS
10
89.7993
20
-162.439
11
89.7993
21
-161.725
0
LINE
8
BLACK
6
CONTINUOUS
10
89.7993
20
-161.725
11
89.9421
21
-161.154
0
LINE
8
BLACK
6
CONTINUOUS
10
89.9421
20
-161.154
11
90.085
21
-160.868
0
LINE
8
BLACK
6
CONTINUOUS
10
90.085
20
-160.868
11
90.2279
21
-160.725
0
LINE
8
BLACK
6
CONTINUOUS
10
90.2279
20
-160.725
11
90.5136
21
-160.582
0
LINE
8
BLACK
6
CONTINUOUS
10
92.7993
20
-163.582
11
92.7993
21
-161.582
0
LINE
8
BLACK
6
CONTINUOUS
10
92.7993
20
-161.868
11
92.9421
21
-161.725
0
LINE
8
BLACK
6
CONTINUOUS
10
92.9421
20
-161.725
11
93.2279
21
-161.582
0
LINE
8
BLACK
6
CONTINUOUS
10
93.2279
20
-161.582
11
93.6564
21
-161.582
0
LINE
8
BLACK
6
CONTINUOUS
10
93.6564
20
-161.582
11
93.9421
21
-161.725
0
LINE
8
BLACK
6
CONTINUOUS
10
93.9421
20
-161.725
11
94.085
21
-162.011
0
LINE
8
BLACK
6
CONTINUOUS
10
94.085
20
-162.011
11
94.085
21
-163.582
0
LINE
8
BLACK
6
CONTINUOUS
10
94.085
20
-162.011
11
94.2279
21
-161.725
0
LINE
8
BLACK
6
CONTINUOUS
10
94.2279
20
-161.725
11
94.5136
21
-161.582
0
LINE
8
BLACK
6
CONTINUOUS
10
94.5136
20
-161.582
11
94.9421
21
-161.582
0
LINE
8
BLACK
6
CONTINUOUS
10
94.9421
20
-161.582
11
95.2279
21
-161.725
0
LINE
8
BLACK
6
CONTINUOUS
10
95.2279
20
-161.725
11
95.3707
21
-162.011
0
LINE
8
BLACK
6
CONTINUOUS
10
95.3707
20
-162.011
11
95.3707
21
-163.582
0
LINE
8
BLACK
6
CONTINUOUS
10
96.7993
20
-163.582
11
96.7993
21
-161.582
0
LINE
8
BLACK
6
CONTINUOUS
10
96.7993
20
-161.868
11
96.9421
21
-161.725
0
LINE
8
BLACK
6
CONTINUOUS
10
96.9421
20
-161.725
11
97.2279
21
-161.582
0
LINE
8
BLACK
6
CONTINUOUS
10
97.2279
20
-161.582
11
97.6564
21
-161.582
0
LINE
8
BLACK
6
CONTINUOUS
10
97.6564
20
-161.582
11
97.9421
21
-161.725
0
LINE
8
BLACK
6
CONTINUOUS
10
97.9421
20
-161.725
11
98.085
21
-162.011
0
LINE
8
BLACK
6
CONTINUOUS
10
98.085
20
-162.011
11
98.085
21
-163.582
0
LINE
8
BLACK
6
CONTINUOUS
10
98.085
20
-162.011
11
98.2279
21
-161.725
0
LINE
8
BLACK
6
CONTINUOUS
10
98.2279
20
-161.725
11
98.5136
21
-161.582
0
LINE
8
BLACK
6
CONTINUOUS
10
98.5136
20
-161.582
11
98.9421
21
-161.582
0
LINE
8
BLACK
6
CONTINUOUS
10
98.9421
20
-161.582
11
99.2279
21
-161.725
0
LINE
8
BLACK
6
CONTINUOUS
10
99.2279
20
-161.725
11
99.3707
21
-162.011
0
LINE
8
BLACK
6
CONTINUOUS
10
99.3707
20
-162.011
11
99.3707
21
-163.582
0
LINE
8
BLACK
6
CONTINUOUS
10
105.228
20
-160.439
11
102.656
21
-164.296
0
LINE
8
BLACK
6
CONTINUOUS
10
109.085
20
-160.582
11
109.371
21
-160.582
0
LINE
8
BLACK
6
CONTINUOUS
10
109.371
20
-160.582
11
109.656
21
-160.725
0
LINE
8
BLACK
6
CONTINUOUS
10
109.656
20
-160.725
11
109.799
21
-160.868
0
LINE
8
BLACK
6
CONTINUOUS
10
109.799
20
-160.868
11
109.942
21
-161.154
0
LINE
8
BLACK
6
CONTINUOUS
10
109.942
20
-161.154
11
110.085
21
-161.725
0
LINE
8
BLACK
6
CONTINUOUS
10
110.085
20
-161.725
11
110.085
21
-162.439
0
LINE
8
BLACK
6
CONTINUOUS
10
110.085
20
-162.439
11
109.942
21
-163.011
0
LINE
8
BLACK
6
CONTINUOUS
10
109.942
20
-163.011
11
109.799
21
-163.296
0
LINE
8
BLACK
6
CONTINUOUS
10
109.799
20
-163.296
11
109.656
21
-163.439
0
LINE
8
BLACK
6
CONTINUOUS
10
109.656
20
-163.439
11
109.371
21
-163.582
0
LINE
8
BLACK
6
CONTINUOUS
10
109.371
20
-163.582
11
109.085
21
-163.582
0
LINE
8
BLACK
6
CONTINUOUS
10
109.085
20
-163.582
11
108.799
21
-163.439
0
LINE
8
BLACK
6
CONTINUOUS
10
108.799
20
-163.439
11
108.656
21
-163.296
0
LINE
8
BLACK
6
CONTINUOUS
10
108.656
20
-163.296
11
108.514
21
-163.011
0
LINE
8
BLACK
6
CONTINUOUS
10
108.514
20
-163.011
11
108.371
21
-162.439
0
LINE
8
BLACK
6
CONTINUOUS
10
108.371
20
-162.439
11
108.371
21
-161.725
0
LINE
8
BLACK
6
CONTINUOUS
10
108.371
20
-161.725
11
108.514
21
-161.154
0
LINE
8
BLACK
6
CONTINUOUS
10
108.514
20
-161.154
11
108.656
21
-160.868
0
LINE
8
BLACK
6
CONTINUOUS
10
108.656
20
-160.868
11
108.799
21
-160.725
0
LINE
8
BLACK
6
CONTINUOUS
10
108.799
20
-160.725
11
109.085
21
-160.582
0
LINE
8
BLACK
6
CONTINUOUS
10
111.371
20
-163.296
11
111.514
21
-163.439
0
LINE
8
BLACK
6
CONTINUOUS
10
111.514
20
-163.439
11
111.371
21
-163.582
0
LINE
8
BLACK
6
CONTINUOUS
10
111.371
20
-163.582
11
111.228
21
-163.439
0
LINE
8
BLACK
6
CONTINUOUS
10
111.228
20
-163.439
11
111.371
21
-163.296
0
LINE
8
BLACK
6
CONTINUOUS
10
111.371
20
-163.296
11
111.371
21
-163.582
0
LINE
8
BLACK
6
CONTINUOUS
10
113.371
20
-160.582
11
113.656
21
-160.582
0
LINE
8
BLACK
6
CONTINUOUS
10
113.656
20
-160.582
11
113.942
21
-160.725
0
LINE
8
BLACK
6
CONTINUOUS
10
113.942
20
-160.725
11
114.085
21
-160.868
0
LINE
8
BLACK
6
CONTINUOUS
10
114.085
20
-160.868
11
114.228
21
-161.154
0
LINE
8
BLACK
6
CONTINUOUS
10
114.228
20
-161.154
11
114.371
21
-161.725
0
LINE
8
BLACK
6
CONTINUOUS
10
114.371
20
-161.725
11
114.371
21
-162.439
0
LINE
8
BLACK
6
CONTINUOUS
10
114.371
20
-162.439
11
114.228
21
-163.011
0
LINE
8
BLACK
6
CONTINUOUS
10
114.228
20
-163.011
11
114.085
21
-163.296
0
LINE
8
BLACK
6
CONTINUOUS
10
114.085
20
-163.296
11
113.942
21
-163.439
0
LINE
8
BLACK
6
CONTINUOUS
10
113.942
20
-163.439
11
113.656
21
-163.582
0
LINE
8
BLACK
6
CONTINUOUS
10
113.656
20
-163.582
11
113.371
21
-163.582
0
LINE
8
BLACK
6
CONTINUOUS
10
113.371
20
-163.582
11
113.085
21
-163.439
0
LINE
8
BLACK
6
CONTINUOUS
10
113.085
20
-163.439
11
112.942
21
-163.296
0
LINE
8
BLACK
6
CONTINUOUS
10
112.942
20
-163.296
11
112.799
21
-163.011
0
LINE
8
BLACK
6
CONTINUOUS
10
112.799
20
-163.011
11
112.656
21
-162.439
0
LINE
8
BLACK
6
CONTINUOUS
10
112.656
20
-162.439
11
112.656
21
-161.725
0
LINE
8
BLACK
6
CONTINUOUS
10
112.656
20
-161.725
11
112.799
21
-161.154
0
LINE
8
BLACK
6
CONTINUOUS
10
112.799
20
-161.154
11
112.942
21
-160.868
0
LINE
8
BLACK
6
CONTINUOUS
10
112.942
20
-160.868
11
113.085
21
-160.725
0
LINE
8
BLACK
6
CONTINUOUS
10
113.085
20
-160.725
11
113.371
21
-160.582
0
LINE
8
BLACK
6
CONTINUOUS
10
115.371
20
-160.582
11
117.228
21
-160.582
0
LINE
8
BLACK
6
CONTINUOUS
10
117.228
20
-160.582
11
116.228
21
-161.725
0
LINE
8
BLACK
6
CONTINUOUS
10
116.228
20
-161.725
11
116.656
21
-161.725
0
LINE
8
BLACK
6
CONTINUOUS
10
116.656
20
-161.725
11
116.942
21
-161.868
0
LINE
8
BLACK
6
CONTINUOUS
10
116.942
20
-161.868
11
117.085
21
-162.011
0
LINE
8
BLACK
6
CONTINUOUS
10
117.085
20
-162.011
11
117.228
21
-162.296
0
LINE
8
BLACK
6
CONTINUOUS
10
117.228
20
-162.296
11
117.228
21
-163.011
0
LINE
8
BLACK
6
CONTINUOUS
10
117.228
20
-163.011
11
117.085
21
-163.296
0
LINE
8
BLACK
6
CONTINUOUS
10
117.085
20
-163.296
11
116.942
21
-163.439
0
LINE
8
BLACK
6
CONTINUOUS
10
116.942
20
-163.439
11
116.656
21
-163.582
0
LINE
8
BLACK
6
CONTINUOUS
10
116.656
20
-163.582
11
115.799
21
-163.582
0
LINE
8
BLACK
6
CONTINUOUS
10
115.799
20
-163.582
11
115.514
21
-163.439
0
LINE
8
BLACK
6
CONTINUOUS
10
115.514
20
-163.439
11
115.371
21
-163.296
0
LINE
8
BLACK
6
CONTINUOUS
10
118.656
20
-163.582
11
119.228
21
-163.582
0
LINE
8
BLACK
6
CONTINUOUS
10
119.228
20
-163.582
11
119.514
21
-163.439
0
LINE
8
BLACK
6
CONTINUOUS
10
119.514
20
-163.439
11
119.656
21
-163.296
0
LINE
8
BLACK
6
CONTINUOUS
10
119.656
20
-163.296
11
119.942
21
-162.868
0
LINE
8
BLACK
6
CONTINUOUS
10
119.942
20
-162.868
11
120.085
21
-162.296
0
LINE
8
BLACK
6
CONTINUOUS
10
120.085
20
-162.296
11
120.085
21
-161.154
0
LINE
8
BLACK
6
CONTINUOUS
10
120.085
20
-161.154
11
119.942
21
-160.868
0
LINE
8
BLACK
6
CONTINUOUS
10
119.942
20
-160.868
11
119.799
21
-160.725
0
LINE
8
BLACK
6
CONTINUOUS
10
119.799
20
-160.725
11
119.514
21
-160.582
0
LINE
8
BLACK
6
CONTINUOUS
10
119.514
20
-160.582
11
118.942
21
-160.582
0
LINE
8
BLACK
6
CONTINUOUS
10
118.942
20
-160.582
11
118.656
21
-160.725
0
LINE
8
BLACK
6
CONTINUOUS
10
118.656
20
-160.725
11
118.514
21
-160.868
0
LINE
8
BLACK
6
CONTINUOUS
10
118.514
20
-160.868
11
118.371
21
-161.154
0
LINE
8
BLACK
6
CONTINUOUS
10
118.371
20
-161.154
11
118.371
21
-161.868
0
LINE
8
BLACK
6
CONTINUOUS
10
118.371
20
-161.868
11
118.514
21
-162.154
0
LINE
8
BLACK
6
CONTINUOUS
10
118.514
20
-162.154
11
118.656
21
-162.296
0
LINE
8
BLACK
6
CONTINUOUS
10
118.656
20
-162.296
11
118.942
21
-162.439
0
LINE
8
BLACK
6
CONTINUOUS
10
118.942
20
-162.439
11
119.514
21
-162.439
0
LINE
8
BLACK
6
CONTINUOUS
10
119.514
20
-162.439
11
119.799
21
-162.296
0
LINE
8
BLACK
6
CONTINUOUS
10
119.799
20
-162.296
11
119.942
21
-162.154
0
LINE
8
BLACK
6
CONTINUOUS
10
119.942
20
-162.154
11
120.085
21
-161.868
0
LINE
8
BLACK
6
CONTINUOUS
10
121.228
20
-160.582
11
121.228
21
-161.154
0
LINE
8
BLACK
6
CONTINUOUS
10
122.371
20
-160.582
11
122.371
21
-161.154
0
LINE
8
BLACK
6
CONTINUOUS
10
126.799
20
-164.725
11
126.656
21
-164.582
0
LINE
8
BLACK
6
CONTINUOUS
10
126.656
20
-164.582
11
126.371
21
-164.154
0
LINE
8
BLACK
6
CONTINUOUS
10
126.371
20
-164.154
11
126.228
21
-163.868
0
LINE
8
BLACK
6
CONTINUOUS
10
126.228
20
-163.868
11
126.085
21
-163.439
0
LINE
8
BLACK
6
CONTINUOUS
10
126.085
20
-163.439
11
125.942
21
-162.725
0
LINE
8
BLACK
6
CONTINUOUS
10
125.942
20
-162.725
11
125.942
21
-162.154
0
LINE
8
BLACK
6
CONTINUOUS
10
125.942
20
-162.154
11
126.085
21
-161.439
0
LINE
8
BLACK
6
CONTINUOUS
10
126.085
20
-161.439
11
126.228
21
-161.011
0
LINE
8
BLACK
6
CONTINUOUS
10
126.228
20
-161.011
11
126.371
21
-160.725
0
LINE
8
BLACK
6
CONTINUOUS
10
126.371
20
-160.725
11
126.656
21
-160.296
0
LINE
8
BLACK
6
CONTINUOUS
10
126.656
20
-160.296
11
126.799
21
-160.154
0
LINE
8
BLACK
6
CONTINUOUS
10
127.799
20
-160.868
11
127.942
21
-160.725
0
LINE
8
BLACK
6
CONTINUOUS
10
127.942
20
-160.725
11
128.228
21
-160.582
0
LINE
8
BLACK
6
CONTINUOUS
10
128.228
20
-160.582
11
128.942
21
-160.582
0
LINE
8
BLACK
6
CONTINUOUS
10
128.942
20
-160.582
11
129.228
21
-160.725
0
LINE
8
BLACK
6
CONTINUOUS
10
129.228
20
-160.725
11
129.371
21
-160.868
0
LINE
8
BLACK
6
CONTINUOUS
10
129.371
20
-160.868
11
129.514
21
-161.154
0
LINE
8
BLACK
6
CONTINUOUS
10
129.514
20
-161.154
11
129.514
21
-161.439
0
LINE
8
BLACK
6
CONTINUOUS
10
129.514
20
-161.439
11
129.371
21
-161.868
0
LINE
8
BLACK
6
CONTINUOUS
10
129.371
20
-161.868
11
127.656
21
-163.582
0
LINE
8
BLACK
6
CONTINUOUS
10
127.656
20
-163.582
11
129.514
21
-163.582
0
LINE
8
BLACK
6
CONTINUOUS
10
130.942
20
-163.582
11
131.514
21
-163.582
0
LINE
8
BLACK
6
CONTINUOUS
10
131.514
20
-163.582
11
131.799
21
-163.439
0
LINE
8
BLACK
6
CONTINUOUS
10
131.799
20
-163.439
11
131.942
21
-163.296
0
LINE
8
BLACK
6
CONTINUOUS
10
131.942
20
-163.296
11
132.228
21
-162.868
0
LINE
8
BLACK
6
CONTINUOUS
10
132.228
20
-162.868
11
132.371
21
-162.296
0
LINE
8
BLACK
6
CONTINUOUS
10
132.371
20
-162.296
11
132.371
21
-161.154
0
LINE
8
BLACK
6
CONTINUOUS
10
132.371
20
-161.154
11
132.228
21
-160.868
0
LINE
8
BLACK
6
CONTINUOUS
10
132.228
20
-160.868
11
132.085
21
-160.725
0
LINE
8
BLACK
6
CONTINUOUS
10
132.085
20
-160.725
11
131.799
21
-160.582
0
LINE
8
BLACK
6
CONTINUOUS
10
131.799
20
-160.582
11
131.228
21
-160.582
0
LINE
8
BLACK
6
CONTINUOUS
10
131.228
20
-160.582
11
130.942
21
-160.725
0
LINE
8
BLACK
6
CONTINUOUS
10
130.942
20
-160.725
11
130.799
21
-160.868
0
LINE
8
BLACK
6
CONTINUOUS
10
130.799
20
-160.868
11
130.656
21
-161.154
0
LINE
8
BLACK
6
CONTINUOUS
10
130.656
20
-161.154
11
130.656
21
-161.868
0
LINE
8
BLACK
6
CONTINUOUS
10
130.656
20
-161.868
11
130.799
21
-162.154
0
LINE
8
BLACK
6
CONTINUOUS
10
130.799
20
-162.154
11
130.942
21
-162.296
0
LINE
8
BLACK
6
CONTINUOUS
10
130.942
20
-162.296
11
131.228
21
-162.439
0
LINE
8
BLACK
6
CONTINUOUS
10
131.228
20
-162.439
11
131.799
21
-162.439
0
LINE
8
BLACK
6
CONTINUOUS
10
131.799
20
-162.439
11
132.085
21
-162.296
0
LINE
8
BLACK
6
CONTINUOUS
10
132.085
20
-162.296
11
132.228
21
-162.154
0
LINE
8
BLACK
6
CONTINUOUS
10
132.228
20
-162.154
11
132.371
21
-161.868
0
LINE
8
BLACK
6
CONTINUOUS
10
135.942
20
-163.582
11
135.942
21
-160.582
0
LINE
8
BLACK
6
CONTINUOUS
10
137.228
20
-163.582
11
137.228
21
-162.011
0
LINE
8
BLACK
6
CONTINUOUS
10
137.228
20
-162.011
11
137.085
21
-161.725
0
LINE
8
BLACK
6
CONTINUOUS
10
137.085
20
-161.725
11
136.799
21
-161.582
0
LINE
8
BLACK
6
CONTINUOUS
10
136.799
20
-161.582
11
136.371
21
-161.582
0
LINE
8
BLACK
6
CONTINUOUS
10
136.371
20
-161.582
11
136.085
21
-161.725
0
LINE
8
BLACK
6
CONTINUOUS
10
136.085
20
-161.725
11
135.942
21
-161.868
0
LINE
8
BLACK
6
CONTINUOUS
10
139.085
20
-163.582
11
138.799
21
-163.439
0
LINE
8
BLACK
6
CONTINUOUS
10
138.799
20
-163.439
11
138.656
21
-163.296
0
LINE
8
BLACK
6
CONTINUOUS
10
138.656
20
-163.296
11
138.514
21
-163.011
0
LINE
8
BLACK
6
CONTINUOUS
10
138.514
20
-163.011
11
138.514
21
-162.154
0
LINE
8
BLACK
6
CONTINUOUS
10
138.514
20
-162.154
11
138.656
21
-161.868
0
LINE
8
BLACK
6
CONTINUOUS
10
138.656
20
-161.868
11
138.799
21
-161.725
0
LINE
8
BLACK
6
CONTINUOUS
10
138.799
20
-161.725
11
139.085
21
-161.582
0
LINE
8
BLACK
6
CONTINUOUS
10
139.085
20
-161.582
11
139.514
21
-161.582
0
LINE
8
BLACK
6
CONTINUOUS
10
139.514
20
-161.582
11
139.799
21
-161.725
0
LINE
8
BLACK
6
CONTINUOUS
10
139.799
20
-161.725
11
139.942
21
-161.868
0
LINE
8
BLACK
6
CONTINUOUS
10
139.942
20
-161.868
11
140.085
21
-162.154
0
LINE
8
BLACK
6
CONTINUOUS
10
140.085
20
-162.154
11
140.085
21
-163.011
0
LINE
8
BLACK
6
CONTINUOUS
10
140.085
20
-163.011
11
139.942
21
-163.296
0
LINE
8
BLACK
6
CONTINUOUS
10
139.942
20
-163.296
11
139.799
21
-163.439
0
LINE
8
BLACK
6
CONTINUOUS
10
139.799
20
-163.439
11
139.514
21
-163.582
0
LINE
8
BLACK
6
CONTINUOUS
10
139.514
20
-163.582
11
139.085
21
-163.582
0
LINE
8
BLACK
6
CONTINUOUS
10
141.799
20
-163.582
11
141.514
21
-163.439
0
LINE
8
BLACK
6
CONTINUOUS
10
141.514
20
-163.439
11
141.371
21
-163.154
0
LINE
8
BLACK
6
CONTINUOUS
10
141.371
20
-163.154
11
141.371
21
-160.582
0
LINE
8
BLACK
6
CONTINUOUS
10
144.085
20
-163.439
11
143.799
21
-163.582
0
LINE
8
BLACK
6
CONTINUOUS
10
143.799
20
-163.582
11
143.228
21
-163.582
0
LINE
8
BLACK
6
CONTINUOUS
10
143.228
20
-163.582
11
142.942
21
-163.439
0
LINE
8
BLACK
6
CONTINUOUS
10
142.942
20
-163.439
11
142.799
21
-163.154
0
LINE
8
BLACK
6
CONTINUOUS
10
142.799
20
-163.154
11
142.799
21
-162.011
0
LINE
8
BLACK
6
CONTINUOUS
10
142.799
20
-162.011
11
142.942
21
-161.725
0
LINE
8
BLACK
6
CONTINUOUS
10
142.942
20
-161.725
11
143.228
21
-161.582
0
LINE
8
BLACK
6
CONTINUOUS
10
143.228
20
-161.582
11
143.799
21
-161.582
0
LINE
8
BLACK
6
CONTINUOUS
10
143.799
20
-161.582
11
144.085
21
-161.725
0
LINE
8
BLACK
6
CONTINUOUS
10
144.085
20
-161.725
11
144.228
21
-162.011
0
LINE
8
BLACK
6
CONTINUOUS
10
144.228
20
-162.011
11
144.228
21
-162.296
0
LINE
8
BLACK
6
CONTINUOUS
10
144.228
20
-162.296
11
142.799
21
-162.582
0
LINE
8
BLACK
6
CONTINUOUS
10
145.371
20
-163.439
11
145.656
21
-163.582
0
LINE
8
BLACK
6
CONTINUOUS
10
145.656
20
-163.582
11
146.228
21
-163.582
0
LINE
8
BLACK
6
CONTINUOUS
10
146.228
20
-163.582
11
146.514
21
-163.439
0
LINE
8
BLACK
6
CONTINUOUS
10
146.514
20
-163.439
11
146.656
21
-163.154
0
LINE
8
BLACK
6
CONTINUOUS
10
146.656
20
-163.154
11
146.656
21
-163.011
0
LINE
8
BLACK
6
CONTINUOUS
10
146.656
20
-163.011
11
146.514
21
-162.725
0
LINE
8
BLACK
6
CONTINUOUS
10
146.514
20
-162.725
11
146.228
21
-162.582
0
LINE
8
BLACK
6
CONTINUOUS
10
146.228
20
-162.582
11
145.799
21
-162.582
0
LINE
8
BLACK
6
CONTINUOUS
10
145.799
20
-162.582
11
145.514
21
-162.439
0
LINE
8
BLACK
6
CONTINUOUS
10
145.514
20
-162.439
11
145.371
21
-162.154
0
LINE
8
BLACK
6
CONTINUOUS
10
145.371
20
-162.154
11
145.371
21
-162.011
0
LINE
8
BLACK
6
CONTINUOUS
10
145.371
20
-162.011
11
145.514
21
-161.725
0
LINE
8
BLACK
6
CONTINUOUS
10
145.514
20
-161.725
11
145.799
21
-161.582
0
LINE
8
BLACK
6
CONTINUOUS
10
145.799
20
-161.582
11
146.228
21
-161.582
0
LINE
8
BLACK
6
CONTINUOUS
10
146.228
20
-161.582
11
146.514
21
-161.725
0
LINE
8
BLACK
6
CONTINUOUS
10
147.656
20
-164.725
11
147.799
21
-164.582
0
LINE
8
BLACK
6
CONTINUOUS
10
147.799
20
-164.582
11
148.085
21
-164.154
0
LINE
8
BLACK
6
CONTINUOUS
10
148.085
20
-164.154
11
148.228
21
-163.868
0
LINE
8
BLACK
6
CONTINUOUS
10
148.228
20
-163.868
11
148.371
21
-163.439
0
LINE
8
BLACK
6
CONTINUOUS
10
148.371
20
-163.439
11
148.514
21
-162.725
0
LINE
8
BLACK
6
CONTINUOUS
10
148.514
20
-162.725
11
148.514
21
-162.154
0
LINE
8
BLACK
6
CONTINUOUS
10
148.514
20
-162.154
11
148.371
21
-161.439
0
LINE
8
BLACK
6
CONTINUOUS
10
148.371
20
-161.439
11
148.228
21
-161.011
0
LINE
8
BLACK
6
CONTINUOUS
10
148.228
20
-161.011
11
148.085
21
-160.725
0
LINE
8
BLACK
6
CONTINUOUS
10
148.085
20
-160.725
11
147.799
21
-160.296
0
LINE
8
BLACK
6
CONTINUOUS
10
147.799
20
-160.296
11
147.656
21
-160.154
  0
ENDSEC
  0
EOF
