%TF.GenerationSoftware,KiCad,Pcbnew,(5.1.9)-1*%
%TF.CreationDate,2021-07-11T13:39:40+02:00*%
%TF.ProjectId,TinyFPGA-A,54696e79-4650-4474-912d-412e6b696361,rev?*%
%TF.SameCoordinates,Original*%
%TF.FileFunction,Copper,L1,Top*%
%TF.FilePolarity,Positive*%
%FSLAX46Y46*%
G04 Gerber Fmt 4.6, Leading zero omitted, Abs format (unit mm)*
G04 Created by KiCad (PCBNEW (5.1.9)-1) date 2021-07-11 13:39:40*
%MOMM*%
%LPD*%
G01*
G04 APERTURE LIST*
%TA.AperFunction,ComponentPad*%
%ADD10C,1.700000*%
%TD*%
%TA.AperFunction,ComponentPad*%
%ADD11O,1.700000X1.700000*%
%TD*%
%TA.AperFunction,ComponentPad*%
%ADD12R,1.700000X1.700000*%
%TD*%
%TA.AperFunction,SMDPad,CuDef*%
%ADD13O,0.240000X0.700000*%
%TD*%
%TA.AperFunction,SMDPad,CuDef*%
%ADD14O,0.700000X0.240000*%
%TD*%
%TA.AperFunction,SMDPad,CuDef*%
%ADD15R,1.170000X1.170000*%
%TD*%
%TA.AperFunction,SMDPad,CuDef*%
%ADD16R,0.800000X0.750000*%
%TD*%
%TA.AperFunction,SMDPad,CuDef*%
%ADD17R,0.750000X0.800000*%
%TD*%
%TA.AperFunction,SMDPad,CuDef*%
%ADD18R,0.500000X0.900000*%
%TD*%
%TA.AperFunction,SMDPad,CuDef*%
%ADD19R,0.900000X0.500000*%
%TD*%
%TA.AperFunction,ViaPad*%
%ADD20C,0.609600*%
%TD*%
%TA.AperFunction,Conductor*%
%ADD21C,0.508000*%
%TD*%
%TA.AperFunction,Conductor*%
%ADD22C,0.254000*%
%TD*%
%TA.AperFunction,Conductor*%
%ADD23C,0.025400*%
%TD*%
%TA.AperFunction,Conductor*%
%ADD24C,0.100000*%
%TD*%
G04 APERTURE END LIST*
D10*
%TO.P,J3,1*%
%TO.N,/TMS*%
X83820000Y-147320000D03*
D11*
%TO.P,J3,2*%
%TO.N,/TCK*%
X86360000Y-147320000D03*
%TO.P,J3,3*%
%TO.N,/TDI*%
X88900000Y-147320000D03*
%TO.P,J3,4*%
%TO.N,GND*%
X91440000Y-147320000D03*
%TO.P,J3,5*%
%TO.N,/TDO*%
X93980000Y-147320000D03*
%TD*%
%TO.P,J2,12*%
%TO.N,/TDO*%
X96520000Y-147320000D03*
%TO.P,J2,11*%
%TO.N,/TDI*%
X96520000Y-144780000D03*
%TO.P,J2,10*%
%TO.N,/TCK*%
X96520000Y-142240000D03*
%TO.P,J2,9*%
%TO.N,/TMS*%
X96520000Y-139700000D03*
%TO.P,J2,8*%
%TO.N,/PL9A_PCLKT3_0*%
X96520000Y-137160000D03*
%TO.P,J2,7*%
%TO.N,/PL9B_PCLKC3_0*%
X96520000Y-134620000D03*
%TO.P,J2,6*%
%TO.N,/PB4C/CS*%
X96520000Y-132080000D03*
%TO.P,J2,5*%
%TO.N,/PB6C/SCLK*%
X96520000Y-129540000D03*
%TO.P,J2,4*%
%TO.N,/PB6D/MISO*%
X96520000Y-127000000D03*
%TO.P,J2,3*%
%TO.N,/PB9A_PCLKT2_0*%
X96520000Y-124460000D03*
%TO.P,J2,2*%
%TO.N,/PB9B_PCLKC2_0*%
X96520000Y-121920000D03*
D10*
%TO.P,J2,1*%
%TO.N,/EXT3v3*%
X96520000Y-119380000D03*
%TD*%
D12*
%TO.P,J1,1*%
%TO.N,GND*%
X81280000Y-119380000D03*
D11*
%TO.P,J1,2*%
%TO.N,/PB11A_PCLKT2_1*%
X81280000Y-121920000D03*
%TO.P,J1,3*%
%TO.N,/PB11B_PCLKC2_1*%
X81280000Y-124460000D03*
%TO.P,J1,4*%
%TO.N,/PB20C_SN*%
X81280000Y-127000000D03*
%TO.P,J1,5*%
%TO.N,/PB20D_MOSI*%
X81280000Y-129540000D03*
%TO.P,J1,6*%
%TO.N,/PR5D_PCLKC1_0*%
X81280000Y-132080000D03*
%TO.P,J1,7*%
%TO.N,/PR5C_PCLKT1_0*%
X81280000Y-134620000D03*
%TO.P,J1,8*%
%TO.N,/PT17D_DONE*%
X81280000Y-137160000D03*
%TO.P,J1,9*%
%TO.N,/PT15D_PROGRAMN*%
X81280000Y-139700000D03*
%TO.P,J1,10*%
%TO.N,/PT15C_JTAGENB*%
X81280000Y-142240000D03*
%TO.P,J1,11*%
%TO.N,/PT12D_SDA*%
X81280000Y-144780000D03*
%TO.P,J1,12*%
%TO.N,/PT12C_SCL*%
X81280000Y-147320000D03*
%TD*%
D13*
%TO.P,U1,32*%
%TO.N,/TDI*%
X90650000Y-135405500D03*
%TO.P,U1,31*%
%TO.N,+3V3*%
X90150000Y-135405500D03*
%TO.P,U1,30*%
%TO.N,/TCK*%
X89650000Y-135405500D03*
%TO.P,U1,29*%
%TO.N,/TMS*%
X89150000Y-135405500D03*
%TO.P,U1,28*%
%TO.N,/PT12C_SCL*%
X88650000Y-135405500D03*
%TO.P,U1,27*%
%TO.N,/PT12D_SDA*%
X88150000Y-135405500D03*
%TO.P,U1,26*%
%TO.N,/PT15C_JTAGENB*%
X87650000Y-135405500D03*
%TO.P,U1,25*%
%TO.N,/PT15D_PROGRAMN*%
X87150000Y-135405500D03*
D14*
%TO.P,U1,24*%
%TO.N,+3V3*%
X86400000Y-134655500D03*
%TO.P,U1,23*%
%TO.N,/PT17D_DONE*%
X86400000Y-134155500D03*
%TO.P,U1,22*%
%TO.N,GND*%
X86400000Y-133655500D03*
%TO.P,U1,21*%
%TO.N,/PR5C_PCLKT1_0*%
X86400000Y-133155500D03*
%TO.P,U1,20*%
%TO.N,/PR5D_PCLKC1_0*%
X86400000Y-132655500D03*
%TO.P,U1,19*%
%TO.N,+3V3*%
X86400000Y-132155500D03*
%TO.P,U1,18*%
X86400000Y-131655500D03*
%TO.P,U1,17*%
%TO.N,/PB20D_MOSI*%
X86400000Y-131155500D03*
D13*
%TO.P,U1,16*%
%TO.N,/PB20C_SN*%
X87150000Y-130405500D03*
%TO.P,U1,15*%
%TO.N,+3V3*%
X87650000Y-130405500D03*
%TO.P,U1,14*%
%TO.N,/PB11B_PCLKC2_1*%
X88150000Y-130405500D03*
%TO.P,U1,13*%
%TO.N,/PB11A_PCLKT2_1*%
X88650000Y-130405500D03*
%TO.P,U1,12*%
%TO.N,/PB9B_PCLKC2_0*%
X89150000Y-130405500D03*
%TO.P,U1,11*%
%TO.N,/PB9A_PCLKT2_0*%
X89650000Y-130405500D03*
%TO.P,U1,10*%
%TO.N,/PB6D/MISO*%
X90150000Y-130405500D03*
%TO.P,U1,9*%
%TO.N,/PB6C/SCLK*%
X90650000Y-130405500D03*
D14*
%TO.P,U1,8*%
%TO.N,/PB4C/CS*%
X91400000Y-131155500D03*
%TO.P,U1,7*%
%TO.N,+3V3*%
X91400000Y-131655500D03*
%TO.P,U1,6*%
X91400000Y-132155500D03*
%TO.P,U1,5*%
%TO.N,/PL9B_PCLKC3_0*%
X91400000Y-132655500D03*
%TO.P,U1,4*%
%TO.N,/PL9A_PCLKT3_0*%
X91400000Y-133155500D03*
%TO.P,U1,3*%
%TO.N,GND*%
X91400000Y-133655500D03*
%TO.P,U1,2*%
%TO.N,+3V3*%
X91400000Y-134155500D03*
%TO.P,U1,1*%
%TO.N,/TDO*%
X91400000Y-134655500D03*
D15*
%TO.P,U1,33*%
%TO.N,GND*%
X89600000Y-133605500D03*
X88200000Y-132205500D03*
X88200000Y-133605500D03*
X89600000Y-132205500D03*
%TD*%
D16*
%TO.P,C2,1*%
%TO.N,/EXT3v3*%
X89650000Y-121285000D03*
%TO.P,C2,2*%
%TO.N,GND*%
X88150000Y-121285000D03*
%TD*%
D17*
%TO.P,C4,1*%
%TO.N,+3V3*%
X83693000Y-131623500D03*
%TO.P,C4,2*%
%TO.N,GND*%
X83693000Y-130123500D03*
%TD*%
D16*
%TO.P,C8,1*%
%TO.N,+3V3*%
X87110000Y-128778000D03*
%TO.P,C8,2*%
%TO.N,GND*%
X85610000Y-128778000D03*
%TD*%
D17*
%TO.P,C9,1*%
%TO.N,+3V3*%
X92659200Y-131623500D03*
%TO.P,C9,2*%
%TO.N,GND*%
X92659200Y-130123500D03*
%TD*%
%TO.P,C10,1*%
%TO.N,+3V3*%
X94056200Y-131623500D03*
%TO.P,C10,2*%
%TO.N,GND*%
X94056200Y-130123500D03*
%TD*%
%TO.P,C11,1*%
%TO.N,+3V3*%
X92710000Y-134187500D03*
%TO.P,C11,2*%
%TO.N,GND*%
X92710000Y-135687500D03*
%TD*%
D18*
%TO.P,R1,1*%
%TO.N,/TCK*%
X91134500Y-138684000D03*
%TO.P,R1,2*%
%TO.N,GND*%
X92634500Y-138684000D03*
%TD*%
D16*
%TO.P,C1,1*%
%TO.N,/EXT3v3*%
X89650000Y-119824500D03*
%TO.P,C1,2*%
%TO.N,GND*%
X88150000Y-119824500D03*
%TD*%
%TO.P,C3,1*%
%TO.N,/EXT3v3*%
X89650000Y-122745500D03*
%TO.P,C3,2*%
%TO.N,GND*%
X88150000Y-122745500D03*
%TD*%
D17*
%TO.P,C5,1*%
%TO.N,+3V3*%
X85090000Y-131623500D03*
%TO.P,C5,2*%
%TO.N,GND*%
X85090000Y-130123500D03*
%TD*%
D16*
%TO.P,C6,1*%
%TO.N,+3V3*%
X91134500Y-137223500D03*
%TO.P,C6,2*%
%TO.N,GND*%
X92634500Y-137223500D03*
%TD*%
D17*
%TO.P,C7,1*%
%TO.N,+3V3*%
X85090000Y-134886000D03*
%TO.P,C7,2*%
%TO.N,GND*%
X85090000Y-136386000D03*
%TD*%
D19*
%TO.P,L1,1*%
%TO.N,+3V3*%
X89662000Y-125591000D03*
%TO.P,L1,2*%
%TO.N,/EXT3v3*%
X89662000Y-124091000D03*
%TD*%
D20*
%TO.N,GND*%
X93662500Y-137223500D03*
X92646500Y-139827000D03*
X86042500Y-136398000D03*
X91630500Y-130111500D03*
X87122000Y-122745500D03*
X87122000Y-121285000D03*
X87122000Y-119824500D03*
X83693000Y-129032000D03*
X86106000Y-130111500D03*
X91313000Y-135318500D03*
X88200000Y-132205500D03*
X89662000Y-132207000D03*
X88200000Y-133605500D03*
X89600000Y-133605500D03*
%TO.N,+3V3*%
X87249000Y-125603000D03*
X86487000Y-127254000D03*
X92202000Y-125603000D03*
X90297000Y-136461500D03*
X84074000Y-134937500D03*
X94932500Y-131635500D03*
X93789500Y-134493000D03*
X84391500Y-132588000D03*
%TO.N,/TDI*%
X91884500Y-143002000D03*
%TO.N,/TCK*%
X91134500Y-142240000D03*
%TO.N,/TMS*%
X89150000Y-141605000D03*
%TD*%
D21*
%TO.N,GND*%
X85102000Y-130111500D02*
X85700000Y-130111500D01*
X85700000Y-130111500D02*
X86106000Y-130111500D01*
X85610000Y-130021500D02*
X85700000Y-130111500D01*
X85610000Y-128778000D02*
X85610000Y-130021500D01*
X92710000Y-135687500D02*
X91682000Y-135687500D01*
X91682000Y-135687500D02*
X91313000Y-135318500D01*
X92634500Y-137223500D02*
X93662500Y-137223500D01*
X92634500Y-138684000D02*
X92634500Y-139815000D01*
X92634500Y-139815000D02*
X92646500Y-139827000D01*
X85090000Y-136386000D02*
X86030500Y-136386000D01*
X86030500Y-136386000D02*
X86042500Y-136398000D01*
X92659200Y-130123500D02*
X91642500Y-130123500D01*
X91642500Y-130123500D02*
X91630500Y-130111500D01*
X88150000Y-122745500D02*
X87122000Y-122745500D01*
X88150000Y-121285000D02*
X87122000Y-121285000D01*
X88150000Y-119824500D02*
X87122000Y-119824500D01*
X83693000Y-130123500D02*
X83693000Y-129032000D01*
X83693000Y-130123500D02*
X85090000Y-130123500D01*
X92710000Y-135687500D02*
X92595000Y-135687500D01*
X92634500Y-135763000D02*
X92710000Y-135687500D01*
X91428000Y-147308000D02*
X91440000Y-147320000D01*
X94056200Y-130123500D02*
X92659200Y-130123500D01*
X86118000Y-130099500D02*
X86106000Y-130111500D01*
X92634500Y-137223500D02*
X92519500Y-137108500D01*
X85090000Y-130123500D02*
X85102000Y-130111500D01*
D22*
X92710000Y-135814500D02*
X92710000Y-135687500D01*
X91300000Y-133655500D02*
X89875000Y-133655500D01*
X87925000Y-133655500D02*
X88037500Y-133768000D01*
X89875000Y-133655500D02*
X89762500Y-133768000D01*
X86500000Y-133655500D02*
X87925000Y-133655500D01*
%TO.N,+3V3*%
X91400000Y-132155500D02*
X92144500Y-132155500D01*
X92144500Y-132155500D02*
X92300000Y-132000000D01*
X92300000Y-132000000D02*
X92300000Y-131755500D01*
X92300000Y-131755500D02*
X92200000Y-131655500D01*
X92627200Y-131655500D02*
X92200000Y-131655500D01*
X92200000Y-131655500D02*
X91300000Y-131655500D01*
X86500000Y-131655500D02*
X85450000Y-131655500D01*
X85450000Y-131655500D02*
X85122000Y-131655500D01*
X85605500Y-132155500D02*
X85450000Y-132000000D01*
X85450000Y-132000000D02*
X85450000Y-131655500D01*
X86400000Y-132155500D02*
X85605500Y-132155500D01*
D21*
X84391500Y-132588000D02*
X84391500Y-131623500D01*
X89662000Y-125591000D02*
X87261000Y-125591000D01*
X87261000Y-125591000D02*
X87249000Y-125603000D01*
X87110000Y-128778000D02*
X87110000Y-127877000D01*
X87110000Y-127877000D02*
X86487000Y-127254000D01*
D22*
X87122000Y-129373500D02*
X87122000Y-128790000D01*
X87122000Y-128790000D02*
X87110000Y-128778000D01*
X87650000Y-130505500D02*
X87650000Y-129901500D01*
X87650000Y-129901500D02*
X87122000Y-129373500D01*
D21*
X89662000Y-125591000D02*
X92190000Y-125591000D01*
X92190000Y-125591000D02*
X92202000Y-125603000D01*
X91134500Y-137223500D02*
X91059000Y-137223500D01*
X91059000Y-137223500D02*
X90297000Y-136461500D01*
X84074000Y-134937500D02*
X85141500Y-134937500D01*
X85141500Y-134937500D02*
X85153500Y-134949500D01*
X94056200Y-131623500D02*
X94920500Y-131623500D01*
X94920500Y-131623500D02*
X94932500Y-131635500D01*
X92710000Y-134187500D02*
X93484000Y-134187500D01*
X93484000Y-134187500D02*
X93789500Y-134493000D01*
X91134500Y-137223500D02*
X91134500Y-137172000D01*
D22*
X90150000Y-135305500D02*
X90150000Y-136239000D01*
X90150000Y-136239000D02*
X91134500Y-137223500D01*
D21*
X91134500Y-137223500D02*
X91122500Y-137235500D01*
D22*
X86500000Y-134655500D02*
X85447500Y-134655500D01*
X85447500Y-134655500D02*
X85153500Y-134949500D01*
D21*
X84391500Y-131623500D02*
X83693000Y-131623500D01*
D22*
X92659200Y-131623500D02*
X92627200Y-131655500D01*
D21*
X94056200Y-131623500D02*
X92659200Y-131623500D01*
D22*
X92710000Y-134187500D02*
X92722000Y-134175500D01*
X91300000Y-134155500D02*
X92678000Y-134155500D01*
X92678000Y-134155500D02*
X92710000Y-134187500D01*
X92500200Y-131655500D02*
X92659200Y-131496500D01*
D21*
X85090000Y-131623500D02*
X84391500Y-131623500D01*
D22*
X85122000Y-131655500D02*
X85090000Y-131623500D01*
D21*
%TO.N,/EXT3v3*%
X89650000Y-121285000D02*
X89650000Y-122745500D01*
X89650000Y-119824500D02*
X89650000Y-121285000D01*
X96520000Y-119380000D02*
X90094500Y-119380000D01*
X90094500Y-119380000D02*
X89650000Y-119824500D01*
X89650000Y-122745500D02*
X89662000Y-122757500D01*
X89662000Y-122757500D02*
X89662000Y-124091000D01*
D22*
%TO.N,/TDO*%
X91300000Y-134655500D02*
X91856500Y-134655500D01*
X92138500Y-134937500D02*
X93345000Y-134937500D01*
X91856500Y-134655500D02*
X92138500Y-134937500D01*
X93345000Y-134937500D02*
X94829999Y-136422499D01*
X94829999Y-136422499D02*
X94829999Y-146470001D01*
X94829999Y-146470001D02*
X93980000Y-147320000D01*
X93980000Y-147320000D02*
X96520000Y-147320000D01*
%TO.N,/TDI*%
X91884500Y-136434500D02*
X91884500Y-142824200D01*
X90650000Y-135405500D02*
X90650000Y-135635500D01*
X91884500Y-142824200D02*
X91884500Y-143002000D01*
X90650000Y-135635500D02*
X91254500Y-136240000D01*
X91254500Y-136240000D02*
X91690000Y-136240000D01*
X91690000Y-136240000D02*
X91884500Y-136434500D01*
X91884500Y-143002000D02*
X91884500Y-143700500D01*
X91884500Y-144335500D02*
X88900000Y-147320000D01*
X91884500Y-143700500D02*
X91884500Y-144335500D01*
%TO.N,/TCK*%
X89650000Y-135305500D02*
X89650000Y-137199500D01*
X91134500Y-141732000D02*
X91134500Y-142240000D01*
X91134500Y-142240000D02*
X91134500Y-142545500D01*
X91122500Y-141732000D02*
X91134500Y-141732000D01*
X91134500Y-138684000D02*
X91134500Y-141732000D01*
X91134500Y-142545500D02*
X86360000Y-147320000D01*
X89650000Y-137199500D02*
X91134500Y-138684000D01*
X86372000Y-147308000D02*
X86360000Y-147320000D01*
%TO.N,/TMS*%
X89150000Y-141097000D02*
X89150000Y-141605000D01*
X89150000Y-141605000D02*
X89150000Y-141990000D01*
X89150000Y-141990000D02*
X83820000Y-147320000D01*
X89150000Y-138938000D02*
X89150000Y-141097000D01*
X89154000Y-138938000D02*
X89150000Y-138938000D01*
X89150000Y-138938000D02*
X89154000Y-138938000D01*
X89154000Y-138938000D02*
X89150000Y-138938000D01*
X89150000Y-135305500D02*
X89150000Y-138938000D01*
%TO.N,/PB4C/CS*%
X95313500Y-130873500D02*
X96520000Y-132080000D01*
X91884500Y-130873500D02*
X95313500Y-130873500D01*
X91300000Y-131155500D02*
X91602500Y-131155500D01*
X91602500Y-131155500D02*
X91884500Y-130873500D01*
%TO.N,/PB6C/SCLK*%
X90650000Y-130505500D02*
X90650000Y-130203000D01*
X90650000Y-130203000D02*
X91630500Y-129222500D01*
X91630500Y-129222500D02*
X96202500Y-129222500D01*
X96202500Y-129222500D02*
X96520000Y-129540000D01*
%TO.N,/PB6D/MISO*%
X93218000Y-127000000D02*
X96520000Y-127000000D01*
X90150000Y-130505500D02*
X90150000Y-130068000D01*
X90150000Y-130068000D02*
X93218000Y-127000000D01*
%TO.N,/PB11A_PCLKT2_1*%
X86883930Y-126187180D02*
X85547180Y-126187180D01*
X85547180Y-126187180D02*
X81280000Y-121920000D01*
X88650000Y-127953250D02*
X86883930Y-126187180D01*
X88650000Y-130505500D02*
X88650000Y-127953250D01*
%TO.N,/PB11B_PCLKC2_1*%
X88150000Y-130505500D02*
X88150000Y-130290000D01*
X88150000Y-130290000D02*
X88138000Y-130278000D01*
X88138000Y-130278000D02*
X88138000Y-128016000D01*
X88138000Y-128016000D02*
X86715590Y-126593590D01*
X86715590Y-126593590D02*
X83413590Y-126593590D01*
X83413590Y-126593590D02*
X81280000Y-124460000D01*
%TO.N,/PB20C_SN*%
X85344000Y-127000000D02*
X81280000Y-127000000D01*
X86360000Y-128016000D02*
X85344000Y-127000000D01*
X86360000Y-129490500D02*
X86360000Y-128016000D01*
X87150000Y-130505500D02*
X87150000Y-130280500D01*
X87150000Y-130280500D02*
X86360000Y-129490500D01*
X87150000Y-130505500D02*
X87150000Y-130266500D01*
%TO.N,/PB20D_MOSI*%
X86500000Y-131155500D02*
X86134000Y-131155500D01*
X86134000Y-131155500D02*
X85852000Y-130873500D01*
X85852000Y-130873500D02*
X82613500Y-130873500D01*
X82613500Y-130873500D02*
X81280000Y-129540000D01*
%TO.N,/PR5D_PCLKC1_0*%
X86500000Y-132655500D02*
X85213000Y-132655500D01*
X85213000Y-132655500D02*
X84645500Y-133223000D01*
X84645500Y-133223000D02*
X82423000Y-133223000D01*
X82423000Y-133223000D02*
X81280000Y-132080000D01*
%TO.N,/PR5C_PCLKT1_0*%
X86500000Y-133155500D02*
X85287740Y-133155500D01*
X85287740Y-133155500D02*
X84813838Y-133629402D01*
X84813838Y-133629402D02*
X82270598Y-133629402D01*
X82270598Y-133629402D02*
X81280000Y-134620000D01*
%TO.N,/PT17D_DONE*%
X86500000Y-134155500D02*
X83776500Y-134155500D01*
X83776500Y-134155500D02*
X81280000Y-136652000D01*
X81280000Y-136652000D02*
X81280000Y-137160000D01*
%TO.N,/PT15D_PROGRAMN*%
X87150000Y-137379500D02*
X84829500Y-139700000D01*
X87150000Y-135305500D02*
X87150000Y-137379500D01*
X84829500Y-139700000D02*
X81280000Y-139700000D01*
%TO.N,/PT15C_JTAGENB*%
X87650000Y-137454250D02*
X82864250Y-142240000D01*
X87650000Y-135305500D02*
X87650000Y-137454250D01*
X82864250Y-142240000D02*
X81280000Y-142240000D01*
X81407000Y-142240000D02*
X81280000Y-142240000D01*
%TO.N,/PT12D_SDA*%
X88150000Y-135305500D02*
X88150000Y-137529000D01*
X88150000Y-137529000D02*
X81280000Y-144399000D01*
X81280000Y-144399000D02*
X81280000Y-144780000D01*
%TO.N,/PT12C_SCL*%
X88650000Y-135305500D02*
X88650000Y-138045000D01*
X88650000Y-138045000D02*
X83756500Y-142938500D01*
X83756500Y-142938500D02*
X83756500Y-144843500D01*
X83756500Y-144843500D02*
X81280000Y-147320000D01*
%TO.N,/PL9A_PCLKT3_0*%
X91300000Y-133155500D02*
X93468000Y-133155500D01*
X93468000Y-133155500D02*
X94932500Y-134620000D01*
X94932500Y-134620000D02*
X94932500Y-135572500D01*
X94932500Y-135572500D02*
X96520000Y-137160000D01*
%TO.N,/PL9B_PCLKC3_0*%
X94555500Y-132655500D02*
X96520000Y-134620000D01*
X91300000Y-132655500D02*
X94555500Y-132655500D01*
%TO.N,/PB9A_PCLKT2_0*%
X89650000Y-130505500D02*
X89650000Y-129679000D01*
X89650000Y-129679000D02*
X94869000Y-124460000D01*
X94869000Y-124460000D02*
X96520000Y-124460000D01*
%TO.N,/PB9B_PCLKC2_0*%
X89150000Y-129604260D02*
X96520000Y-122234260D01*
X96520000Y-122234260D02*
X96520000Y-121920000D01*
X89150000Y-130505500D02*
X89150000Y-129604260D01*
%TD*%
D23*
%TO.N,GND*%
X90377300Y-134387300D02*
X87422700Y-134387300D01*
X87422700Y-131432700D01*
X90377300Y-131432700D01*
X90377300Y-134387300D01*
%TA.AperFunction,Conductor*%
D24*
G36*
X90377300Y-134387300D02*
G01*
X87422700Y-134387300D01*
X87422700Y-131432700D01*
X90377300Y-131432700D01*
X90377300Y-134387300D01*
G37*
%TD.AperFunction*%
%TD*%
M02*
