%TF.GenerationSoftware,KiCad,Pcbnew,(5.1.9)-1*%
%TF.CreationDate,2021-07-11T13:39:41+02:00*%
%TF.ProjectId,TinyFPGA-A,54696e79-4650-4474-912d-412e6b696361,rev?*%
%TF.SameCoordinates,Original*%
%TF.FileFunction,Paste,Top*%
%TF.FilePolarity,Positive*%
%FSLAX46Y46*%
G04 Gerber Fmt 4.6, Leading zero omitted, Abs format (unit mm)*
G04 Created by KiCad (PCBNEW (5.1.9)-1) date 2021-07-11 13:39:41*
%MOMM*%
%LPD*%
G01*
G04 APERTURE LIST*
%ADD10O,0.240000X0.700000*%
%ADD11O,0.700000X0.240000*%
%ADD12R,1.170000X1.170000*%
%ADD13R,0.800000X0.750000*%
%ADD14R,0.750000X0.800000*%
%ADD15R,0.500000X0.900000*%
%ADD16R,0.900000X0.500000*%
G04 APERTURE END LIST*
D10*
%TO.C,U1*%
X90650000Y-135405500D03*
X90150000Y-135405500D03*
X89650000Y-135405500D03*
X89150000Y-135405500D03*
X88650000Y-135405500D03*
X88150000Y-135405500D03*
X87650000Y-135405500D03*
X87150000Y-135405500D03*
D11*
X86400000Y-134655500D03*
X86400000Y-134155500D03*
X86400000Y-133655500D03*
X86400000Y-133155500D03*
X86400000Y-132655500D03*
X86400000Y-132155500D03*
X86400000Y-131655500D03*
X86400000Y-131155500D03*
D10*
X87150000Y-130405500D03*
X87650000Y-130405500D03*
X88150000Y-130405500D03*
X88650000Y-130405500D03*
X89150000Y-130405500D03*
X89650000Y-130405500D03*
X90150000Y-130405500D03*
X90650000Y-130405500D03*
D11*
X91400000Y-131155500D03*
X91400000Y-131655500D03*
X91400000Y-132155500D03*
X91400000Y-132655500D03*
X91400000Y-133155500D03*
X91400000Y-133655500D03*
X91400000Y-134155500D03*
X91400000Y-134655500D03*
D12*
X89600000Y-133605500D03*
X88200000Y-132205500D03*
X88200000Y-133605500D03*
X89600000Y-132205500D03*
%TD*%
D13*
%TO.C,C2*%
X89650000Y-121285000D03*
X88150000Y-121285000D03*
%TD*%
D14*
%TO.C,C4*%
X83693000Y-131623500D03*
X83693000Y-130123500D03*
%TD*%
D13*
%TO.C,C8*%
X87110000Y-128778000D03*
X85610000Y-128778000D03*
%TD*%
D14*
%TO.C,C9*%
X92659200Y-131623500D03*
X92659200Y-130123500D03*
%TD*%
%TO.C,C10*%
X94056200Y-131623500D03*
X94056200Y-130123500D03*
%TD*%
%TO.C,C11*%
X92710000Y-134187500D03*
X92710000Y-135687500D03*
%TD*%
D15*
%TO.C,R1*%
X91134500Y-138684000D03*
X92634500Y-138684000D03*
%TD*%
D13*
%TO.C,C1*%
X89650000Y-119824500D03*
X88150000Y-119824500D03*
%TD*%
%TO.C,C3*%
X89650000Y-122745500D03*
X88150000Y-122745500D03*
%TD*%
D14*
%TO.C,C5*%
X85090000Y-131623500D03*
X85090000Y-130123500D03*
%TD*%
D13*
%TO.C,C6*%
X91134500Y-137223500D03*
X92634500Y-137223500D03*
%TD*%
D14*
%TO.C,C7*%
X85090000Y-134886000D03*
X85090000Y-136386000D03*
%TD*%
D16*
%TO.C,L1*%
X89662000Y-125591000D03*
X89662000Y-124091000D03*
%TD*%
M02*
