%TF.GenerationSoftware,KiCad,Pcbnew,(5.1.9)-1*%
%TF.CreationDate,2021-07-11T13:39:41+02:00*%
%TF.ProjectId,TinyFPGA-A,54696e79-4650-4474-912d-412e6b696361,rev?*%
%TF.SameCoordinates,Original*%
%TF.FileFunction,Other,Fab,Top*%
%FSLAX46Y46*%
G04 Gerber Fmt 4.6, Leading zero omitted, Abs format (unit mm)*
G04 Created by KiCad (PCBNEW (5.1.9)-1) date 2021-07-11 13:39:41*
%MOMM*%
%LPD*%
G01*
G04 APERTURE LIST*
%ADD10C,0.200000*%
%ADD11C,0.150000*%
%ADD12C,0.100000*%
%ADD13C,0.125000*%
%ADD14C,0.062500*%
%ADD15C,0.075000*%
G04 APERTURE END LIST*
D10*
X90678000Y-134366000D02*
G75*
G03*
X90678000Y-134366000I-254000J0D01*
G01*
D11*
%TO.C,U1*%
X91400000Y-134405500D02*
X90400000Y-135405500D01*
X91400000Y-130405500D02*
X91400000Y-134405500D01*
X86400000Y-130405500D02*
X91400000Y-130405500D01*
X86400000Y-135405500D02*
X86400000Y-130405500D01*
X90400000Y-135405500D02*
X86400000Y-135405500D01*
D12*
%TO.C,C2*%
X89700000Y-121685000D02*
X88100000Y-121685000D01*
X88100000Y-121685000D02*
X88100000Y-120885000D01*
X88100000Y-120885000D02*
X89700000Y-120885000D01*
X89700000Y-120885000D02*
X89700000Y-121685000D01*
%TO.C,C4*%
X83293000Y-131673500D02*
X83293000Y-130073500D01*
X83293000Y-130073500D02*
X84093000Y-130073500D01*
X84093000Y-130073500D02*
X84093000Y-131673500D01*
X84093000Y-131673500D02*
X83293000Y-131673500D01*
%TO.C,C8*%
X87160000Y-129178000D02*
X85560000Y-129178000D01*
X85560000Y-129178000D02*
X85560000Y-128378000D01*
X85560000Y-128378000D02*
X87160000Y-128378000D01*
X87160000Y-128378000D02*
X87160000Y-129178000D01*
%TO.C,C9*%
X92259200Y-131673500D02*
X92259200Y-130073500D01*
X92259200Y-130073500D02*
X93059200Y-130073500D01*
X93059200Y-130073500D02*
X93059200Y-131673500D01*
X93059200Y-131673500D02*
X92259200Y-131673500D01*
%TO.C,C10*%
X93656200Y-131673500D02*
X93656200Y-130073500D01*
X93656200Y-130073500D02*
X94456200Y-130073500D01*
X94456200Y-130073500D02*
X94456200Y-131673500D01*
X94456200Y-131673500D02*
X93656200Y-131673500D01*
%TO.C,C11*%
X93110000Y-134137500D02*
X93110000Y-135737500D01*
X93110000Y-135737500D02*
X92310000Y-135737500D01*
X92310000Y-135737500D02*
X92310000Y-134137500D01*
X92310000Y-134137500D02*
X93110000Y-134137500D01*
%TO.C,R1*%
X91084500Y-138284000D02*
X92684500Y-138284000D01*
X92684500Y-138284000D02*
X92684500Y-139084000D01*
X92684500Y-139084000D02*
X91084500Y-139084000D01*
X91084500Y-139084000D02*
X91084500Y-138284000D01*
%TO.C,C1*%
X89700000Y-120224500D02*
X88100000Y-120224500D01*
X88100000Y-120224500D02*
X88100000Y-119424500D01*
X88100000Y-119424500D02*
X89700000Y-119424500D01*
X89700000Y-119424500D02*
X89700000Y-120224500D01*
%TO.C,C3*%
X89700000Y-123145500D02*
X88100000Y-123145500D01*
X88100000Y-123145500D02*
X88100000Y-122345500D01*
X88100000Y-122345500D02*
X89700000Y-122345500D01*
X89700000Y-122345500D02*
X89700000Y-123145500D01*
%TO.C,C5*%
X84690000Y-131673500D02*
X84690000Y-130073500D01*
X84690000Y-130073500D02*
X85490000Y-130073500D01*
X85490000Y-130073500D02*
X85490000Y-131673500D01*
X85490000Y-131673500D02*
X84690000Y-131673500D01*
%TO.C,C6*%
X91084500Y-136823500D02*
X92684500Y-136823500D01*
X92684500Y-136823500D02*
X92684500Y-137623500D01*
X92684500Y-137623500D02*
X91084500Y-137623500D01*
X91084500Y-137623500D02*
X91084500Y-136823500D01*
%TO.C,C7*%
X85490000Y-134836000D02*
X85490000Y-136436000D01*
X85490000Y-136436000D02*
X84690000Y-136436000D01*
X84690000Y-136436000D02*
X84690000Y-134836000D01*
X84690000Y-134836000D02*
X85490000Y-134836000D01*
%TO.C,L1*%
X89262000Y-125641000D02*
X89262000Y-124041000D01*
X89262000Y-124041000D02*
X90062000Y-124041000D01*
X90062000Y-124041000D02*
X90062000Y-125641000D01*
X90062000Y-125641000D02*
X89262000Y-125641000D01*
%TD*%
%TO.C,U1*%
D13*
X88519047Y-134346190D02*
X88519047Y-134750952D01*
X88542857Y-134798571D01*
X88566666Y-134822380D01*
X88614285Y-134846190D01*
X88709523Y-134846190D01*
X88757142Y-134822380D01*
X88780952Y-134798571D01*
X88804761Y-134750952D01*
X88804761Y-134346190D01*
X89304761Y-134846190D02*
X89019047Y-134846190D01*
X89161904Y-134846190D02*
X89161904Y-134346190D01*
X89114285Y-134417619D01*
X89066666Y-134465238D01*
X89019047Y-134489047D01*
D14*
X86721428Y-131771214D02*
X86721428Y-131471214D01*
X86804761Y-131685500D01*
X86888095Y-131471214D01*
X86888095Y-131771214D01*
X87114285Y-131771214D02*
X87114285Y-131614071D01*
X87102380Y-131585500D01*
X87078571Y-131571214D01*
X87030952Y-131571214D01*
X87007142Y-131585500D01*
X87114285Y-131756928D02*
X87090476Y-131771214D01*
X87030952Y-131771214D01*
X87007142Y-131756928D01*
X86995238Y-131728357D01*
X86995238Y-131699785D01*
X87007142Y-131671214D01*
X87030952Y-131656928D01*
X87090476Y-131656928D01*
X87114285Y-131642642D01*
X87340476Y-131756928D02*
X87316666Y-131771214D01*
X87269047Y-131771214D01*
X87245238Y-131756928D01*
X87233333Y-131742642D01*
X87221428Y-131714071D01*
X87221428Y-131628357D01*
X87233333Y-131599785D01*
X87245238Y-131585500D01*
X87269047Y-131571214D01*
X87316666Y-131571214D01*
X87340476Y-131585500D01*
X87447619Y-131771214D02*
X87447619Y-131471214D01*
X87554761Y-131771214D02*
X87554761Y-131614071D01*
X87542857Y-131585500D01*
X87519047Y-131571214D01*
X87483333Y-131571214D01*
X87459523Y-131585500D01*
X87447619Y-131599785D01*
X87650000Y-131471214D02*
X87816666Y-131771214D01*
X87816666Y-131471214D02*
X87650000Y-131771214D01*
X87959523Y-131471214D02*
X88007142Y-131471214D01*
X88030952Y-131485500D01*
X88054761Y-131514071D01*
X88066666Y-131571214D01*
X88066666Y-131671214D01*
X88054761Y-131728357D01*
X88030952Y-131756928D01*
X88007142Y-131771214D01*
X87959523Y-131771214D01*
X87935714Y-131756928D01*
X87911904Y-131728357D01*
X87900000Y-131671214D01*
X87900000Y-131571214D01*
X87911904Y-131514071D01*
X87935714Y-131485500D01*
X87959523Y-131471214D01*
X88161904Y-131499785D02*
X88173809Y-131485500D01*
X88197619Y-131471214D01*
X88257142Y-131471214D01*
X88280952Y-131485500D01*
X88292857Y-131499785D01*
X88304761Y-131528357D01*
X88304761Y-131556928D01*
X88292857Y-131599785D01*
X88150000Y-131771214D01*
X88304761Y-131771214D01*
X88411904Y-131656928D02*
X88602380Y-131656928D01*
X88852380Y-131771214D02*
X88709523Y-131771214D01*
X88780952Y-131771214D02*
X88780952Y-131471214D01*
X88757142Y-131514071D01*
X88733333Y-131542642D01*
X88709523Y-131556928D01*
X88947619Y-131499785D02*
X88959523Y-131485500D01*
X88983333Y-131471214D01*
X89042857Y-131471214D01*
X89066666Y-131485500D01*
X89078571Y-131499785D01*
X89090476Y-131528357D01*
X89090476Y-131556928D01*
X89078571Y-131599785D01*
X88935714Y-131771214D01*
X89090476Y-131771214D01*
X89245238Y-131471214D02*
X89269047Y-131471214D01*
X89292857Y-131485500D01*
X89304761Y-131499785D01*
X89316666Y-131528357D01*
X89328571Y-131585500D01*
X89328571Y-131656928D01*
X89316666Y-131714071D01*
X89304761Y-131742642D01*
X89292857Y-131756928D01*
X89269047Y-131771214D01*
X89245238Y-131771214D01*
X89221428Y-131756928D01*
X89209523Y-131742642D01*
X89197619Y-131714071D01*
X89185714Y-131656928D01*
X89185714Y-131585500D01*
X89197619Y-131528357D01*
X89209523Y-131499785D01*
X89221428Y-131485500D01*
X89245238Y-131471214D01*
X89483333Y-131471214D02*
X89507142Y-131471214D01*
X89530952Y-131485500D01*
X89542857Y-131499785D01*
X89554761Y-131528357D01*
X89566666Y-131585500D01*
X89566666Y-131656928D01*
X89554761Y-131714071D01*
X89542857Y-131742642D01*
X89530952Y-131756928D01*
X89507142Y-131771214D01*
X89483333Y-131771214D01*
X89459523Y-131756928D01*
X89447619Y-131742642D01*
X89435714Y-131714071D01*
X89423809Y-131656928D01*
X89423809Y-131585500D01*
X89435714Y-131528357D01*
X89447619Y-131499785D01*
X89459523Y-131485500D01*
X89483333Y-131471214D01*
X89673809Y-131656928D02*
X89864285Y-131656928D01*
X90150000Y-131799785D02*
X90126190Y-131785500D01*
X90102380Y-131756928D01*
X90066666Y-131714071D01*
X90042857Y-131699785D01*
X90019047Y-131699785D01*
X90030952Y-131771214D02*
X90007142Y-131756928D01*
X89983333Y-131728357D01*
X89971428Y-131671214D01*
X89971428Y-131571214D01*
X89983333Y-131514071D01*
X90007142Y-131485500D01*
X90030952Y-131471214D01*
X90078571Y-131471214D01*
X90102380Y-131485500D01*
X90126190Y-131514071D01*
X90138095Y-131571214D01*
X90138095Y-131671214D01*
X90126190Y-131728357D01*
X90102380Y-131756928D01*
X90078571Y-131771214D01*
X90030952Y-131771214D01*
X90328571Y-131614071D02*
X90245238Y-131614071D01*
X90245238Y-131771214D02*
X90245238Y-131471214D01*
X90364285Y-131471214D01*
X90459523Y-131771214D02*
X90459523Y-131471214D01*
X90602380Y-131771214D01*
X90602380Y-131471214D01*
X90697619Y-131471214D02*
X90852380Y-131471214D01*
X90769047Y-131585500D01*
X90804761Y-131585500D01*
X90828571Y-131599785D01*
X90840476Y-131614071D01*
X90852380Y-131642642D01*
X90852380Y-131714071D01*
X90840476Y-131742642D01*
X90828571Y-131756928D01*
X90804761Y-131771214D01*
X90733333Y-131771214D01*
X90709523Y-131756928D01*
X90697619Y-131742642D01*
X90947619Y-131499785D02*
X90959523Y-131485500D01*
X90983333Y-131471214D01*
X91042857Y-131471214D01*
X91066666Y-131485500D01*
X91078571Y-131499785D01*
X91090476Y-131528357D01*
X91090476Y-131556928D01*
X91078571Y-131599785D01*
X90935714Y-131771214D01*
X91090476Y-131771214D01*
%TO.C,C2*%
D15*
X90120000Y-121265142D02*
X90105714Y-121279428D01*
X90062857Y-121293714D01*
X90034285Y-121293714D01*
X89991428Y-121279428D01*
X89962857Y-121250857D01*
X89948571Y-121222285D01*
X89934285Y-121165142D01*
X89934285Y-121122285D01*
X89948571Y-121065142D01*
X89962857Y-121036571D01*
X89991428Y-121008000D01*
X90034285Y-120993714D01*
X90062857Y-120993714D01*
X90105714Y-121008000D01*
X90120000Y-121022285D01*
X90234285Y-121022285D02*
X90248571Y-121008000D01*
X90277142Y-120993714D01*
X90348571Y-120993714D01*
X90377142Y-121008000D01*
X90391428Y-121022285D01*
X90405714Y-121050857D01*
X90405714Y-121079428D01*
X90391428Y-121122285D01*
X90220000Y-121293714D01*
X90405714Y-121293714D01*
X88703648Y-121415634D02*
X88532220Y-121415634D01*
X88617934Y-121415634D02*
X88617934Y-121115634D01*
X88589362Y-121158491D01*
X88560791Y-121187062D01*
X88532220Y-121201348D01*
X88960791Y-121215634D02*
X88960791Y-121415634D01*
X88832220Y-121215634D02*
X88832220Y-121372777D01*
X88846505Y-121401348D01*
X88875077Y-121415634D01*
X88917934Y-121415634D01*
X88946505Y-121401348D01*
X88960791Y-121387062D01*
X89203648Y-121258491D02*
X89103648Y-121258491D01*
X89103648Y-121415634D02*
X89103648Y-121115634D01*
X89246505Y-121115634D01*
%TO.C,C4*%
X83673142Y-129590000D02*
X83687428Y-129604285D01*
X83701714Y-129647142D01*
X83701714Y-129675714D01*
X83687428Y-129718571D01*
X83658857Y-129747142D01*
X83630285Y-129761428D01*
X83573142Y-129775714D01*
X83530285Y-129775714D01*
X83473142Y-129761428D01*
X83444571Y-129747142D01*
X83416000Y-129718571D01*
X83401714Y-129675714D01*
X83401714Y-129647142D01*
X83416000Y-129604285D01*
X83430285Y-129590000D01*
X83501714Y-129332857D02*
X83701714Y-129332857D01*
X83387428Y-129404285D02*
X83601714Y-129475714D01*
X83601714Y-129290000D01*
X83849034Y-131337785D02*
X83849034Y-131509214D01*
X83849034Y-131423500D02*
X83549034Y-131423500D01*
X83591891Y-131452071D01*
X83620462Y-131480642D01*
X83634748Y-131509214D01*
X83549034Y-131152071D02*
X83549034Y-131123500D01*
X83563320Y-131094928D01*
X83577605Y-131080642D01*
X83606177Y-131066357D01*
X83663320Y-131052071D01*
X83734748Y-131052071D01*
X83791891Y-131066357D01*
X83820462Y-131080642D01*
X83834748Y-131094928D01*
X83849034Y-131123500D01*
X83849034Y-131152071D01*
X83834748Y-131180642D01*
X83820462Y-131194928D01*
X83791891Y-131209214D01*
X83734748Y-131223500D01*
X83663320Y-131223500D01*
X83606177Y-131209214D01*
X83577605Y-131194928D01*
X83563320Y-131180642D01*
X83549034Y-131152071D01*
X83549034Y-130866357D02*
X83549034Y-130837785D01*
X83563320Y-130809214D01*
X83577605Y-130794928D01*
X83606177Y-130780642D01*
X83663320Y-130766357D01*
X83734748Y-130766357D01*
X83791891Y-130780642D01*
X83820462Y-130794928D01*
X83834748Y-130809214D01*
X83849034Y-130837785D01*
X83849034Y-130866357D01*
X83834748Y-130894928D01*
X83820462Y-130909214D01*
X83791891Y-130923500D01*
X83734748Y-130937785D01*
X83663320Y-130937785D01*
X83606177Y-130923500D01*
X83577605Y-130909214D01*
X83563320Y-130894928D01*
X83549034Y-130866357D01*
X83649034Y-130637785D02*
X83849034Y-130637785D01*
X83677605Y-130637785D02*
X83663320Y-130623500D01*
X83649034Y-130594928D01*
X83649034Y-130552071D01*
X83663320Y-130523500D01*
X83691891Y-130509214D01*
X83849034Y-130509214D01*
X83691891Y-130266357D02*
X83691891Y-130366357D01*
X83849034Y-130366357D02*
X83549034Y-130366357D01*
X83549034Y-130223500D01*
%TO.C,C8*%
X85936354Y-128959434D02*
X85764925Y-128959434D01*
X85850640Y-128959434D02*
X85850640Y-128659434D01*
X85822068Y-128702291D01*
X85793497Y-128730862D01*
X85764925Y-128745148D01*
X86122068Y-128659434D02*
X86150640Y-128659434D01*
X86179211Y-128673720D01*
X86193497Y-128688005D01*
X86207782Y-128716577D01*
X86222068Y-128773720D01*
X86222068Y-128845148D01*
X86207782Y-128902291D01*
X86193497Y-128930862D01*
X86179211Y-128945148D01*
X86150640Y-128959434D01*
X86122068Y-128959434D01*
X86093497Y-128945148D01*
X86079211Y-128930862D01*
X86064925Y-128902291D01*
X86050640Y-128845148D01*
X86050640Y-128773720D01*
X86064925Y-128716577D01*
X86079211Y-128688005D01*
X86093497Y-128673720D01*
X86122068Y-128659434D01*
X86407782Y-128659434D02*
X86436354Y-128659434D01*
X86464925Y-128673720D01*
X86479211Y-128688005D01*
X86493497Y-128716577D01*
X86507782Y-128773720D01*
X86507782Y-128845148D01*
X86493497Y-128902291D01*
X86479211Y-128930862D01*
X86464925Y-128945148D01*
X86436354Y-128959434D01*
X86407782Y-128959434D01*
X86379211Y-128945148D01*
X86364925Y-128930862D01*
X86350640Y-128902291D01*
X86336354Y-128845148D01*
X86336354Y-128773720D01*
X86350640Y-128716577D01*
X86364925Y-128688005D01*
X86379211Y-128673720D01*
X86407782Y-128659434D01*
X86636354Y-128759434D02*
X86636354Y-128959434D01*
X86636354Y-128788005D02*
X86650640Y-128773720D01*
X86679211Y-128759434D01*
X86722068Y-128759434D01*
X86750640Y-128773720D01*
X86764925Y-128802291D01*
X86764925Y-128959434D01*
X87007782Y-128802291D02*
X86907782Y-128802291D01*
X86907782Y-128959434D02*
X86907782Y-128659434D01*
X87050640Y-128659434D01*
X87572380Y-128910542D02*
X87558094Y-128924828D01*
X87515237Y-128939114D01*
X87486665Y-128939114D01*
X87443808Y-128924828D01*
X87415237Y-128896257D01*
X87400951Y-128867685D01*
X87386665Y-128810542D01*
X87386665Y-128767685D01*
X87400951Y-128710542D01*
X87415237Y-128681971D01*
X87443808Y-128653400D01*
X87486665Y-128639114D01*
X87515237Y-128639114D01*
X87558094Y-128653400D01*
X87572380Y-128667685D01*
X87743808Y-128767685D02*
X87715237Y-128753400D01*
X87700951Y-128739114D01*
X87686665Y-128710542D01*
X87686665Y-128696257D01*
X87700951Y-128667685D01*
X87715237Y-128653400D01*
X87743808Y-128639114D01*
X87800951Y-128639114D01*
X87829522Y-128653400D01*
X87843808Y-128667685D01*
X87858094Y-128696257D01*
X87858094Y-128710542D01*
X87843808Y-128739114D01*
X87829522Y-128753400D01*
X87800951Y-128767685D01*
X87743808Y-128767685D01*
X87715237Y-128781971D01*
X87700951Y-128796257D01*
X87686665Y-128824828D01*
X87686665Y-128881971D01*
X87700951Y-128910542D01*
X87715237Y-128924828D01*
X87743808Y-128939114D01*
X87800951Y-128939114D01*
X87829522Y-128924828D01*
X87843808Y-128910542D01*
X87858094Y-128881971D01*
X87858094Y-128824828D01*
X87843808Y-128796257D01*
X87829522Y-128781971D01*
X87800951Y-128767685D01*
%TO.C,C9*%
X92794914Y-131294605D02*
X92794914Y-131466034D01*
X92794914Y-131380320D02*
X92494914Y-131380320D01*
X92537771Y-131408891D01*
X92566342Y-131437462D01*
X92580628Y-131466034D01*
X92494914Y-131108891D02*
X92494914Y-131080320D01*
X92509200Y-131051748D01*
X92523485Y-131037462D01*
X92552057Y-131023177D01*
X92609200Y-131008891D01*
X92680628Y-131008891D01*
X92737771Y-131023177D01*
X92766342Y-131037462D01*
X92780628Y-131051748D01*
X92794914Y-131080320D01*
X92794914Y-131108891D01*
X92780628Y-131137462D01*
X92766342Y-131151748D01*
X92737771Y-131166034D01*
X92680628Y-131180320D01*
X92609200Y-131180320D01*
X92552057Y-131166034D01*
X92523485Y-131151748D01*
X92509200Y-131137462D01*
X92494914Y-131108891D01*
X92494914Y-130823177D02*
X92494914Y-130794605D01*
X92509200Y-130766034D01*
X92523485Y-130751748D01*
X92552057Y-130737462D01*
X92609200Y-130723177D01*
X92680628Y-130723177D01*
X92737771Y-130737462D01*
X92766342Y-130751748D01*
X92780628Y-130766034D01*
X92794914Y-130794605D01*
X92794914Y-130823177D01*
X92780628Y-130851748D01*
X92766342Y-130866034D01*
X92737771Y-130880320D01*
X92680628Y-130894605D01*
X92609200Y-130894605D01*
X92552057Y-130880320D01*
X92523485Y-130866034D01*
X92509200Y-130851748D01*
X92494914Y-130823177D01*
X92594914Y-130594605D02*
X92794914Y-130594605D01*
X92623485Y-130594605D02*
X92609200Y-130580320D01*
X92594914Y-130551748D01*
X92594914Y-130508891D01*
X92609200Y-130480320D01*
X92637771Y-130466034D01*
X92794914Y-130466034D01*
X92637771Y-130223177D02*
X92637771Y-130323177D01*
X92794914Y-130323177D02*
X92494914Y-130323177D01*
X92494914Y-130180320D01*
X92763802Y-129564600D02*
X92778088Y-129578885D01*
X92792374Y-129621742D01*
X92792374Y-129650314D01*
X92778088Y-129693171D01*
X92749517Y-129721742D01*
X92720945Y-129736028D01*
X92663802Y-129750314D01*
X92620945Y-129750314D01*
X92563802Y-129736028D01*
X92535231Y-129721742D01*
X92506660Y-129693171D01*
X92492374Y-129650314D01*
X92492374Y-129621742D01*
X92506660Y-129578885D01*
X92520945Y-129564600D01*
X92792374Y-129421742D02*
X92792374Y-129364600D01*
X92778088Y-129336028D01*
X92763802Y-129321742D01*
X92720945Y-129293171D01*
X92663802Y-129278885D01*
X92549517Y-129278885D01*
X92520945Y-129293171D01*
X92506660Y-129307457D01*
X92492374Y-129336028D01*
X92492374Y-129393171D01*
X92506660Y-129421742D01*
X92520945Y-129436028D01*
X92549517Y-129450314D01*
X92620945Y-129450314D01*
X92649517Y-129436028D01*
X92663802Y-129421742D01*
X92678088Y-129393171D01*
X92678088Y-129336028D01*
X92663802Y-129307457D01*
X92649517Y-129293171D01*
X92620945Y-129278885D01*
%TO.C,C10*%
X94204614Y-131172068D02*
X94204614Y-131343497D01*
X94204614Y-131257782D02*
X93904614Y-131257782D01*
X93947471Y-131286354D01*
X93976042Y-131314925D01*
X93990328Y-131343497D01*
X93904614Y-130986354D02*
X93904614Y-130957782D01*
X93918900Y-130929211D01*
X93933185Y-130914925D01*
X93961757Y-130900640D01*
X94018900Y-130886354D01*
X94090328Y-130886354D01*
X94147471Y-130900640D01*
X94176042Y-130914925D01*
X94190328Y-130929211D01*
X94204614Y-130957782D01*
X94204614Y-130986354D01*
X94190328Y-131014925D01*
X94176042Y-131029211D01*
X94147471Y-131043497D01*
X94090328Y-131057782D01*
X94018900Y-131057782D01*
X93961757Y-131043497D01*
X93933185Y-131029211D01*
X93918900Y-131014925D01*
X93904614Y-130986354D01*
X94004614Y-130757782D02*
X94204614Y-130757782D01*
X94033185Y-130757782D02*
X94018900Y-130743497D01*
X94004614Y-130714925D01*
X94004614Y-130672068D01*
X94018900Y-130643497D01*
X94047471Y-130629211D01*
X94204614Y-130629211D01*
X94047471Y-130386354D02*
X94047471Y-130486354D01*
X94204614Y-130486354D02*
X93904614Y-130486354D01*
X93904614Y-130343497D01*
X94239542Y-129656657D02*
X94253828Y-129670942D01*
X94268114Y-129713800D01*
X94268114Y-129742371D01*
X94253828Y-129785228D01*
X94225257Y-129813800D01*
X94196685Y-129828085D01*
X94139542Y-129842371D01*
X94096685Y-129842371D01*
X94039542Y-129828085D01*
X94010971Y-129813800D01*
X93982400Y-129785228D01*
X93968114Y-129742371D01*
X93968114Y-129713800D01*
X93982400Y-129670942D01*
X93996685Y-129656657D01*
X94268114Y-129370942D02*
X94268114Y-129542371D01*
X94268114Y-129456657D02*
X93968114Y-129456657D01*
X94010971Y-129485228D01*
X94039542Y-129513800D01*
X94053828Y-129542371D01*
X93968114Y-129185228D02*
X93968114Y-129156657D01*
X93982400Y-129128085D01*
X93996685Y-129113800D01*
X94025257Y-129099514D01*
X94082400Y-129085228D01*
X94153828Y-129085228D01*
X94210971Y-129099514D01*
X94239542Y-129113800D01*
X94253828Y-129128085D01*
X94268114Y-129156657D01*
X94268114Y-129185228D01*
X94253828Y-129213800D01*
X94239542Y-129228085D01*
X94210971Y-129242371D01*
X94153828Y-129256657D01*
X94082400Y-129256657D01*
X94025257Y-129242371D01*
X93996685Y-129228085D01*
X93982400Y-129213800D01*
X93968114Y-129185228D01*
%TO.C,C11*%
X92817142Y-133542857D02*
X92831428Y-133557142D01*
X92845714Y-133600000D01*
X92845714Y-133628571D01*
X92831428Y-133671428D01*
X92802857Y-133700000D01*
X92774285Y-133714285D01*
X92717142Y-133728571D01*
X92674285Y-133728571D01*
X92617142Y-133714285D01*
X92588571Y-133700000D01*
X92560000Y-133671428D01*
X92545714Y-133628571D01*
X92545714Y-133600000D01*
X92560000Y-133557142D01*
X92574285Y-133542857D01*
X92845714Y-133257142D02*
X92845714Y-133428571D01*
X92845714Y-133342857D02*
X92545714Y-133342857D01*
X92588571Y-133371428D01*
X92617142Y-133400000D01*
X92631428Y-133428571D01*
X92845714Y-132971428D02*
X92845714Y-133142857D01*
X92845714Y-133057142D02*
X92545714Y-133057142D01*
X92588571Y-133085714D01*
X92617142Y-133114285D01*
X92631428Y-133142857D01*
X92883814Y-135248768D02*
X92883814Y-135420197D01*
X92883814Y-135334482D02*
X92583814Y-135334482D01*
X92626671Y-135363054D01*
X92655242Y-135391625D01*
X92669528Y-135420197D01*
X92583814Y-135063054D02*
X92583814Y-135034482D01*
X92598100Y-135005911D01*
X92612385Y-134991625D01*
X92640957Y-134977340D01*
X92698100Y-134963054D01*
X92769528Y-134963054D01*
X92826671Y-134977340D01*
X92855242Y-134991625D01*
X92869528Y-135005911D01*
X92883814Y-135034482D01*
X92883814Y-135063054D01*
X92869528Y-135091625D01*
X92855242Y-135105911D01*
X92826671Y-135120197D01*
X92769528Y-135134482D01*
X92698100Y-135134482D01*
X92640957Y-135120197D01*
X92612385Y-135105911D01*
X92598100Y-135091625D01*
X92583814Y-135063054D01*
X92683814Y-134834482D02*
X92883814Y-134834482D01*
X92712385Y-134834482D02*
X92698100Y-134820197D01*
X92683814Y-134791625D01*
X92683814Y-134748768D01*
X92698100Y-134720197D01*
X92726671Y-134705911D01*
X92883814Y-134705911D01*
X92726671Y-134463054D02*
X92726671Y-134563054D01*
X92883814Y-134563054D02*
X92583814Y-134563054D01*
X92583814Y-134420197D01*
%TO.C,R1*%
X93168000Y-138819714D02*
X93068000Y-138676857D01*
X92996571Y-138819714D02*
X92996571Y-138519714D01*
X93110857Y-138519714D01*
X93139428Y-138534000D01*
X93153714Y-138548285D01*
X93168000Y-138576857D01*
X93168000Y-138619714D01*
X93153714Y-138648285D01*
X93139428Y-138662571D01*
X93110857Y-138676857D01*
X92996571Y-138676857D01*
X93453714Y-138819714D02*
X93282285Y-138819714D01*
X93368000Y-138819714D02*
X93368000Y-138519714D01*
X93339428Y-138562571D01*
X93310857Y-138591142D01*
X93282285Y-138605428D01*
X91542428Y-138632414D02*
X91542428Y-138832414D01*
X91471000Y-138518128D02*
X91399571Y-138732414D01*
X91585285Y-138732414D01*
X91699571Y-138803842D02*
X91713857Y-138818128D01*
X91699571Y-138832414D01*
X91685285Y-138818128D01*
X91699571Y-138803842D01*
X91699571Y-138832414D01*
X91813857Y-138532414D02*
X92013857Y-138532414D01*
X91885285Y-138832414D01*
X92128142Y-138832414D02*
X92128142Y-138532414D01*
X92156714Y-138718128D02*
X92242428Y-138832414D01*
X92242428Y-138632414D02*
X92128142Y-138746700D01*
%TO.C,C1*%
X88601431Y-119985614D02*
X88430002Y-119985614D01*
X88515717Y-119985614D02*
X88515717Y-119685614D01*
X88487145Y-119728471D01*
X88458574Y-119757042D01*
X88430002Y-119771328D01*
X88787145Y-119685614D02*
X88815717Y-119685614D01*
X88844288Y-119699900D01*
X88858574Y-119714185D01*
X88872860Y-119742757D01*
X88887145Y-119799900D01*
X88887145Y-119871328D01*
X88872860Y-119928471D01*
X88858574Y-119957042D01*
X88844288Y-119971328D01*
X88815717Y-119985614D01*
X88787145Y-119985614D01*
X88758574Y-119971328D01*
X88744288Y-119957042D01*
X88730002Y-119928471D01*
X88715717Y-119871328D01*
X88715717Y-119799900D01*
X88730002Y-119742757D01*
X88744288Y-119714185D01*
X88758574Y-119699900D01*
X88787145Y-119685614D01*
X89144288Y-119785614D02*
X89144288Y-119985614D01*
X89015717Y-119785614D02*
X89015717Y-119942757D01*
X89030002Y-119971328D01*
X89058574Y-119985614D01*
X89101431Y-119985614D01*
X89130002Y-119971328D01*
X89144288Y-119957042D01*
X89387145Y-119828471D02*
X89287145Y-119828471D01*
X89287145Y-119985614D02*
X89287145Y-119685614D01*
X89430002Y-119685614D01*
X90132700Y-119949422D02*
X90118414Y-119963708D01*
X90075557Y-119977994D01*
X90046985Y-119977994D01*
X90004128Y-119963708D01*
X89975557Y-119935137D01*
X89961271Y-119906565D01*
X89946985Y-119849422D01*
X89946985Y-119806565D01*
X89961271Y-119749422D01*
X89975557Y-119720851D01*
X90004128Y-119692280D01*
X90046985Y-119677994D01*
X90075557Y-119677994D01*
X90118414Y-119692280D01*
X90132700Y-119706565D01*
X90418414Y-119977994D02*
X90246985Y-119977994D01*
X90332700Y-119977994D02*
X90332700Y-119677994D01*
X90304128Y-119720851D01*
X90275557Y-119749422D01*
X90246985Y-119763708D01*
%TO.C,C3*%
X88438254Y-122904074D02*
X88266825Y-122904074D01*
X88352540Y-122904074D02*
X88352540Y-122604074D01*
X88323968Y-122646931D01*
X88295397Y-122675502D01*
X88266825Y-122689788D01*
X88623968Y-122604074D02*
X88652540Y-122604074D01*
X88681111Y-122618360D01*
X88695397Y-122632645D01*
X88709682Y-122661217D01*
X88723968Y-122718360D01*
X88723968Y-122789788D01*
X88709682Y-122846931D01*
X88695397Y-122875502D01*
X88681111Y-122889788D01*
X88652540Y-122904074D01*
X88623968Y-122904074D01*
X88595397Y-122889788D01*
X88581111Y-122875502D01*
X88566825Y-122846931D01*
X88552540Y-122789788D01*
X88552540Y-122718360D01*
X88566825Y-122661217D01*
X88581111Y-122632645D01*
X88595397Y-122618360D01*
X88623968Y-122604074D01*
X88909682Y-122604074D02*
X88938254Y-122604074D01*
X88966825Y-122618360D01*
X88981111Y-122632645D01*
X88995397Y-122661217D01*
X89009682Y-122718360D01*
X89009682Y-122789788D01*
X88995397Y-122846931D01*
X88981111Y-122875502D01*
X88966825Y-122889788D01*
X88938254Y-122904074D01*
X88909682Y-122904074D01*
X88881111Y-122889788D01*
X88866825Y-122875502D01*
X88852540Y-122846931D01*
X88838254Y-122789788D01*
X88838254Y-122718360D01*
X88852540Y-122661217D01*
X88866825Y-122632645D01*
X88881111Y-122618360D01*
X88909682Y-122604074D01*
X89138254Y-122704074D02*
X89138254Y-122904074D01*
X89138254Y-122732645D02*
X89152540Y-122718360D01*
X89181111Y-122704074D01*
X89223968Y-122704074D01*
X89252540Y-122718360D01*
X89266825Y-122746931D01*
X89266825Y-122904074D01*
X89509682Y-122746931D02*
X89409682Y-122746931D01*
X89409682Y-122904074D02*
X89409682Y-122604074D01*
X89552540Y-122604074D01*
X90120000Y-122789142D02*
X90105714Y-122803428D01*
X90062857Y-122817714D01*
X90034285Y-122817714D01*
X89991428Y-122803428D01*
X89962857Y-122774857D01*
X89948571Y-122746285D01*
X89934285Y-122689142D01*
X89934285Y-122646285D01*
X89948571Y-122589142D01*
X89962857Y-122560571D01*
X89991428Y-122532000D01*
X90034285Y-122517714D01*
X90062857Y-122517714D01*
X90105714Y-122532000D01*
X90120000Y-122546285D01*
X90220000Y-122517714D02*
X90405714Y-122517714D01*
X90305714Y-122632000D01*
X90348571Y-122632000D01*
X90377142Y-122646285D01*
X90391428Y-122660571D01*
X90405714Y-122689142D01*
X90405714Y-122760571D01*
X90391428Y-122789142D01*
X90377142Y-122803428D01*
X90348571Y-122817714D01*
X90262857Y-122817714D01*
X90234285Y-122803428D01*
X90220000Y-122789142D01*
%TO.C,C5*%
X85235874Y-131151748D02*
X85235874Y-131323177D01*
X85235874Y-131237462D02*
X84935874Y-131237462D01*
X84978731Y-131266034D01*
X85007302Y-131294605D01*
X85021588Y-131323177D01*
X84935874Y-130966034D02*
X84935874Y-130937462D01*
X84950160Y-130908891D01*
X84964445Y-130894605D01*
X84993017Y-130880320D01*
X85050160Y-130866034D01*
X85121588Y-130866034D01*
X85178731Y-130880320D01*
X85207302Y-130894605D01*
X85221588Y-130908891D01*
X85235874Y-130937462D01*
X85235874Y-130966034D01*
X85221588Y-130994605D01*
X85207302Y-131008891D01*
X85178731Y-131023177D01*
X85121588Y-131037462D01*
X85050160Y-131037462D01*
X84993017Y-131023177D01*
X84964445Y-131008891D01*
X84950160Y-130994605D01*
X84935874Y-130966034D01*
X85035874Y-130737462D02*
X85235874Y-130737462D01*
X85064445Y-130737462D02*
X85050160Y-130723177D01*
X85035874Y-130694605D01*
X85035874Y-130651748D01*
X85050160Y-130623177D01*
X85078731Y-130608891D01*
X85235874Y-130608891D01*
X85078731Y-130366034D02*
X85078731Y-130466034D01*
X85235874Y-130466034D02*
X84935874Y-130466034D01*
X84935874Y-130323177D01*
X85212382Y-129615400D02*
X85226668Y-129629685D01*
X85240954Y-129672542D01*
X85240954Y-129701114D01*
X85226668Y-129743971D01*
X85198097Y-129772542D01*
X85169525Y-129786828D01*
X85112382Y-129801114D01*
X85069525Y-129801114D01*
X85012382Y-129786828D01*
X84983811Y-129772542D01*
X84955240Y-129743971D01*
X84940954Y-129701114D01*
X84940954Y-129672542D01*
X84955240Y-129629685D01*
X84969525Y-129615400D01*
X84940954Y-129343971D02*
X84940954Y-129486828D01*
X85083811Y-129501114D01*
X85069525Y-129486828D01*
X85055240Y-129458257D01*
X85055240Y-129386828D01*
X85069525Y-129358257D01*
X85083811Y-129343971D01*
X85112382Y-129329685D01*
X85183811Y-129329685D01*
X85212382Y-129343971D01*
X85226668Y-129358257D01*
X85240954Y-129386828D01*
X85240954Y-129458257D01*
X85226668Y-129486828D01*
X85212382Y-129501114D01*
%TO.C,C6*%
X93168000Y-137267142D02*
X93153714Y-137281428D01*
X93110857Y-137295714D01*
X93082285Y-137295714D01*
X93039428Y-137281428D01*
X93010857Y-137252857D01*
X92996571Y-137224285D01*
X92982285Y-137167142D01*
X92982285Y-137124285D01*
X92996571Y-137067142D01*
X93010857Y-137038571D01*
X93039428Y-137010000D01*
X93082285Y-136995714D01*
X93110857Y-136995714D01*
X93153714Y-137010000D01*
X93168000Y-137024285D01*
X93425142Y-136995714D02*
X93368000Y-136995714D01*
X93339428Y-137010000D01*
X93325142Y-137024285D01*
X93296571Y-137067142D01*
X93282285Y-137124285D01*
X93282285Y-137238571D01*
X93296571Y-137267142D01*
X93310857Y-137281428D01*
X93339428Y-137295714D01*
X93396571Y-137295714D01*
X93425142Y-137281428D01*
X93439428Y-137267142D01*
X93453714Y-137238571D01*
X93453714Y-137167142D01*
X93439428Y-137138571D01*
X93425142Y-137124285D01*
X93396571Y-137110000D01*
X93339428Y-137110000D01*
X93310857Y-137124285D01*
X93296571Y-137138571D01*
X93282285Y-137167142D01*
X91488794Y-137376994D02*
X91317365Y-137376994D01*
X91403080Y-137376994D02*
X91403080Y-137076994D01*
X91374508Y-137119851D01*
X91345937Y-137148422D01*
X91317365Y-137162708D01*
X91674508Y-137076994D02*
X91703080Y-137076994D01*
X91731651Y-137091280D01*
X91745937Y-137105565D01*
X91760222Y-137134137D01*
X91774508Y-137191280D01*
X91774508Y-137262708D01*
X91760222Y-137319851D01*
X91745937Y-137348422D01*
X91731651Y-137362708D01*
X91703080Y-137376994D01*
X91674508Y-137376994D01*
X91645937Y-137362708D01*
X91631651Y-137348422D01*
X91617365Y-137319851D01*
X91603080Y-137262708D01*
X91603080Y-137191280D01*
X91617365Y-137134137D01*
X91631651Y-137105565D01*
X91645937Y-137091280D01*
X91674508Y-137076994D01*
X91960222Y-137076994D02*
X91988794Y-137076994D01*
X92017365Y-137091280D01*
X92031651Y-137105565D01*
X92045937Y-137134137D01*
X92060222Y-137191280D01*
X92060222Y-137262708D01*
X92045937Y-137319851D01*
X92031651Y-137348422D01*
X92017365Y-137362708D01*
X91988794Y-137376994D01*
X91960222Y-137376994D01*
X91931651Y-137362708D01*
X91917365Y-137348422D01*
X91903080Y-137319851D01*
X91888794Y-137262708D01*
X91888794Y-137191280D01*
X91903080Y-137134137D01*
X91917365Y-137105565D01*
X91931651Y-137091280D01*
X91960222Y-137076994D01*
X92188794Y-137176994D02*
X92188794Y-137376994D01*
X92188794Y-137205565D02*
X92203080Y-137191280D01*
X92231651Y-137176994D01*
X92274508Y-137176994D01*
X92303080Y-137191280D01*
X92317365Y-137219851D01*
X92317365Y-137376994D01*
X92560222Y-137219851D02*
X92460222Y-137219851D01*
X92460222Y-137376994D02*
X92460222Y-137076994D01*
X92603080Y-137076994D01*
X93168000Y-137267142D02*
X93153714Y-137281428D01*
X93110857Y-137295714D01*
X93082285Y-137295714D01*
X93039428Y-137281428D01*
X93010857Y-137252857D01*
X92996571Y-137224285D01*
X92982285Y-137167142D01*
X92982285Y-137124285D01*
X92996571Y-137067142D01*
X93010857Y-137038571D01*
X93039428Y-137010000D01*
X93082285Y-136995714D01*
X93110857Y-136995714D01*
X93153714Y-137010000D01*
X93168000Y-137024285D01*
X93425142Y-136995714D02*
X93368000Y-136995714D01*
X93339428Y-137010000D01*
X93325142Y-137024285D01*
X93296571Y-137067142D01*
X93282285Y-137124285D01*
X93282285Y-137238571D01*
X93296571Y-137267142D01*
X93310857Y-137281428D01*
X93339428Y-137295714D01*
X93396571Y-137295714D01*
X93425142Y-137281428D01*
X93439428Y-137267142D01*
X93453714Y-137238571D01*
X93453714Y-137167142D01*
X93439428Y-137138571D01*
X93425142Y-137124285D01*
X93396571Y-137110000D01*
X93339428Y-137110000D01*
X93310857Y-137124285D01*
X93296571Y-137138571D01*
X93282285Y-137167142D01*
%TO.C,C7*%
X85235874Y-135954888D02*
X85235874Y-136126317D01*
X85235874Y-136040602D02*
X84935874Y-136040602D01*
X84978731Y-136069174D01*
X85007302Y-136097745D01*
X85021588Y-136126317D01*
X84935874Y-135769174D02*
X84935874Y-135740602D01*
X84950160Y-135712031D01*
X84964445Y-135697745D01*
X84993017Y-135683460D01*
X85050160Y-135669174D01*
X85121588Y-135669174D01*
X85178731Y-135683460D01*
X85207302Y-135697745D01*
X85221588Y-135712031D01*
X85235874Y-135740602D01*
X85235874Y-135769174D01*
X85221588Y-135797745D01*
X85207302Y-135812031D01*
X85178731Y-135826317D01*
X85121588Y-135840602D01*
X85050160Y-135840602D01*
X84993017Y-135826317D01*
X84964445Y-135812031D01*
X84950160Y-135797745D01*
X84935874Y-135769174D01*
X85035874Y-135540602D02*
X85235874Y-135540602D01*
X85064445Y-135540602D02*
X85050160Y-135526317D01*
X85035874Y-135497745D01*
X85035874Y-135454888D01*
X85050160Y-135426317D01*
X85078731Y-135412031D01*
X85235874Y-135412031D01*
X85078731Y-135169174D02*
X85078731Y-135269174D01*
X85235874Y-135269174D02*
X84935874Y-135269174D01*
X84935874Y-135126317D01*
X85197142Y-134416000D02*
X85211428Y-134430285D01*
X85225714Y-134473142D01*
X85225714Y-134501714D01*
X85211428Y-134544571D01*
X85182857Y-134573142D01*
X85154285Y-134587428D01*
X85097142Y-134601714D01*
X85054285Y-134601714D01*
X84997142Y-134587428D01*
X84968571Y-134573142D01*
X84940000Y-134544571D01*
X84925714Y-134501714D01*
X84925714Y-134473142D01*
X84940000Y-134430285D01*
X84954285Y-134416000D01*
X84925714Y-134316000D02*
X84925714Y-134116000D01*
X85225714Y-134244571D01*
%TO.C,L1*%
X90559714Y-124891000D02*
X90559714Y-125033857D01*
X90259714Y-125033857D01*
X90559714Y-124633857D02*
X90559714Y-124805285D01*
X90559714Y-124719571D02*
X90259714Y-124719571D01*
X90302571Y-124748142D01*
X90331142Y-124776714D01*
X90345428Y-124805285D01*
X89635491Y-126031948D02*
X89635491Y-126131948D01*
X89792634Y-126131948D02*
X89492634Y-126131948D01*
X89492634Y-125989091D01*
X89778348Y-125760520D02*
X89792634Y-125789091D01*
X89792634Y-125846234D01*
X89778348Y-125874805D01*
X89749777Y-125889091D01*
X89635491Y-125889091D01*
X89606920Y-125874805D01*
X89592634Y-125846234D01*
X89592634Y-125789091D01*
X89606920Y-125760520D01*
X89635491Y-125746234D01*
X89664062Y-125746234D01*
X89692634Y-125889091D01*
X89792634Y-125617662D02*
X89592634Y-125617662D01*
X89649777Y-125617662D02*
X89621205Y-125603377D01*
X89606920Y-125589091D01*
X89592634Y-125560520D01*
X89592634Y-125531948D01*
X89792634Y-125431948D02*
X89592634Y-125431948D01*
X89649777Y-125431948D02*
X89621205Y-125417662D01*
X89606920Y-125403377D01*
X89592634Y-125374805D01*
X89592634Y-125346234D01*
X89792634Y-125246234D02*
X89592634Y-125246234D01*
X89492634Y-125246234D02*
X89506920Y-125260520D01*
X89521205Y-125246234D01*
X89506920Y-125231948D01*
X89492634Y-125246234D01*
X89521205Y-125246234D01*
X89592634Y-125146234D02*
X89592634Y-125031948D01*
X89492634Y-125103377D02*
X89749777Y-125103377D01*
X89778348Y-125089091D01*
X89792634Y-125060520D01*
X89792634Y-125031948D01*
X89778348Y-124817662D02*
X89792634Y-124846234D01*
X89792634Y-124903377D01*
X89778348Y-124931948D01*
X89749777Y-124946234D01*
X89635491Y-124946234D01*
X89606920Y-124931948D01*
X89592634Y-124903377D01*
X89592634Y-124846234D01*
X89606920Y-124817662D01*
X89635491Y-124803377D01*
X89664062Y-124803377D01*
X89692634Y-124946234D01*
X89821205Y-124746234D02*
X89821205Y-124517662D01*
X89635491Y-124346234D02*
X89649777Y-124303377D01*
X89664062Y-124289091D01*
X89692634Y-124274805D01*
X89735491Y-124274805D01*
X89764062Y-124289091D01*
X89778348Y-124303377D01*
X89792634Y-124331948D01*
X89792634Y-124446234D01*
X89492634Y-124446234D01*
X89492634Y-124346234D01*
X89506920Y-124317662D01*
X89521205Y-124303377D01*
X89549777Y-124289091D01*
X89578348Y-124289091D01*
X89606920Y-124303377D01*
X89621205Y-124317662D01*
X89635491Y-124346234D01*
X89635491Y-124446234D01*
X89778348Y-124031948D02*
X89792634Y-124060520D01*
X89792634Y-124117662D01*
X89778348Y-124146234D01*
X89749777Y-124160520D01*
X89635491Y-124160520D01*
X89606920Y-124146234D01*
X89592634Y-124117662D01*
X89592634Y-124060520D01*
X89606920Y-124031948D01*
X89635491Y-124017662D01*
X89664062Y-124017662D01*
X89692634Y-124160520D01*
X89792634Y-123760520D02*
X89635491Y-123760520D01*
X89606920Y-123774805D01*
X89592634Y-123803377D01*
X89592634Y-123860520D01*
X89606920Y-123889091D01*
X89778348Y-123760520D02*
X89792634Y-123789091D01*
X89792634Y-123860520D01*
X89778348Y-123889091D01*
X89749777Y-123903377D01*
X89721205Y-123903377D01*
X89692634Y-123889091D01*
X89678348Y-123860520D01*
X89678348Y-123789091D01*
X89664062Y-123760520D01*
X89792634Y-123489091D02*
X89492634Y-123489091D01*
X89778348Y-123489091D02*
X89792634Y-123517662D01*
X89792634Y-123574805D01*
X89778348Y-123603377D01*
X89764062Y-123617662D01*
X89735491Y-123631948D01*
X89649777Y-123631948D01*
X89621205Y-123617662D01*
X89606920Y-123603377D01*
X89592634Y-123574805D01*
X89592634Y-123517662D01*
X89606920Y-123489091D01*
%TD*%
M02*
